<?xml version="1.0" encoding="UTF-8" standalone="no"?>
<svg
   height="24px"
   viewBox="0 0 24 24"
   width="24px"
   fill="#000000"
   version="1.1"
   id="svg6"
   sodipodi:docname="Trazit - Activate.svg"
   inkscape:version="1.1.2 (b8e25be833, 2022-02-05)"
   xmlns:inkscape="http://www.inkscape.org/namespaces/inkscape"
   xmlns:sodipodi="http://sodipodi.sourceforge.net/DTD/sodipodi-0.dtd"
   xmlns="http://www.w3.org/2000/svg"
   xmlns:svg="http://www.w3.org/2000/svg">
  <defs
     id="defs10" />
  <sodipodi:namedview
     id="namedview8"
     pagecolor="#505050"
     bordercolor="#eeeeee"
     borderopacity="1"
     inkscape:pageshadow="0"
     inkscape:pageopacity="0"
     inkscape:pagecheckerboard="0"
     showgrid="false"
     inkscape:zoom="32"
     inkscape:cx="16.265625"
     inkscape:cy="11.71875"
     inkscape:window-width="1920"
     inkscape:window-height="1017"
     inkscape:window-x="-8"
     inkscape:window-y="-8"
     inkscape:window-maximized="1"
     inkscape:current-layer="svg6" />
  <path
     d="M0 0h24v24H0z"
     fill="none"
     id="path2" />
  <path
     d="M 17.44034,5.4715909 H 6.559659 C 2.9581534,5.4715909 0.03125,8.3984943 0.03125,12 c 0,3.601505 2.9269034,6.528409 6.528409,6.528409 H 17.44034 c 3.601506,0 6.52841,-2.926904 6.52841,-6.528409 0,-3.6015057 -2.926904,-6.5284091 -6.52841,-6.5284091 z m 0,10.8806821 H 6.559659 c -2.4046306,0 -4.3522726,-1.947642 -4.3522726,-4.352273 0,-2.4046307 1.947642,-4.3522727 4.3522726,-4.3522727 H 17.44034 c 2.404632,0 4.352274,1.947642 4.352274,4.3522727 0,2.404631 -1.947642,4.352273 -4.352274,4.352273 z m 0,-7.6164775 c -1.806192,0 -3.264204,1.4580115 -3.264204,3.2642045 0,1.806193 1.458012,3.264205 3.264204,3.264205 1.806194,0 3.264206,-1.458012 3.264206,-3.264205 0,-1.806193 -1.458012,-3.2642045 -3.264206,-3.2642045 z"
     id="path4"
     style="stroke-width:1.08806" />
  <path
     style="fill:#008000;stroke-width:0.0011877"
     d="M 6.0163091,16.302486 C 4.1283589,16.058027 2.6228416,14.613194 2.2862264,12.722761 2.1815919,12.135131 2.2288478,11.351324 2.4046377,10.758739 2.7335284,9.6500521 3.5731032,8.6518355 4.6202111,8.1245204 4.9099185,7.9786261 5.3953588,7.81227 5.746554,7.7385327 6.0181494,7.6815082 6.2663225,7.6791516 12,7.6791516 c 5.603889,0 5.987033,0.00344 6.237734,0.055941 0.9009,0.1886782 1.613215,0.5690633 2.248987,1.2009903 1.100672,1.0940121 1.521478,2.5805541 1.159462,4.0959211 -0.413574,1.731174 -1.901067,3.049831 -3.690443,3.271561 -0.322237,0.03994 -11.6306163,0.0389 -11.9394309,-10e-4 z M 18.04132,15.22062 c 1.284433,-0.243654 2.251387,-1.159357 2.587883,-2.450724 0.0631,-0.242205 0.07339,-0.355021 0.07158,-0.785607 -0.0019,-0.444196 -0.01201,-0.539151 -0.08695,-0.814787 -0.339312,-1.247943 -1.311107,-2.1508369 -2.572511,-2.3901212 -0.347895,-0.065995 -0.914851,-0.060619 -1.264818,0.011991 -0.997989,0.207061 -1.820284,0.8418217 -2.263651,1.7473962 -0.199503,0.407482 -0.282071,0.689589 -0.332188,1.134962 -0.06835,0.60738 0.04009,1.190913 0.332188,1.787502 0.440028,0.898756 1.260304,1.535766 2.247938,1.745701 0.338568,0.07196 0.939443,0.07838 1.280531,0.01368 z"
     id="path938" />
  <path
     style="fill:#004b00;fill-opacity:1;stroke-width:0.00016064"
     d="m 14.854053,7.6787838 c -0.921032,-0.00198 -2.945062,-0.00245 -4.497843,-0.00104 l -2.82324,0.00255 v -0.015219 -0.015218 h 4.530784 4.530784 v 0.017001 0.017001 l -0.03293,-7.36e-4 c -0.01811,-4.049e-4 -0.786512,-0.00236 -1.707544,-0.00434 z"
     id="path1717" />
  <path
     style="fill:#004b00;fill-opacity:1;stroke-width:0.000147638"
     d=""
     id="path1867" />
  <path
     style="fill:#004b00;fill-opacity:1;stroke-width:0.00016064"
     d="m 21.571474,10.677105 c -0.0098,-0.03594 -0.06737,-0.194936 -0.09978,-0.275383 C 21.287978,9.9457333 21.018429,9.5156897 20.675257,9.1310702 20.608559,9.0563113 20.436779,8.8824993 20.356019,8.8080484 19.799454,8.2949581 19.187964,7.9668295 18.440072,7.7799391 c -0.206694,-0.05165 -0.287295,-0.065284 -0.44082,-0.074565 -0.1846,-0.011159 -0.743215,-0.021417 -1.169887,-0.021483 l -0.234827,-3.69e-5 v -0.017293 -0.017293 l 0.532346,0.00179 c 0.347629,0.00118 0.552992,0.00348 0.591849,0.00668 0.25276,0.020741 0.389154,0.038901 0.580161,0.077241 0.685518,0.1375988 1.31747,0.433616 1.865868,0.8740043 0.222171,0.1784132 0.442232,0.3951299 0.625191,0.61569 0.337304,0.4066237 0.599082,0.8732125 0.766407,1.3660315 0.0316,0.09308 0.03519,0.106587 0.02839,0.106587 -0.0056,0 -0.0093,-0.0054 -0.01328,-0.02019 z"
     id="path1906" />
  <path
     style="fill:#004b00;fill-opacity:1;stroke-width:0.00016064"
     d="m 21.07163,14.364499 c 0.278955,-0.424062 0.479459,-0.897426 0.59107,-1.395439 0.166952,-0.744939 0.146785,-1.490947 -0.05915,-2.188543 -0.01812,-0.0614 -0.02248,-0.0812 -0.01841,-0.08372 0.0029,-0.0019 0.0056,-0.0029 0.0063,-0.0025 4.52e-4,4.56e-4 0.0114,0.03716 0.02435,0.08158 0.0937,0.321757 0.149316,0.64769 0.168589,0.988186 0.0057,0.101258 0.0057,0.370522 0,0.47178 -0.04353,0.769071 -0.277574,1.487883 -0.694009,2.131508 -0.03713,0.05739 -0.04579,0.06821 -0.05551,0.06936 -0.01078,0.0014 -0.0084,-0.0032 0.03691,-0.07225 z"
     id="path1984" />
  <path
     style="fill:#004b00;fill-opacity:1;stroke-width:0.00016064"
     d="m 14.868931,16.342153 c 0,-0.0077 0.0084,-0.008 0.226326,-0.01056 0.12448,-0.0015 0.539997,-0.0035 0.92337,-0.0049 0.792738,-0.0026 1.511302,-0.0088 1.756602,-0.01489 0.149512,-0.0039 0.176637,-0.0055 0.258977,-0.01722 0.768013,-0.108665 1.503145,-0.427247 2.114214,-0.916235 0.318986,-0.255258 0.600089,-0.553495 0.840706,-0.891945 0.02963,-0.04167 0.03803,-0.05084 0.04558,-0.04975 0.0084,0.0011 0.0067,0.0051 -0.02078,0.04464 -0.09372,0.135028 -0.22511,0.300082 -0.346152,0.434882 -0.08248,0.09185 -0.26342,0.270504 -0.356389,0.351883 -0.661755,0.579236 -1.460903,0.938985 -2.327688,1.047843 -0.272471,0.03422 -0.268301,0.03414 -1.779132,0.03416 -1.304606,2.3e-5 -1.335647,-1.61e-4 -1.335647,-0.0079 z"
     id="path2023" />
  <path
     style="fill:#004b00;fill-opacity:1;stroke-width:0.00016064"
     d="m 6.4661533,16.332662 v -0.01749 l 0.2178261,0.0029 c 0.6453186,0.0085 1.7142793,0.01165 4.7932376,0.01384 1.871286,0.0014 3.399948,0.0032 3.397027,0.0044 -0.0084,0.003 -0.0063,0.009 0.0043,0.01092 0.0052,10e-4 -1.885364,0.0021 -4.201388,0.0024 l -4.2109511,5.78e-4 z"
     id="path2062" />
  <path
     style="fill:#004b00;fill-opacity:1;stroke-width:0.000147638"
     d=""
     id="path2140" />
  <path
     style="fill:#004b00;fill-opacity:1;stroke-width:0.00016064"
     d="M 6.3535213,16.345441 C 5.3636049,16.298534 4.4255977,15.917994 3.6801036,15.260859 3.5733321,15.166745 3.3904242,14.983696 3.2977327,14.878196 3.0910137,14.642912 2.9043794,14.379195 2.7562717,14.113104 c -0.026665,-0.04791 -0.030352,-0.0572 -0.030352,-0.07645 v -0.02193 l 0.044979,0.08071 c 0.4045753,0.725908 0.9897031,1.309748 1.7125059,1.708737 0.094375,0.0521 0.2893829,0.14694 0.3910244,0.190181 0.3020682,0.128505 0.6340243,0.226296 0.9541849,0.281091 0.1694185,0.02899 0.2001268,0.03181 0.3973998,0.03638 0.100519,0.0023 0.1956716,0.0043 0.2114507,0.0043 l 0.028689,3.6e-5 v 0.01701 0.01701 l -0.020189,-6.41e-4 c -0.011103,-3.52e-4 -0.052703,-0.0022 -0.092443,-0.0041 z"
     id="path2179" />
  <path
     style="fill:#004b00;fill-opacity:1;stroke-width:0.00016064"
     d="M 2.6699822,13.948747 C 2.5745344,13.756504 2.5064077,13.594124 2.4434628,13.408831 2.3119515,13.0217 2.2391379,12.646646 2.2157447,12.23589 c -0.00576,-0.101258 -0.00576,-0.370522 0,-0.47178 0.010318,-0.181156 0.033056,-0.377249 0.062222,-0.536596 0.00572,-0.03129 0.00809,-0.03718 0.014867,-0.03718 0.00995,0 0.010109,-0.0047 -0.0023,0.07313 -0.078637,0.493105 -0.081757,1.009791 -0.0087,1.442149 0.069814,0.413227 0.2043838,0.824414 0.3980318,1.216224 0.042536,0.08606 0.046452,0.096 0.045256,0.114757 l -0.0013,0.02054 z"
     id="path2218" />
  <path
     style="fill:#004b00;fill-opacity:1;stroke-width:0.000147638"
     d=""
     id="path2296" />
  <path
     style="fill:#004b00;fill-opacity:1;stroke-width:0.000147638"
     d=""
     id="path2335" />
  <path
     style="fill:#004b00;fill-opacity:1;stroke-width:0.00016064"
     d="m 2.2858009,11.181078 c 0.00123,-0.0054 0.00907,-0.0424 0.017426,-0.08213 0.2159629,-1.026892 0.8005515,-1.9425214 1.646731,-2.5792463 0.057203,-0.043043 0.067968,-0.049544 0.082041,-0.049544 0.016007,0 0.01549,5.3e-4 -0.043241,0.044395 -0.6746602,0.5038826 -1.2139,1.2186206 -1.5006526,1.9890473 -0.074665,0.200607 -0.1231487,0.371429 -0.1659578,0.584722 -0.018467,0.09201 -0.020777,0.1 -0.029312,0.101268 -0.00774,0.0011 -0.0089,-2.44e-4 -0.00703,-0.0084 z"
     id="path2374" />
  <path
     style="fill:#004b00;fill-opacity:1;stroke-width:0.00016064"
     d="M 4.0314486,8.47092 C 4.0174286,8.46958 4.0177106,8.46925 4.0569496,8.441488 4.6506231,8.0214593 5.3645104,7.7519778 6.0857538,7.6756451 6.3070548,7.6522232 6.386173,7.6499774 6.9921232,7.6499117 l 0.5408463,-5.89e-5 v 0.014197 0.014195 l -0.1026951,0.0028 c -0.056482,0.00154 -0.2013629,0.00281 -0.3219576,0.00283 -0.2530913,3.62e-5 -0.7161325,0.00652 -0.9078062,0.01272 -0.2438793,0.00788 -0.3535931,0.018185 -0.4738907,0.044496 -0.3471975,0.07594 -0.7843118,0.2249596 -1.0774555,0.3673246 -0.1772411,0.086077 -0.4040991,0.2211108 -0.5652854,0.3364774 -0.031685,0.022678 -0.040687,0.027145 -0.05243,0.02602 z"
     id="path2413" />
  <path
     style="fill:#004b00;fill-opacity:1;stroke-width:0.000147638"
     d=""
     id="path2530" />
  <path
     style="fill:#004b00;fill-opacity:1;stroke-width:0.00016064"
     d="m 17.884493,15.236518 c 0.648339,-0.08988 1.239605,-0.362008 1.72986,-0.796172 0.102883,-0.09112 0.252119,-0.246119 0.346443,-0.359841 0.123478,-0.148869 0.261627,-0.352948 0.346446,-0.511782 0.01334,-0.02499 0.02522,-0.04448 0.02639,-0.04331 0.0031,0.0031 -0.04049,0.08349 -0.09138,0.16832 -0.196479,0.327535 -0.438322,0.608683 -0.728141,0.846479 -0.37817,0.310285 -0.839684,0.534356 -1.337343,0.649297 -0.129055,0.02981 -0.291826,0.05661 -0.334652,0.05512 -0.0071,-2.47e-4 0.012,-0.004 0.04239,-0.0081 z"
     id="path2569" />
  <path
     style="fill:#004b00;fill-opacity:1;stroke-width:0.00016064"
     d="m 20.462628,13.250125 c -1.9e-4,-0.0021 0.01186,-0.03551 0.02677,-0.07438 0.102029,-0.265846 0.165468,-0.531214 0.200292,-0.83785 l 0.0059,-0.05313 -0.0022,0.05951 c -0.0027,0.07329 -0.01191,0.164844 -0.02317,0.230755 -0.02547,0.149377 -0.09294,0.384388 -0.165575,0.576797 -0.02375,0.06292 -0.04156,0.104464 -0.04216,0.09831 z"
     id="path2608" />
  <path
     style="fill:#004b00;fill-opacity:1;stroke-width:0.00016064"
     d="m 20.685796,11.633415 c -0.0081,-0.09236 -0.03479,-0.249543 -0.06261,-0.370087 C 20.49687,10.716362 20.238724,10.221957 19.8627,9.8068622 19.797703,9.7351115 19.674992,9.6132186 19.607977,9.5538377 19.328022,9.3057734 18.999446,9.1037378 18.647323,8.9631475 18.402791,8.8655141 18.137864,8.7971069 17.865367,8.7612366 c -0.04092,-0.00539 -0.06806,-0.00996 -0.06036,-0.010172 0.04876,-0.00134 0.23662,0.028288 0.362835,0.057236 0.76526,0.1755225 1.423911,0.5998333 1.886536,1.2153314 0.272203,0.36215 0.464016,0.770092 0.579557,1.232576 0.03433,0.137421 0.05004,0.236785 0.05631,0.355961 0.0031,0.0595 1.88e-4,0.07354 -0.0045,0.02125 z"
     id="path2647" />
  <path
     style="fill:#004b00;fill-opacity:1;stroke-width:0.000147638"
     d=""
     id="path2725" />
  <path
     style="fill:#004b00;fill-opacity:1;stroke-width:0.000147638"
     d=""
     id="path2764" />
  <path
     style="fill:#004b00;fill-opacity:1;stroke-width:0.00016064"
     d="m 14.159471,12.097401 c 2.04e-4,-0.005 0.0011,-0.0059 0.0026,-0.0026 0.0011,0.003 0.001,0.0068 -3.34e-4,0.0081 -0.0015,0.0015 -0.0024,-10e-4 -0.0023,-0.0055 z"
     id="path2803" />
  <path
     style="fill:#004b00;fill-opacity:1;stroke-width:0.00016064"
     d="m 14.286706,12.876636 c -0.05621,-0.191148 -0.09294,-0.38626 -0.113412,-0.602494 -0.01044,-0.110705 -0.01056,-0.39421 -8.3e-5,-0.505782 0.03161,-0.337808 0.08201,-0.581394 0.173939,-0.840686 0.02707,-0.07632 0.0236,-0.05178 -0.0048,0.03387 -0.08525,0.257364 -0.133522,0.494652 -0.158508,0.779185 -0.0076,0.08643 -0.0076,0.432104 0,0.518532 0.0191,0.217577 0.04875,0.389929 0.101144,0.587888 0.01066,0.04049 0.01863,0.07443 0.01762,0.07545 -0.001,10e-4 -0.0081,-0.01968 -0.01592,-0.04598 z"
     id="path2842" />
</svg>
