<?xml version="1.0" encoding="UTF-8" standalone="no"?>
<svg
   height="24px"
   viewBox="0 0 24 24"
   width="24px"
   fill="#000000"
   version="1.1"
   id="svg6"
   sodipodi:docname="Tazit - Deactivate.svg"
   inkscape:version="1.1.2 (b8e25be833, 2022-02-05)"
   xmlns:inkscape="http://www.inkscape.org/namespaces/inkscape"
   xmlns:sodipodi="http://sodipodi.sourceforge.net/DTD/sodipodi-0.dtd"
   xmlns="http://www.w3.org/2000/svg"
   xmlns:svg="http://www.w3.org/2000/svg">
  <defs
     id="defs10" />
  <sodipodi:namedview
     id="namedview8"
     pagecolor="#505050"
     bordercolor="#eeeeee"
     borderopacity="1"
     inkscape:pageshadow="0"
     inkscape:pageopacity="0"
     inkscape:pagecheckerboard="0"
     showgrid="false"
     inkscape:zoom="16"
     inkscape:cx="2.28125"
     inkscape:cy="7.1875"
     inkscape:window-width="1920"
     inkscape:window-height="1017"
     inkscape:window-x="-8"
     inkscape:window-y="-8"
     inkscape:window-maximized="1"
     inkscape:current-layer="svg6" />
  <path
     d="M0 0h24v24H0V0z"
     fill="none"
     id="path2" />
  <path
     d="M 17.425337,5.4643912 H 6.5457827 c -3.6011322,0 -6.52773216,2.9265999 -6.52773216,6.5277328 0,3.601131 2.92659996,6.527732 6.52773216,6.527732 H 17.425337 c 3.601131,0 6.527732,-2.926601 6.527732,-6.527732 0,-3.6011329 -2.926601,-6.5277328 -6.527732,-6.5277328 z m 0,10.8795538 H 6.5457827 c -2.4043813,0 -4.3518214,-1.94744 -4.3518214,-4.351821 0,-2.404382 1.9474401,-4.3518221 4.3518214,-4.3518221 H 17.425337 c 2.404381,0 4.351821,1.9474401 4.351821,4.3518221 0,2.404381 -1.94744,4.351821 -4.351821,4.351821 z M 6.5457827,8.7282573 c -1.8060059,0 -3.2638661,1.4578607 -3.2638661,3.2638667 0,1.806005 1.4578602,3.263866 3.2638661,3.263866 1.806006,0 3.2638661,-1.457861 3.2638661,-3.263866 0,-1.806006 -1.4578601,-3.2638667 -3.2638661,-3.2638667 z"
     id="path4"
     style="stroke-width:1.08795" />
  <path
     style="fill:#ff0000;stroke-width:0.00109156"
     d="M 6.0387119,16.300162 C 4.3933341,16.106805 2.9617074,14.944983 2.4424685,13.381667 2.0108906,12.082279 2.1935484,10.709918 2.949674,9.5708858 3.1921892,9.2055595 3.7625388,8.6366163 4.1299639,8.3935065 4.6486832,8.0502916 5.2141424,7.8241289 5.8053294,7.7234225 6.1293444,7.6682277 6.2886215,7.6670198 12.115799,7.6755656 l 5.978064,0.00877 0.249229,0.061953 c 0.56226,0.1397649 1.042198,0.3468759 1.498063,0.6464702 0.365276,0.2400586 0.93523,0.80897 1.18029,1.1781303 1.335298,2.0115009 0.804321,4.6858949 -1.197714,6.0325759 -0.420897,0.283119 -0.979248,0.51503 -1.556583,0.646528 l -0.288809,0.06578 -5.862816,0.0048 c -3.2245483,0.0026 -5.9591135,-0.0065 -6.0768111,-0.02038 z M 7.0936898,15.219471 C 7.7780563,15.101892 8.3768219,14.793072 8.8629253,14.306969 9.5227471,13.647147 9.8528826,12.789117 9.8109863,11.842934 9.757237,10.629061 9.0718585,9.5796924 7.9896612,9.0543421 6.3516679,8.2591819 4.4111257,8.918134 3.6100951,10.541516 c -0.5218428,1.057576 -0.4322729,2.330058 0.2329668,3.309667 0.4756416,0.700414 1.2714236,1.211957 2.1254086,1.366253 0.3044029,0.055 0.8116078,0.05592 1.1252193,0.002 z"
     id="path901" />
  <path
     style="fill:#7e0000;stroke-width:0.000147638;fill-opacity:1"
     d="m 2.2950218,12.918945 c -0.02933,-0.128759 -0.060157,-0.322696 -0.075905,-0.477539 -0.031946,-0.314108 -0.03133,-0.600333 0.00197,-0.916015 C 2.342043,10.378836 2.920044,9.3244271 3.8261719,8.5973436 4.3106166,8.2086217 4.8650298,7.9316399 5.468244,7.7769732 5.5428873,7.7578343 5.55529,7.7556877 5.5854315,7.7566907 l 0.033709,0.00112 -0.058594,0.01317 C 5.0941601,7.8758124 4.6072667,8.0834362 4.1750875,8.3617779 3.9640135,8.4977185 3.7448538,8.682262 3.4823503,8.9450975 3.2362697,9.1914895 3.0617984,9.3975007 2.9315174,9.5955072 2.3600777,10.464005 2.1186523,11.48926 2.2443526,12.513672 c 0.011577,0.09435 0.039617,0.265682 0.057695,0.352539 l 0.012805,0.06152 h -0.00891 c -0.00605,0 -0.00956,-0.0028 -0.010917,-0.0088 z"
     id="path1093" />
  <path
     style="fill:#7e0000;fill-opacity:1;stroke-width:0.000147638"
     d=""
     id="path1835" />
  <path
     style="fill:#7e0000;fill-opacity:1;stroke-width:0.000147638"
     d=""
     id="path1874" />
  <path
     style="fill:#7e0000;fill-opacity:1;stroke-width:0.000147638"
     d=""
     id="path1913" />
  <path
     style="fill:#7e0000;fill-opacity:1;stroke-width:0.000147638"
     d="m 3.796875,10.218296 c 0,-0.0058 0.079013,-0.121782 0.1254706,-0.184221 C 4.0843956,9.8162765 4.2804728,9.61154 4.4870233,9.4444592 4.7930419,9.1969177 5.1455571,9.0049456 5.5175781,8.8832415 5.7904053,8.793988 6.0616436,8.7424196 6.3515625,8.7246826 c 0.083371,-0.0051 0.2805505,-0.00509 0.3696839,2.04e-5 0.1252031,0.00718 0.2958926,0.027378 0.3920348,0.046395 0.053764,0.010635 0.033396,0.00978 -0.036005,-0.00152 C 6.8709961,8.7360171 6.6710603,8.7232408 6.4440909,8.7291212 5.732603,8.7475545 5.043359,9.0033992 4.4850703,9.456302 4.403833,9.5222044 4.3414959,9.5783519 4.2544792,9.663997 4.0949735,9.8209887 3.9636613,9.9778671 3.8456437,10.152432 c -0.046117,0.06821 -0.048769,0.0718 -0.048769,0.06586 z"
     id="path1952" />
  <path
     style="fill:#7e0000;fill-opacity:1;stroke-width:0.000147638"
     d="m 5.5820312,7.7496555 c 0.1076148,-0.026748 0.3135187,-0.061617 0.46875,-0.079381 0.2300383,-0.026325 0.2890287,-0.027684 1.2021485,-0.02769 l 0.8173828,-5.9e-6 v 0.013026 0.013026 l -0.6455078,0.00267 c -0.9869757,0.00408 -1.306324,0.010937 -1.4931641,0.032069 -0.062442,0.00706 -0.1503346,0.02146 -0.23885,0.039127 -0.047101,0.0094 -0.076659,0.013239 -0.099609,0.012935 l -0.032634,-4.319e-4 z"
     id="path1991" />
  <path
     style="fill:#7e0000;fill-opacity:1;stroke-width:0.000147638"
     d=""
     id="path2030" />
  <path
     style="fill:#7e0000;fill-opacity:1;stroke-width:0.000147638"
     d="m 7.8567665,7.6396485 c 0.7279599,-5.434e-4 1.917999,-5.434e-4 2.6445315,0 0.726532,5.434e-4 0.130929,9.88e-4 -1.3235636,9.88e-4 -1.4544922,-1e-7 -2.0489278,-4.447e-4 -1.3209679,-9.88e-4 z"
     id="path2108" />
  <path
     style="fill:#7e0000;fill-opacity:1;stroke-width:0.000147638"
     d="m 8.0458984,7.670712 0.024414,-0.00116 V 7.656067 7.642581 h 1.875 1.8750006 V 7.657352 7.672123 L 9.9208984,7.6719973 c -1.0446777,-6.73e-5 -1.8884277,-6.456e-4 -1.875,-0.00129 z"
     id="path2147" />
  <path
     style="fill:#7e0000;fill-opacity:1;stroke-width:0.000147638"
     d="m 14.667969,7.6775183 c -0.823926,-0.0014 -1.801709,-0.0028 -2.172852,-0.00312 l -0.674804,-5.748e-4 v -0.015625 -0.015625 h 2.1875 2.187499 v 0.019531 0.019531 l -0.01465,-7.908e-4 c -0.0081,-4.35e-4 -0.688769,-0.00193 -1.512695,-0.00333 z"
     id="path2186" />
  <path
     style="fill:#7e0000;fill-opacity:1;stroke-width:0.000147638"
     d="m 16.195312,7.6619188 v -0.019722 l 0.723633,0.00147 c 0.633288,0.00129 0.733875,0.00229 0.805664,0.00803 0.08536,0.00682 0.218713,0.020258 0.25586,0.025775 0.01182,0.00175 -0.38501,0.00341 -0.881836,0.00368 l -0.903321,4.873e-4 z"
     id="path2225" />
  <path
     style="fill:#7e0000;fill-opacity:1;stroke-width:0.000147638"
     d=""
     id="path2264" />
  <path
     style="fill:#7e0000;fill-opacity:1;stroke-width:0.000147638"
     d=""
     id="path2342" />
  <path
     style="fill:#7e0000;fill-opacity:1;stroke-width:0.000147638"
     d=""
     id="path2381" />
  <path
     style="fill:#7e0000;fill-opacity:1;stroke-width:0.000147638"
     d="M 21.441771,10.364103 C 21.319903,10.055749 21.117566,9.68865 20.939659,9.453125 20.696049,9.1306173 20.28396,8.7186743 19.962891,8.4767031 19.894744,8.425345 19.840056,8.3882252 19.749053,8.331561 19.33409,8.0731766 18.915769,7.8951655 18.40625,7.7601494 c -0.04834,-0.01281 -0.08458,-0.02341 -0.08052,-0.023556 0.009,-3.228e-4 0.139051,0.02984 0.21038,0.048777 0.135315,0.035925 0.28626,0.083914 0.411605,0.1308602 0.78038,0.2922819 1.458881,0.8010566 1.961042,1.4704875 0.217294,0.2896751 0.394945,0.6014072 0.536492,0.9414059 0.04329,0.103992 0.04196,0.09965 0.0306,0.09946 -0.008,-1.37e-4 -0.01188,-0.0073 -0.03408,-0.06348 z"
     id="path2420" />
  <path
     style="fill:#7e0000;fill-opacity:1;stroke-width:0.000147638"
     d="m 21.481183,13.520508 c 0.02604,-0.06857 0.08863,-0.258519 0.10974,-0.333008 0.08646,-0.305108 0.1342,-0.580424 0.159867,-0.921875 0.0067,-0.0889 0.0067,-0.461076 5.8e-5,-0.550781 -0.03284,-0.442017 -0.118122,-0.84309 -0.261174,-1.228206 -0.01151,-0.03098 -0.02092,-0.05703 -0.02092,-0.05789 0,-8.57e-4 0.0039,-9.96e-4 0.0086,-3.1e-4 0.01024,0.0015 0.01914,0.02284 0.06382,0.15325 0.123009,0.359022 0.192858,0.707383 0.225248,1.123389 0.0068,0.0877 0.0068,0.486517 0,0.574219 -0.0345,0.443116 -0.113566,0.819431 -0.251756,1.198242 -0.02499,0.0685 -0.02825,0.07519 -0.0366,0.07519 h -0.0092 z"
     id="path2459" />
  <path
     style="fill:#7e0000;fill-opacity:1;stroke-width:0.000147638"
     d="m 19.672122,15.701795 c 0.220653,-0.132104 0.45764,-0.3095 0.665769,-0.498363 0.114,-0.103447 0.272326,-0.266763 0.378687,-0.390621 0.299731,-0.349042 0.546983,-0.754802 0.721416,-1.183905 0.02525,-0.06211 0.03158,-0.07443 0.03878,-0.07553 0.0075,-0.0011 0.0083,-2e-6 0.0061,0.0087 -0.0014,0.0055 -0.0181,0.04741 -0.03715,0.09311 -0.222901,0.534783 -0.537564,1.00495 -0.945754,1.41314 -0.244621,0.244621 -0.504739,0.450138 -0.800401,0.632389 -0.04947,0.0305 -0.06724,0.03951 -0.07788,0.03951 -0.01235,0 -0.0071,-0.004 0.05043,-0.03844 z"
     id="path2498" />
  <path
     style="fill:#7e0000;fill-opacity:1;stroke-width:0.000147638"
     d=""
     id="path2537" />
  <path
     style="fill:#7e0000;fill-opacity:1;stroke-width:0.000147638"
     d="m 18.158203,16.277544 c 0.0021,-9.59e-4 0.04697,-0.01157 0.09961,-0.02358 0.325585,-0.07429 0.633316,-0.174886 0.931641,-0.30455 0.09082,-0.03947 0.288171,-0.136556 0.367188,-0.180629 0.0406,-0.02264 0.05763,-0.03017 0.06612,-0.0292 0.0098,0.0011 0.0011,0.0072 -0.06055,0.04215 -0.09111,0.0517 -0.288322,0.150581 -0.382529,0.191804 -0.294978,0.129077 -0.584888,0.220935 -0.890533,0.282168 -0.08657,0.01734 -0.141337,0.02648 -0.130951,0.02184 z"
     id="path2576" />
  <path
     style="fill:#7e0000;fill-opacity:1;stroke-width:0.000147638"
     d="m 16.641863,16.315433 c 0.04472,-6.27e-4 0.116794,-6.26e-4 0.160156,2e-6 0.04336,6.28e-4 0.0068,0.0011 -0.08132,0.0011 -0.08809,-10e-7 -0.123564,-5.14e-4 -0.07884,-0.0011 z"
     id="path2615" />
  <path
     style="fill:#7e0000;fill-opacity:1;stroke-width:0.000147638"
     d="m 13.179688,16.332516 v -0.0093 l 1.477539,-0.0027 c 0.812646,-0.0015 1.866894,-0.0021 2.342773,-0.0015 0.862403,0.0012 0.864953,0.0012 0.779297,0.0081 -0.04727,0.0038 -0.121973,0.0086 -0.166016,0.01067 -0.04902,0.0023 -0.924407,0.0038 -2.256836,0.0038 l -2.176757,7e-5 z"
     id="path2654" />
  <path
     style="fill:#7e0000;fill-opacity:1;stroke-width:0.000147638"
     d="m 9.7421875,16.332031 v -0.0098 h 1.7187505 1.71875 v 0.0098 0.0098 h -1.71875 -1.7187505 z"
     id="path2732" />
  <path
     style="fill:#7e0000;fill-opacity:1;stroke-width:0.000147638"
     d="m 9.1005859,16.31935 c 0.02417,-6.86e-4 0.063721,-6.86e-4 0.087891,0 0.02417,6.85e-4 0.00439,0.0012 -0.043945,0.0012 -0.04834,0 -0.068115,-5.61e-4 -0.043946,-0.0012 z"
     id="path2771" />
  <path
     style="fill:#7e0000;fill-opacity:1;stroke-width:0.000147638"
     d="m 6.3769531,16.339104 c -0.3000863,-0.01076 -0.6559506,-0.06381 -0.9423828,-0.140482 -0.0555,-0.01486 -0.067383,-0.01927 -0.067383,-0.02505 0,-0.0067 0.00126,-0.0066 0.026367,6.72e-4 0.1929625,0.05621 0.5194846,0.118764 0.6708984,0.128523 0.1173463,0.0076 2.1258249,0.01929 3.3310547,0.01945 l 0.3466797,4.6e-5 v 0.0098 0.0098 l -1.6669922,-7.86e-4 c -0.9168457,-4.33e-4 -1.6810547,-0.0013 -1.6982422,-0.0019 z"
     id="path2810" />
  <path
     style="fill:#7e0000;fill-opacity:1;stroke-width:0.000147638"
     d=""
     id="path2888" />
  <path
     style="fill:#7e0000;fill-opacity:1;stroke-width:0.000147638"
     d="M 5.3144531,16.165602 C 4.8241532,16.016521 4.4113404,15.814104 4.0078125,15.524909 3.7194086,15.31822 3.4359299,15.054741 3.2075052,14.781065 2.8153684,14.311245 2.5287508,13.770397 2.3616926,13.185015 c -0.013879,-0.04863 -0.026454,-0.09493 -0.027946,-0.102876 -0.00252,-0.01344 -0.00209,-0.01436 0.00616,-0.01314 0.00798,0.0012 0.010746,0.0082 0.027424,0.06967 0.2307386,0.85027 0.7093273,1.596198 1.392435,2.17025 0.2122219,0.178341 0.4505429,0.342411 0.6972643,0.480024 0.078681,0.04389 0.2656502,0.137163 0.3476563,0.173443 0.1497021,0.06623 0.365719,0.146272 0.5126953,0.189978 0.040533,0.01205 0.049805,0.01616 0.049805,0.02204 0,0.004 -4.395e-4,0.0071 -9.766e-4,0.0069 -5.371e-4,-1.64e-4 -0.023828,-0.0072 -0.051758,-0.01574 z"
     id="path2927" />
  <path
     style="fill:#7e0000;fill-opacity:1;stroke-width:0.000147638"
     d=""
     id="path2966" />
  <path
     style="fill:#7e0000;fill-opacity:1;stroke-width:0.000147638"
     d="m 2.3147738,13.004883 c -0.0081,-0.03491 -0.015564,-0.06655 -0.016579,-0.07031 -0.00138,-0.0051 4.963e-4,-0.0068 0.00743,-0.0068 0.00875,0 0.010085,0.0035 0.023778,0.06152 0.00798,0.03384 0.015556,0.06548 0.016838,0.07031 0.00195,0.0073 7.706e-4,0.0088 -0.0072,0.0088 -0.00911,0 -0.010184,-0.0028 -0.024263,-0.06348 z"
     id="path3005" />
  <path
     style="fill:#7e0000;fill-opacity:1;stroke-width:0.000147638"
     d="m 3.75,10.291477 c 0,-0.0021 0.00176,-0.005 0.00391,-0.0063 0.00215,-0.0013 0.00391,-6.56e-4 0.00391,0.0015 0,0.0021 -0.00176,0.005 -0.00391,0.0063 -0.00215,0.0013 -0.00391,6.56e-4 -0.00391,-0.0015 z"
     id="path3044" />
</svg>
