<?xml version="1.0" encoding="UTF-8"?>
<svg id="Capa_2" data-name="Capa 2" xmlns="http://www.w3.org/2000/svg" viewBox="0 0 18.5 18.5">
  <g id="Capa_1-2" data-name="Capa 1">
    <g>
      <path d="M12.1,18.5H6.4c-3.5,0-6.4-2.9-6.4-6.4V6.4C0,2.9,2.9,0,6.4,0h5.7c3.5,0,6.4,2.9,6.4,6.4v5.7c0,3.5-2.9,6.4-6.4,6.4ZM6.4,1.7C3.8,1.7,1.7,3.8,1.7,6.4v5.7c0,2.6,2.1,4.7,4.7,4.7h5.7c2.6,0,4.7-2.1,4.7-4.7V6.4c0-2.6-2.1-4.7-4.7-4.7H6.4Z" fill="#ff6d00"/>
      <g>
        <path d="M4.3,11.7l-1.6-5h1.2l.6,2.1c.2,.6,.3,1.2,.5,1.8h0c.1-.6,.3-1.2,.5-1.8l.6-2.2h1.2l-1.7,5h-1.3Z" fill="#ff6d00"/>
        <path d="M10.9,9.5h-1.9v1.2h2.1v.9h-3.2V6.6h3.1v.9h-2v1h1.9v.9Z" fill="#ff6d00"/>
        <path d="M11.9,6.7c.4,0,.9-.1,1.5-.1s1.3,.1,1.6,.4c.3,.2,.5,.6,.5,1.1s-.5,1.1-.9,1.2h0c.3,.2,.5,.5,.7,1,.2,.6,.3,1.2,.4,1.4h-1.2c0-.1-.2-.6-.3-1.2-.1-.6-.4-.8-.8-.8h-.3v2h-1.1V6.7Zm1.1,2.2h.4c.6,0,.9-.3,.9-.7s-.3-.7-.8-.7c-.3,0-.4,0-.5,0v1.4Z" fill="#ff6d00"/>
      </g>
    </g>
  </g>
</svg>