<?xml version="1.0" encoding="UTF-8"?>
<svg id="Capa_2" data-name="Capa 2" xmlns="http://www.w3.org/2000/svg" viewBox="0 0 18.5 18.5">
  <g id="Capa_1-2" data-name="Capa 1">
    <g>
      <path d="M12.1,18.5H6.4c-3.5,0-6.4-2.9-6.4-6.4V6.4C0,2.9,2.9,0,6.4,0h5.7c3.5,0,6.4,2.9,6.4,6.4v5.7c0,3.5-2.9,6.4-6.4,6.4ZM6.4,1.7C3.8,1.7,1.7,3.8,1.7,6.4v5.7c0,2.6,2.1,4.7,4.7,4.7h5.7c2.6,0,4.7-2.1,4.7-4.7V6.4c0-2.6-2.1-4.7-4.7-4.7H6.4Z" fill="#22c600"/>
      <g>
        <path d="M3.1,6.7c.4,0,.8-.1,1.5-.1s1.2,.1,1.5,.4c.3,.3,.5,.7,.5,1.2s-.2,.9-.5,1.2c-.4,.4-1,.5-1.6,.5s-.3,0-.4,0v1.8h-1.1V6.7Zm1.1,2.3c0,0,.2,0,.4,0,.6,0,1-.3,1-.8s-.3-.7-.9-.7-.4,0-.5,0v1.5Z" fill="#22c600"/>
        <path d="M7.5,6.7c.4,0,.9-.1,1.5-.1s1.3,.1,1.6,.4c.3,.2,.5,.6,.5,1.1s-.5,1.1-.9,1.2h0c.3,.2,.5,.5,.7,1,.2,.6,.3,1.2,.4,1.4h-1.2c0-.1-.2-.6-.3-1.2-.1-.6-.4-.8-.8-.8h-.3v2h-1.1V6.7Zm1.1,2.2h.4c.6,0,.9-.3,.9-.7s-.3-.7-.8-.7c-.3,0-.4,0-.5,0v1.4Z" fill="#22c600"/>
        <path d="M14.9,9.5h-1.9v1.2h2.1v.9h-3.2V6.6h3.1v.9h-2v1h1.9v.9Z" fill="#22c600"/>
      </g>
    </g>
  </g>
</svg>