<?xml version="1.0" encoding="UTF-8" standalone="no"?>
<!-- Created with Inkscape (http://www.inkscape.org/) -->

<svg
   width="210mm"
   height="297mm"
   viewBox="0 0 210 297"
   version="1.1"
   id="svg6813"
   inkscape:version="1.1.2 (b8e25be833, 2022-02-05)"
   sodipodi:docname="Trazit - Prev no color.svg"
   xmlns:inkscape="http://www.inkscape.org/namespaces/inkscape"
   xmlns:sodipodi="http://sodipodi.sourceforge.net/DTD/sodipodi-0.dtd"
   xmlns="http://www.w3.org/2000/svg"
   xmlns:svg="http://www.w3.org/2000/svg">
  <sodipodi:namedview
     id="namedview6815"
     pagecolor="#505050"
     bordercolor="#eeeeee"
     borderopacity="1"
     inkscape:pageshadow="0"
     inkscape:pageopacity="0"
     inkscape:pagecheckerboard="0"
     inkscape:document-units="mm"
     showgrid="false"
     showguides="true"
     inkscape:guide-bbox="true"
     inkscape:lockguides="true"
     inkscape:zoom="4"
     inkscape:cx="119.125"
     inkscape:cy="50.5"
     inkscape:window-width="1920"
     inkscape:window-height="1017"
     inkscape:window-x="-8"
     inkscape:window-y="-8"
     inkscape:window-maximized="1"
     inkscape:current-layer="layer1">
    <sodipodi:guide
       position="104.48902,93.201977"
       orientation="0,-1"
       id="guide67029"
       inkscape:locked="true" />
  </sodipodi:namedview>
  <defs
     id="defs6810">
    <linearGradient
       id="linearGradient46545"
       inkscape:swatch="solid">
      <stop
         style="stop-color:#000000;stop-opacity:1;"
         offset="0"
         id="stop46543" />
    </linearGradient>
    <linearGradient
       id="linearGradient46502"
       inkscape:swatch="solid">
      <stop
         style="stop-color:#000000;stop-opacity:1;"
         offset="0"
         id="stop46500" />
    </linearGradient>
    <linearGradient
       id="linearGradient46459"
       inkscape:swatch="solid">
      <stop
         style="stop-color:#000000;stop-opacity:1;"
         offset="0"
         id="stop46457" />
    </linearGradient>
    <linearGradient
       id="linearGradient31882"
       inkscape:swatch="solid">
      <stop
         style="stop-color:#000000;stop-opacity:1;"
         offset="0"
         id="stop31880" />
    </linearGradient>
  </defs>
  <g
     inkscape:label="Capa 1"
     inkscape:groupmode="layer"
     id="layer1">
    <path
       style="font-variation-settings:normal;opacity:1;fill:none;fill-opacity:1;stroke:#000000;stroke-width:3.62691;stroke-linecap:butt;stroke-linejoin:miter;stroke-miterlimit:4;stroke-dasharray:none;stroke-dashoffset:0;stroke-opacity:1;stop-color:#000000;stop-opacity:1"
       d="M 31.488581,12.895511 29.84781,161.63512 c 0,0 0.411089,12.36154 14.778378,12.36154 14.367291,0 146.548022,0.40038 146.548022,0.40038 0,0 14.36767,-0.40038 14.7784,-13.95691 0.41105,-13.558 1.64075,-143.157062 1.64075,-143.157062 0,0 3.28153,-14.3555159 -11.49398,-14.7544477 C 181.32138,2.1282455 43.803659,2.1282455 43.803659,2.1282455 c 0,0 -11.904349,-0.7971332 -12.315078,10.7669005 z"
       id="path8047" />
    <path
       style="font-variation-settings:normal;opacity:1;fill:none;fill-opacity:1;stroke:#000000;stroke-width:2.32352;stroke-linecap:butt;stroke-linejoin:miter;stroke-miterlimit:4;stroke-dasharray:none;stroke-dashoffset:0;stroke-opacity:1;stop-color:#000000;stop-opacity:1"
       d="M 1.5807957,39.263288 V 199.65382 l 2.1662468,2.16625 H 170.25706 l 1.99465,-1.99465 v -8.7726 l -2.90978,-2.90976 H 19.112381 l -1.973214,-1.97323 V 35.940288 l -1.998239,-1.99824 H 3.8535683 l -2.273489,2.269936 v 3.05273"
       id="path18119" />
    <path
       style="opacity:0.874;fill:none;fill-opacity:1;stroke-width:0.0641913;stroke-linejoin:round;stroke-miterlimit:4;stroke-dasharray:none"
       d="M 9.4014476,184.02612 8.6865138,183.21467 V 112.07489 40.935167 l 0.7614017,-0.764959 c 0.6970595,-0.697068 1.1045735,-0.764996 4.8879995,-0.764996 3.578952,0 4.198085,0.107427 4.670655,0.639862 0.500455,0.58984 0.546922,5.722324 0.546922,66.686776 v 66.04623 l 1.0867,1.12243 1.08312,1.12243 H 83.794864 145.8657 l 0.88652,0.98303 c 0.83288,0.92586 0.8865,1.17609 0.8865,4.32571 0,2.79184 -0.10725,3.43884 -0.60054,3.92319 -0.55406,0.53621 -5.80025,0.58269 -68.758672,0.58269 H 10.12353 Z"
       id="path36582" />
    <path
       style="opacity:0.874;fill:none;fill-opacity:1;stroke-width:0.0641913;stroke-linejoin:round;stroke-miterlimit:4;stroke-dasharray:none"
       d="M 9.4014476,184.02612 8.6865138,183.21467 V 112.07489 40.935167 l 0.7614017,-0.764959 c 0.6970595,-0.697068 1.1045735,-0.764996 4.8879995,-0.764996 3.578952,0 4.198085,0.107427 4.670655,0.639862 0.500455,0.58984 0.546922,5.722324 0.546922,66.686776 v 66.04623 l 1.0867,1.12243 1.08312,1.12243 H 83.794864 145.8657 l 0.88652,0.98303 c 0.83288,0.92586 0.8865,1.17609 0.8865,4.32571 0,2.79184 -0.10725,3.43884 -0.60054,3.92319 -0.55406,0.53621 -5.80025,0.58269 -68.758672,0.58269 H 10.12353 Z"
       id="path36621" />
    <path
       style="opacity:0.874;fill:none;fill-opacity:1;stroke-width:0.0641913;stroke-linejoin:round;stroke-miterlimit:4;stroke-dasharray:none"
       d="M 59.22762,159.61472 39.801106,159.43604 38.060244,158.596 c -2.141223,-1.02948 -4.12838,-3.35303 -4.852605,-5.67191 -0.500453,-1.5943 -0.486157,-6.54094 0.142983,-67.866423 0.42539,-40.445181 0.825748,-66.656422 1.029503,-67.462488 0.439686,-1.755173 2.101905,-3.712633 3.923197,-4.609157 1.465612,-0.718515 1.862399,-0.732821 31.774119,-0.818618 16.660442,-0.07143 46.150699,0.03142 65.532899,0.178683 l 35.24009,0.250084 1.6372,0.897237 c 0.99021,0.543357 2.02329,1.487073 2.6238,2.398614 l 0.99022,1.504942 -0.10739,11.792815 c -0.51832,73.842901 -1.17965,121.635071 -1.7087,123.481391 -0.88652,3.08853 -4.26244,6.13663 -7.64369,6.90839 -1.68368,0.38249 -67.968688,0.40038 -107.454069,0.0314 z m 15.640233,-40.65678 v -7.7095 H 64.166733 53.465619 V 83.915514 56.582536 h 10.701114 10.70112 V 49.398899 42.21526 H 58.992766 43.118755 l -1.411997,1.472744 -1.41199,1.472769 v 38.551692 38.551655 l 2.048282,2.19844 2.048284,2.19843 h 15.237722 15.238076 z m 56.012487,5.02025 2.59522,-2.68817 V 90.260529 59.230651 l -2.04829,-2.198407 -2.04828,-2.198408 H 112.73857 96.098141 l -6.578813,7.008484 -6.579535,7.008484 h 17.694937 17.69495 v 6.132335 6.132346 H 102.94399 87.558975 l -2.395026,2.53085 -2.395014,2.530863 v 17.522292 17.52191 l 2.541577,2.72392 2.54159,2.72389 h 20.212958 20.21329 z M 159.48838,84.440985 V 42.21526 h -6.5856 c -4.17056,0 -6.58489,0.143054 -6.58489,0.357471 0,0.17869 -0.25022,0.357455 -0.49331,0.357455 -0.43611,0 -0.49331,4.860466 -0.49331,41.642007 0,22.903187 0.10727,41.747017 0.21449,41.875757 0.14305,0.14305 3.30656,0.21438 7.07925,0.21438 h 6.8598 z"
       id="path36660" />
    <path
       style="opacity:0.874;fill:none;fill-opacity:1;stroke-width:0.0641913;stroke-linejoin:round;stroke-miterlimit:4;stroke-dasharray:none"
       d="M 59.22762,159.61472 39.801106,159.43604 38.060244,158.596 c -2.141223,-1.02948 -4.12838,-3.35303 -4.852605,-5.67191 -0.500453,-1.5943 -0.486157,-6.54094 0.142983,-67.866423 0.42539,-40.445181 0.825748,-66.656422 1.029503,-67.462488 0.439686,-1.755173 2.101905,-3.712633 3.923197,-4.609157 1.465612,-0.718515 1.862399,-0.732821 31.774119,-0.818618 16.660442,-0.07143 46.150699,0.03142 65.532899,0.178683 l 35.24009,0.250084 1.6372,0.897237 c 0.99021,0.543357 2.02329,1.487073 2.6238,2.398614 l 0.99022,1.504942 -0.10739,11.792815 c -0.51832,73.842901 -1.17965,121.635071 -1.7087,123.481391 -0.88652,3.08853 -4.26244,6.13663 -7.64369,6.90839 -1.68368,0.38249 -67.968688,0.40038 -107.454069,0.0314 z m 15.640233,-40.65678 v -7.7095 H 64.166733 53.465619 V 83.915514 56.582536 h 10.701114 10.70112 V 49.398899 42.21526 H 58.992766 43.118755 l -1.411997,1.472744 -1.41199,1.472769 v 38.551692 38.551655 l 2.048282,2.19844 2.048284,2.19843 h 15.237722 15.238076 z m 56.012487,5.02025 2.59522,-2.68817 V 90.260529 59.230651 l -2.04829,-2.198407 -2.04828,-2.198408 H 112.73857 96.098141 l -6.578813,7.008484 -6.579535,7.008484 h 17.694937 17.69495 v 6.132335 6.132346 H 102.94399 87.558975 l -2.395026,2.53085 -2.395014,2.530863 v 17.522292 17.52191 l 2.541577,2.72392 2.54159,2.72389 h 20.212958 20.21329 z M 159.48838,84.440985 V 42.21526 h -6.5856 c -4.17056,0 -6.58489,0.143054 -6.58489,0.357471 0,0.17869 -0.25022,0.357455 -0.49331,0.357455 -0.43611,0 -0.49331,4.860466 -0.49331,41.642007 0,22.903187 0.10727,41.747017 0.21449,41.875757 0.14305,0.14305 3.30656,0.21438 7.07925,0.21438 h 6.8598 z"
       id="path36699" />
    <path
       style="opacity:0.874;fill:#000000;fill-opacity:1;stroke-width:0.00594729;stroke-linejoin:round;stroke-miterlimit:4;stroke-dasharray:none"
       d="m 32.85482,118.22511 c 0.0018,-0.0314 0.008,-0.0314 0.0159,-0.0147 0.008,0.0248 0.008,0.0713 -0.0022,0.0713 -0.0076,0.009 -0.0159,-0.009 -0.0159,-0.0312 z"
       id="path47843" />
    <path
       style="opacity:0.874;fill:#000000;fill-opacity:1;stroke-width:0.00698178;stroke-linejoin:round;stroke-miterlimit:4;stroke-dasharray:none"
       d="m 48.589291,254.44107 c 0.09647,-0.005 0.254407,-0.005 0.350892,0 0.09647,0.005 0.01892,0.009 -0.174977,0.009 -0.192939,0 -0.272404,-0.005 -0.175943,-0.009 z"
       id="path48221" />
    <path
       style="opacity:0.874;fill:#000000;fill-opacity:1;stroke-width:0.000738189;stroke-linejoin:round;stroke-miterlimit:4;stroke-dasharray:none"
       d=""
       id="path50654"
       transform="scale(0.26458333)" />
    <path
       style="fill:none;stroke:#000000;stroke-width:0;stroke-linecap:butt;stroke-linejoin:miter;stroke-miterlimit:4;stroke-dasharray:none;stroke-opacity:1"
       d="m 12.447557,290.04665 c -0.411087,1.09028 0.178719,2.11979 1.183214,2.6238"
       id="path51813" />
    <path
       style="font-variation-settings:normal;fill:none;fill-opacity:1;stroke:#000000;stroke-width:0.304498;stroke-linecap:butt;stroke-linejoin:miter;stroke-miterlimit:4;stroke-dasharray:none;stroke-dashoffset:0;stroke-opacity:1;stop-color:#000000"
       d="m 118.32968,80.459887 v 27.930273 l 13.11402,13.75208 h 17.33857 l 12.92171,-13.75208 H 131.4437 v -5.82456 h 16.72193 L 160.312,89.63927 V 80.459887 L 148.07806,67.439884 h -16.8985 l -12.84988,13.675601"
       id="path61236" />
    <path
       style="font-variation-settings:normal;fill:none;fill-opacity:1;stroke:#000000;stroke-width:0.357465;stroke-linecap:butt;stroke-linejoin:miter;stroke-miterlimit:4;stroke-dasharray:none;stroke-dashoffset:0;stroke-opacity:1;stop-color:#000000"
       d="m 131.4437,80.459887 v 8.711103 h 16.37055 V 80.459887 H 131.4437"
       id="path61529" />
    <path
       style="font-variation-settings:normal;fill:none;fill-opacity:1;stroke:#000000;stroke-width:0.319929;stroke-linecap:butt;stroke-linejoin:miter;stroke-miterlimit:4;stroke-dasharray:none;stroke-dashoffset:0;stroke-opacity:1;stop-color:#000000"
       d="M 85.317662,122.07037 V 69.538568 l 0.897244,-0.954422 H 94.9328 l 1.154615,1.229685 -0.250222,3.684025 c 0,0 7.564017,-9.141843 20.256927,-4.911935"
       id="path64060" />
    <path
       style="font-variation-settings:normal;fill:none;fill-opacity:1;stroke:#000000;stroke-width:0.319929;stroke-linecap:butt;stroke-linejoin:miter;stroke-miterlimit:4;stroke-dasharray:none;stroke-dashoffset:0;stroke-opacity:1;stop-color:#000000"
       d="m 85.325173,122.07325 0.768557,0.8186 h 9.102513 l 0.897243,-0.95443 v -6.54952"
       id="path64132" />
    <path
       style="font-variation-settings:normal;fill:none;fill-opacity:1;stroke:#000000;stroke-width:0.319929;stroke-linecap:butt;stroke-linejoin:miter;stroke-miterlimit:4;stroke-dasharray:none;stroke-dashoffset:0;stroke-opacity:1;stop-color:#000000"
       d="m 96.093486,115.3879 0.0013,-23.470163 c 0,0 -3.61e-4,-17.737455 17.180204,-12.416208 0,0 2.8204,0 2.8204,0 l -10e-4,-10.915608 v 0"
       id="path64284" />
    <path
       style="font-variation-settings:normal;fill:none;fill-opacity:1;stroke:#000000;stroke-width:0.300187;stroke-linecap:butt;stroke-linejoin:miter;stroke-miterlimit:4;stroke-dasharray:none;stroke-dashoffset:0;stroke-opacity:1;stop-color:#000000"
       d="m 164.25662,79.68382 7.18581,-15.968743 12.36403,39.459263 12.46914,-39.459263 7.18581,15.968743 -13.42036,43.16299 h -12.57534 z"
       id="path64513" />
    <path
       style="font-variation-settings:normal;vector-effect:none;fill:none;fill-opacity:1;stroke:#000000;stroke-width:0.198294px;stroke-linecap:butt;stroke-linejoin:miter;stroke-miterlimit:4;stroke-dasharray:none;stroke-dashoffset:0;stroke-opacity:1;-inkscape-stroke:none;stop-color:#000000"
       d="M 50.40106,122.41498 H 36.591417 V 55.25741 H 68.325499 L 82.939793,68.850804 V 81.978775 L 68.332648,95.079181 H 50.40106 v 27.335799"
       id="path86339-1" />
    <path
       style="font-variation-settings:normal;vector-effect:none;fill:none;fill-opacity:1;stroke:#000000;stroke-width:0.198294px;stroke-linecap:butt;stroke-linejoin:miter;stroke-miterlimit:4;stroke-dasharray:none;stroke-dashoffset:0;stroke-opacity:1;-inkscape-stroke:none;stop-color:#000000"
       d="M 50.40106,68.850804 V 81.978775 H 68.704057 V 68.850804 H 50.40106"
       id="path86341-8" />
    <path
       style="fill:#008000;stroke-width:0.0111708"
       d="m 109.90129,172.25822 c -73.335849,-0.23552 -69.194112,-0.13337 -72.424385,-1.78113 -2.685022,-1.36978 -5.240279,-5.18148 -5.535938,-8.25785 -0.259155,-2.69194 1.401009,-148.492666 1.714165,-150.591978 0.502214,-3.3654258 1.816589,-5.1385206 4.868962,-6.5676043 l 1.772514,-0.8294698 50.688737,-0.075631 c 27.878875,-0.037826 63.457115,0.037826 79.062735,0.1768552 25.30876,0.2230981 28.5401,0.3034705 29.91251,0.7462489 2.23248,0.7197597 3.91969,2.1316315 4.94683,4.1400296 1.06911,2.0904864 1.02332,-3.6599397 0.38965,49.0984884 -0.27895,23.245866 -0.6507,54.834021 -0.82567,70.195831 -0.36414,31.90201 -0.46817,34.37283 -1.55329,36.74282 -1.41776,3.09669 -4.14304,5.28454 -8.19098,6.5757 -2.15301,0.68666 -2.71593,0.68951 -84.82613,0.42656 z M 95.800025,122.67076 c 0.418983,-0.46251 0.485191,-2.40383 0.5826,-16.92087 0.09748,-14.614342 0.166485,-16.589524 0.631793,-18.155688 1.691841,-5.692259 4.758112,-8.418723 9.751852,-8.671055 1.55999,-0.07562 3.09927,0.0472 4.40986,0.35091 1.10734,0.259097 2.73667,0.471945 3.62059,0.471945 h 1.6073 v -5.731626 -5.731612 l -2.10346,-0.515467 c -2.69333,-0.660177 -6.89646,-0.662054 -9.3998,-0.0038 -2.32628,0.610997 -4.983027,1.913719 -7.043257,3.453494 l -1.551671,1.159733 v -1.394472 c 0,-1.024861 -0.170265,-1.575681 -0.642197,-2.07848 -0.616656,-0.656409 -0.823781,-0.683827 -5.075141,-0.683827 -3.709695,0 -4.520627,0.07562 -4.972999,0.488984 -0.516403,0.467225 -0.540055,1.689476 -0.540055,26.915589 0,17.651092 0.101216,26.616202 0.30645,26.998002 0.282799,0.52967 0.662994,0.57128 5.126494,0.57128 4.234242,0 4.878046,-0.0661 5.29344,-0.52301 z m 95.493185,-2.80257 c 0.5675,-1.82882 3.55444,-11.4382 6.63733,-21.354282 3.08293,-9.916103 5.65171,-18.235258 5.70845,-18.486933 0.13632,-0.605287 -7.18577,-16.906472 -7.46327,-16.614979 -0.11821,0.123851 -2.91085,8.771125 -6.20586,19.215471 -3.29503,10.444421 -6.0689,18.989853 -6.16421,18.989853 -0.0957,0 -2.55685,-7.61439 -5.47021,-16.920929 -2.91334,-9.306449 -5.62267,-17.959626 -6.02074,-19.229284 -0.39818,-1.269643 -0.82854,-2.200581 -0.95734,-2.068924 -0.12863,0.131542 -1.84877,3.830588 -3.82272,8.219651 -3.53331,7.855864 -3.58383,7.998595 -3.24306,9.16238 0.46533,1.589031 12.68635,41.574476 12.85017,42.043566 0.0983,0.28082 1.69384,0.36981 6.62419,0.36981 h 6.49523 z M 50.718056,108.9324 l 0.07567,-13.521833 8.789951,-0.004 8.790045,-0.004 7.4629,-6.684401 7.462912,-6.684299 v -6.597624 -6.597604 l -7.462912,-6.958132 -7.4629,-6.95811 -16.03428,-0.0013 -16.034184,-0.0013 v 33.846974 33.847039 l 7.167341,-0.0756 7.167436,-0.0756 z m 104.952494,6.35464 6.57227,-7.01964 -15.235,-0.0756 -15.23499,-0.0756 v -2.6574 -2.6573 l 8.34959,-0.009 8.34968,-0.009 6.13131,-6.565302 6.13141,-6.565246 10e-4,-4.587686 0.001,-4.587684 -6.28066,-6.715449 -6.28068,-6.715499 -8.57125,0.0089 -8.57128,0.0089 -6.19489,6.639658 c -3.40703,3.651834 -6.29984,6.639723 -6.42838,6.639723 -0.12861,0 -0.23363,6.389308 -0.23363,14.198643 v 14.198592 l 6.42849,6.7596 6.4285,6.75949 9.03214,0.0279 9.03226,0.0279 6.57217,-7.0195 z"
       id="path988" />
    <path
       style="fill:#008000;stroke-width:0.0111708"
       d="m 74.877292,171.94082 c -19.260577,-0.1267 -32.941144,-0.33106 -34.018881,-0.5098 -0.991477,-0.16443 -2.32155,-0.56746 -2.955613,-0.89474 -1.596503,-0.82568 -3.761905,-3.13765 -4.754521,-5.0771 l -0.832302,-1.62564 -0.09647,-9.75353 C 32.089933,141.02706 33.055589,49.027938 33.609164,21.668504 33.822924,11.131205 33.855069,10.676054 34.514289,9.1788765 35.305924,7.3813904 36.678463,6.0684522 38.798937,5.0811453 l 1.497198,-0.697086 65.614655,0.018641 c 69.0979,0.018641 92.34549,0.2345913 94.13626,0.8805198 3.19774,1.154353 5.19914,3.6877838 5.48563,6.9437689 0.16936,1.924227 -1.1132,119.329461 -1.50128,137.422031 -0.23364,10.91537 -0.50978,13.91261 -1.44764,15.76426 -1.4393,2.84043 -3.35595,4.48026 -6.89313,5.8977 l -1.99811,0.80112 -43.29978,0.0187 c -23.81489,0.009 -57.797078,-0.0757 -75.51591,-0.18928 z m 20.739722,-48.97669 c 0.19011,-0.12089 0.43034,-0.55705 0.53342,-0.96841 0.103145,-0.41139 0.296019,-8.12436 0.4294,-17.1396 0.229825,-15.59729 0.271443,-16.475099 0.864447,-18.12068 1.19568,-3.317746 2.804189,-5.366183 5.215799,-6.642155 1.3486,-0.714076 1.76184,-0.780297 4.72897,-0.762293 1.78813,0.0089 4.55081,0.126553 6.13928,0.258158 l 2.88807,0.2383 -0.0755,-5.858834 -0.0756,-5.858819 -1.47781,-0.408579 c -2.27199,-0.628 -8.18238,-0.605325 -10.32924,0.03782 -2.14716,0.645979 -4.549671,1.848733 -6.517779,3.26386 l -1.477809,1.062583 -0.158899,-1.512895 c -0.235508,-2.240015 -0.471956,-2.336201 -5.73484,-2.330903 -2.44791,0.0013 -4.650293,0.130629 -4.894122,0.284536 -0.38777,0.244821 -0.453026,3.63689 -0.522076,27.07741 -0.05672,19.701051 0.0089,26.904361 0.258195,27.202421 0.260087,0.31304 1.420965,0.40479 5.103049,0.401 2.621648,-0.001 4.92239,-0.10302 5.11268,-0.224 z m 97.086396,-7.08664 c 1.24393,-4.02297 4.22668,-13.63215 6.62844,-21.353616 2.40183,-7.721558 4.35805,-14.305168 4.34714,-14.630319 -0.0378,-1.102721 -6.75268,-16.1058 -7.38421,-16.49613 -0.15986,-0.09827 -1.73542,4.374888 -3.60291,10.229272 -6.32982,19.84424 -8.71369,27.103953 -8.89985,27.103953 -0.20634,0 -2.34624,-6.596064 -7.69745,-23.726031 -3.80723,-12.187477 -4.3572,-13.810269 -4.68065,-13.810269 -0.23266,0 -5.96232,12.483111 -6.92541,15.089057 l -0.60627,1.64095 6.444,21.117253 c 3.54419,11.61451 6.56554,21.34992 6.71413,21.63448 0.24483,0.46907 0.88242,0.51731 6.83584,0.51639 l 6.56589,-5.8e-4 2.26159,-7.31441 z M 50.788993,109.00637 V 95.410567 l 8.940708,-0.009 8.940806,-0.009 7.315076,-6.557296 7.315166,-6.557194 v -6.835942 -6.83616 l -7.315166,-6.82748 -7.315076,-6.827621 -16.182011,-0.0089 -16.182015,-0.0089 v 33.841739 33.841837 h 7.241305 7.241207 z m 104.929907,6.486 c 3.49194,-3.74774 6.3933,-6.93981 6.44749,-7.0935 0.0569,-0.17318 -5.70326,-0.27894 -15.1475,-0.27894 h -15.24606 v -2.66004 -2.66007 l 8.49742,-0.0187 8.49742,-0.0187 5.97686,-6.413236 5.97697,-6.413352 -0.001,-4.876722 -10e-4,-4.876812 -6.1229,-6.562325 -6.12281,-6.562301 -8.78985,-0.0089 -8.78985,-0.0089 -2.16625,2.290621 c -1.19143,1.259792 -4.05018,4.285583 -6.35292,6.723963 l -4.18667,4.433405 -0.005,14.245186 -0.005,14.245213 6.28067,6.64264 6.28065,6.64247 9.31582,0.0187 9.31581,0.0187 6.34892,-6.81418 z"
       id="path1064" />
    <path
       style="fill:#008a00;fill-opacity:0.927916;stroke-width:0.0111708"
       d="m 74.729468,171.936 c -19.172054,-0.12386 -32.793417,-0.32725 -33.871057,-0.50507 -0.991477,-0.16443 -2.322498,-0.56372 -2.957694,-0.88808 -1.533516,-0.78219 -3.961847,-3.39608 -4.860732,-5.23179 -0.716914,-1.46454 -0.724481,-1.56692 -0.820006,-11.37917 -0.09459,-9.64637 0.223224,-45.46632 0.855001,-96.648562 0.431282,-34.913226 0.713129,-46.294378 1.181394,-47.6666415 0.558964,-1.6401034 2.066375,-3.2341491 4.064181,-4.2990153 l 1.763251,-0.9401157 65.721054,0.018641 c 72.69221,0.018631 92.43742,0.2240306 94.4691,0.9719241 1.79133,0.6592104 3.13775,1.7757252 4.26468,3.5358667 l 0.97681,1.5257347 -0.0569,14.337996 c -0.066,16.001249 -0.82282,83.497002 -1.27635,113.870772 -0.31777,21.26974 -0.50506,24.54335 -1.5319,26.74402 -1.5441,3.30894 -5.74052,6.13168 -9.81945,6.60505 -2.41726,0.28078 -71.21745,0.2507 -118.0986,-0.0472 z m 20.804875,-48.91907 c 0.252512,-0.0974 0.535325,-0.59586 0.627061,-1.10838 0.09453,-0.51263 0.279018,-8.24717 0.415214,-17.18786 0.230765,-15.192771 0.285616,-16.363886 0.841748,-17.907249 1.25394,-3.479665 2.770334,-5.429908 5.222534,-6.716747 1.36175,-0.715043 1.78953,-0.784068 4.74768,-0.774601 1.78823,0.0051 4.55089,0.123851 6.13937,0.260949 l 2.88807,0.25071 -0.0756,-5.860158 -0.0756,-5.86003 -0.88622,-0.240164 c -0.48802,-0.132467 -1.97418,-0.377352 -3.30347,-0.543825 -4.92854,-0.618572 -9.62634,0.547606 -13.733076,3.410911 l -1.879393,1.310233 -0.158896,-1.504292 c -0.23551,-2.230379 -0.475727,-2.327699 -5.734842,-2.3224 -2.447896,0.0013 -4.650279,0.130628 -4.89411,0.284535 -0.387782,0.244822 -0.453989,3.621907 -0.53059,26.886229 -0.05672,18.642309 0.0089,26.784659 0.231716,27.202509 0.299839,0.55993 0.608154,0.5968 5.013573,0.5968 2.581935,0 4.901222,-0.0756 5.15394,-0.17595 z m 97.989527,-9.80339 c 1.69517,-5.48391 4.65448,-15.063586 6.57623,-21.288331 1.9218,-6.224688 3.49416,-11.638881 3.49416,-12.031563 0,-1.169484 -6.77992,-16.403803 -7.3004,-16.403803 -0.33292,0 -0.84837,1.518284 -6.47067,19.063738 -6.1491,19.188209 -5.81332,18.176969 -6.03531,18.176969 -0.20323,0 -2.06441,-5.72876 -7.93478,-24.424897 -2.09985,-6.687515 -3.95796,-12.406665 -4.12924,-12.709129 -0.26389,-0.466272 -0.5902,0.03781 -2.13628,3.286918 -2.6697,5.61301 -5.31489,11.66158 -5.484,12.539957 -0.0948,0.492729 2.12282,8.193245 6.22145,21.602701 3.50285,11.46042 6.49986,21.13639 6.66019,21.50214 0.28952,0.6611 0.32913,0.66489 6.87396,0.66015 l 6.58255,-0.004 z M 50.788993,109.00628 V 95.410475 l 8.940708,-0.009 8.940713,-0.009 7.312802,-6.56487 7.312799,-6.564859 0.0025,-6.822606 0.0025,-6.822708 -7.31516,-6.832296 -7.315161,-6.83216 -16.181918,-0.01864 -16.182013,-0.01864 v 33.842005 33.841709 h 7.241209 7.241301 z m 104.924317,6.47018 c 3.49501,-3.75151 6.39889,-6.94149 6.45308,-7.08886 0.0569,-0.15786 -6.15354,-0.26776 -15.1475,-0.26776 h -15.24606 v -2.66004 -2.66007 l 8.49742,-0.0187 8.49733,-0.0187 5.97591,-6.409737 5.97583,-6.409688 5.6e-4,-4.876772 5.8e-4,-4.876736 -6.12423,-6.556448 -6.12423,-6.55646 -8.86682,0.0089 -8.86686,0.0089 -6.26854,6.695937 -6.26865,6.695978 -0.009,14.236686 -0.009,14.23658 6.28065,6.64726 6.28067,6.64725 9.31022,0.0187 9.31014,0.0187 6.35463,-6.82092 z"
       id="path2110" />
    <path
       style="fill:#008a00;fill-opacity:0.927916;stroke-width:0.00279271"
       d="m 50.567299,75.423124 v -6.428367 h 9.01467 9.014577 v 6.428367 6.428495 h -9.014577 -9.01467 z"
       id="path2519" />
    <path
       style="fill:#008a00;fill-opacity:0.927916;stroke-width:0;stroke-miterlimit:4;stroke-dasharray:none"
       d="m 131.77283,84.844215 v -3.990128 h 7.83235 7.83241 v 3.990128 3.990025 h -7.83241 -7.83235 z"
       id="path2558" />
    <path
       style="fill:#008a00;fill-opacity:0.927916;stroke-width:0.0315957"
       d="M 3.7438389,199.45686 C 3.0553009,198.6274 2.8585763,176.47749 3.0146295,117.32238 L 3.2274277,36.323618 9.2882831,36.077571 15.349136,35.831506 v 75.562674 c 0,72.14227 0.0662,75.62536 1.528692,76.94625 1.398741,1.26576 7.928518,1.38349 76.742411,1.38349 57.384881,0 75.451491,0.23738 76.216831,1.0032 1.29942,1.29936 1.29942,7.56194 0,8.8613 -1.57238,1.57234 -164.786525,1.44219 -166.0934266,-0.13247 z"
       id="path2597" />
    <path
       style="fill:#006c00;fill-opacity:0.923695;stroke-width:0.00139634"
       d="m 96.274902,118.31651 c -0.0025,-0.2231 0.0089,-1.354 0.02829,-2.51232 0.01891,-1.15821 0.05672,-4.49989 0.07562,-7.42593 0.111632,-15.316017 0.169288,-17.994214 0.428449,-19.736767 0.157918,-1.064397 0.771771,-2.830009 1.441579,-4.148292 0.392503,-0.772685 0.611923,-1.124327 0.710297,-1.138642 0.04733,-0.0051 0.08514,-0.0013 0.08514,0.0089 0,0.0089 -0.06622,0.132455 -0.153213,0.270555 -0.69706,1.137073 -1.522925,3.078881 -1.725704,4.057687 -0.241193,1.164375 -0.344273,3.123403 -0.447366,8.495124 -0.06623,3.279168 -0.07562,4.056415 -0.131466,7.647625 -0.05672,3.79216 -0.115362,7.08525 -0.146626,8.49741 -0.115363,5.22389 -0.152261,6.58775 -0.159824,5.98508 z"
       id="path2932" />
    <path
       style="fill:#006c00;fill-opacity:0.923695;stroke-width:0.00139634"
       d="m 96.279158,102.90796 c 0.0089,-10.708107 0.01891,-11.903489 0.07562,-12.337238 0.307375,-2.442032 0.788799,-4.201973 1.621956,-5.929749 0.650698,-1.348442 1.29593,-2.275804 2.224796,-3.195926 1.63679,-1.621493 3.63186,-2.502789 6.15155,-2.717475 0.65451,-0.05685 2.11406,-0.02791 2.7939,0.05685 0.92688,0.112533 1.57883,0.23367 2.5492,0.47386 0.96357,0.238301 0.85026,0.276163 -0.18632,0.06609 -1.67353,-0.345201 -2.34643,-0.418032 -3.8408,-0.418032 -1.20438,-1.8e-4 -1.81631,0.0472 -2.69144,0.220307 -3.1113,0.605299 -5.351048,2.421147 -6.874721,5.574531 -0.626122,1.295634 -1.182729,2.944431 -1.328855,3.935944 -0.260087,1.767889 -0.317781,4.440699 -0.432229,20.281648 -0.0189,3.20039 -0.04733,5.8261 -0.05672,5.83501 -0.0076,0.009 -0.0089,-5.31956 -0.0025,-11.84101 z"
       id="path2971" />
    <path
       style="fill:#006c00;fill-opacity:0.923695;stroke-width:0.00139634"
       d="m 68.578669,95.24922 c 0.257265,-0.249784 14.684538,-13.157475 14.706196,-13.157475 0.0089,0 0.0189,0.03781 0.0089,0.08501 -0.0089,0.06609 -0.605313,0.620425 -2.062121,1.927815 -1.127776,1.012284 -2.852618,2.560636 -3.833032,3.440914 -0.980505,0.880498 -2.584765,2.32051 -3.56528,3.200649 -0.980409,0.880548 -2.544944,2.285052 -3.476839,3.121886 -1.468159,1.318532 -1.709623,1.521517 -1.809779,1.521517 h -0.115402 z"
       id="path3232" />
    <path
       style="fill:#006c00;fill-opacity:0.923695;stroke-width:0.00139634"
       d="m 76.724814,62.679772 c -3.605376,-3.361474 -6.570918,-6.102097 -6.590121,-6.090279 -0.01893,0.0089 -0.02824,0.0051 -0.0092,-0.0089 0.0092,-0.01864 -0.353725,-0.383989 -0.812438,-0.809609 -0.764204,-0.708392 -0.82568,-0.774601 -0.732045,-0.785931 0.07563,-0.0089 0.139038,0.01864 0.254407,0.133368 0.08513,0.07562 0.784065,0.73396 1.556121,1.453708 0.771769,0.719763 2.289205,2.135313 3.371183,3.145809 4.283897,4.000918 5.959573,5.566312 7.28538,6.80604 0.760429,0.711249 1.579669,1.475805 1.819526,1.698568 0.312109,0.2895 0.43601,0.429375 0.43601,0.48896 0,0.04707 -0.0051,0.08501 -0.0089,0.08501 -0.0051,0 -2.960161,-2.750308 -6.565542,-6.111768 z"
       id="path3271" />
    <path
       style="fill:#004400;fill-opacity:0.923695;stroke-width:0.00279271"
       d="m 3.7947244,35.707048 0.5504541,-0.55421 h 5.1403063 5.1403142 l 0.326298,0.332904 0.3263,0.331988 -0.292261,8.24e-4 c -0.160798,4.73e-4 -2.686538,0.100307 -5.6126442,0.221251 C 6.447482,36.16075 3.8714168,36.26011 3.6488686,36.26104 l -0.4047989,5.49e-4 z"
       id="path3421" />
    <path
       style="fill:#004400;fill-opacity:0.923695;stroke-width:0.00139634"
       d="m 2.9962834,116.21058 c 9.26e-5,-0.26376 0.00579,-0.36694 0.00926,-0.22898 0.00707,0.13812 0.00707,0.35373 -9.78e-5,0.48044 -0.00707,0.12566 -0.00926,0.009 -0.00926,-0.25071 z"
       id="path3945" />
    <path
       style="fill:#004400;fill-opacity:0.923695;stroke-width:0.00139634"
       d="m 3.5080518,199.90033 -0.7481239,-0.74811 v -16.154 -16.15392 h 0.104958 0.1049581 l 0.028243,5.49553 c 0.075674,16.55184 0.2827975,25.2716 0.6384112,26.842 0.037824,0.17594 0.085126,0.26685 0.1371553,0.30346 0.7188036,0.47104 16.6357115,0.86257 43.7208665,1.07546 1.772896,0.009 3.223464,0.0378 3.223464,0.0569 0,0.0187 -10.387495,0.0279 -23.229617,0.0279 H 4.2587698 Z"
       id="path4058" />
    <path
       style="fill:#004400;fill-opacity:0.923695;stroke-width:0.00139634"
       d="m 2.760211,150.58813 v -16.2559 h 0.094566 0.094579 v 14.28853 c 0,7.85876 0.00926,15.17389 0.028229,16.25588 l 0.028242,1.96737 H 2.8885373 2.7712455 Z"
       id="path4097" />
    <path
       style="fill:#004400;fill-opacity:0.923695;stroke-width:0.00139634"
       d="M 2.760211,116.59856 V 98.864869 h 0.1532146 0.1532147 l -0.028229,2.761661 c -0.00926,1.51893 -0.028243,8.89643 -0.047277,16.39442 -0.00926,7.49798 -0.028243,14.23543 -0.037824,14.97204 l -0.018933,1.33924 h -0.085127 -0.085126 z"
       id="path4136" />
    <path
       style="fill:#004400;fill-opacity:0.923695;stroke-width:0.00139634"
       d="m 2.760211,82.609012 v -16.25589 h 0.1901151 0.1901154 l -0.028229,6.696337 c -0.00926,3.682932 -0.037824,10.998111 -0.047277,16.255889 l -0.028229,9.559521 H 2.8948364 2.7529675 Z"
       id="path4212" />
    <path
       style="fill:#004400;fill-opacity:0.923695;stroke-width:0.00139634"
       d="M 2.760211,51.575057 V 36.797001 h 0.2269772 0.2269785 l -0.018932,8.635962 c -0.00926,4.749693 -0.037824,11.399897 -0.04729,14.778051 l -0.018932,6.142108 H 2.949327 2.7696379 Z"
       id="path4251" />
    <path
       style="fill:#004400;fill-opacity:0.923695;stroke-width:0.00139634"
       d="m 2.760211,36.749716 c 0,-0.02794 0.1040318,-0.147624 0.2307622,-0.270582 0.2090118,-0.202308 0.2411899,-0.221236 0.3414331,-0.197648 l 0.1106426,0.02794 -0.1201084,0.0036 -0.120108,0.0036 v 0.240163 0.240162 H 2.9815023 c -0.1551143,0 -0.2213313,-0.009 -0.2213313,-0.04713 z"
       id="path4290" />
    <path
       style="fill:#004400;fill-opacity:0.923695;stroke-width:0.00139634"
       d="m 15.912174,184.75313 c -3.78e-4,-0.0661 -0.01893,-0.31116 -0.03783,-0.54477 -0.04729,-0.60154 -0.140939,-2.41889 -0.18444,-3.6576 -0.176857,-5.01458 -0.253477,-12.68711 -0.279012,-28.00444 -0.0092,-6.06552 -0.02822,-11.31497 -0.03782,-11.66548 l -0.01893,-0.63744 h 0.292265 0.292262 v 22.3148 c 0,12.27323 -0.0083,22.31495 -0.01893,22.31495 -0.0092,0 -0.01893,-0.0568 -0.01893,-0.11999 z"
       id="path4477" />
    <path
       style="fill:#004400;fill-opacity:0.923695;stroke-width:0.00139634"
       d="m 15.358599,121.03198 v -19.2115 h 0.295087 0.295088 v 19.2115 19.2115 h -0.295088 -0.295087 z"
       id="path4516" />
    <path
       style="fill:#004400;fill-opacity:0.923695;stroke-width:0.00139634"
       d="m 15.358599,84.086822 v -17.7337 h 0.295087 0.295088 v 17.7337 17.733658 h -0.295088 -0.295087 z"
       id="path4555" />
    <path
       style="fill:#004400;fill-opacity:0.923695;stroke-width:0.00139634"
       d="M 15.358599,51.08638 V 35.819705 l 0.295087,0.294168 0.295088,0.294154 v 14.972882 14.972934 h -0.295088 -0.295087 z"
       id="path4594" />
    <path
       style="fill:#004400;fill-opacity:0.923695;stroke-width:0.00139634"
       d="m 17.731131,188.73199 c -0.781228,-0.23086 -1.143467,-0.5788 -1.391833,-1.33657 -0.05675,-0.16717 -0.09458,-0.33008 -0.08514,-0.36131 0.0076,-0.0378 0.349945,0.28081 0.935393,0.86729 0.507892,0.50885 0.907021,0.92309 0.886212,0.92216 -0.01893,-10e-4 -0.174042,-0.0472 -0.342378,-0.0948 z"
       id="path4633" />
    <path
       style="fill:#004400;fill-opacity:0.923695;stroke-width:0.00139634"
       d="m 128.35539,200.60923 c 24.84334,-0.17959 39.18169,-0.50126 41.24828,-0.92497 0.24779,-0.0472 0.38397,-0.18524 0.56937,-0.56468 0.25439,-0.52018 0.44168,-1.26386 0.56463,-2.24237 0.0851,-0.63937 0.0948,-2.652 0.019,-3.28494 -0.18442,-1.59537 -0.59016,-2.75908 -1.02448,-2.94048 -0.92403,-0.38591 -6.5381,-0.61099 -18.82115,-0.75382 -8.78769,-0.1021 -27.77569,-0.18431 -42.84724,-0.18431 l -8.765173,-4e-4 v -0.20323 -0.20325 h 34.774863 34.77486 l 1.11737,1.1178 1.11736,1.11775 v 3.89792 3.89792 l -0.65639,0.65544 -0.65636,0.65543 -22.59158,-0.005 c -13.68777,-0.004 -21.10642,-0.0187 -18.82326,-0.0378 z"
       id="path4709" />
    <path
       style="fill:#004400;fill-opacity:0.923695;stroke-width:0.00139634"
       d="m 33.095125,30.457776 c 0.0018,-0.04713 0.0092,-0.04713 0.01893,-0.01864 0.0092,0.02796 0.0092,0.05682 -0.0029,0.06614 -0.0092,0.009 -0.01892,-0.009 -0.01892,-0.04713 z"
       id="path5451" />
    <path
       style="fill:#004400;fill-opacity:0.923695;stroke-width:0.00139634"
       d="m 33.208905,36.242863 c 0,-0.04713 0.0083,-0.07563 0.01892,-0.04713 0.0092,0.02794 0.0092,0.06612 0,0.09464 -0.0092,0.02796 -0.01892,0.0036 -0.01892,-0.04713 z"
       id="path5601" />
    <path
       style="fill:#004400;fill-opacity:0.923695;stroke-width:0.00139634"
       d="m 40.943061,4.1692922 c 0.08512,-0.018635 0.397235,-0.066143 0.701781,-0.1145517 l 0.554237,-0.075631 9.411717,-0.00909 9.411812,-0.00909 v 0.1057809 0.105781 l -5.492525,0.027963 c -7.627662,0.037819 -14.771075,0.027956 -14.587211,-0.018642 z"
       id="path5714" />
    <path
       style="fill:#004400;fill-opacity:0.923695;stroke-width:0.00139634"
       d="m 45.274907,4.3683655 c 2.890542,-0.00555 7.62047,-0.00555 10.510918,0 2.890543,0.00555 0.525862,0.00907 -5.255413,0.00907 -5.780991,0 -8.145957,-0.00363 -5.255505,-0.00907 z"
       id="path5753" />
    <path
       style="fill:#004400;fill-opacity:0.923695;stroke-width:0.00139634"
       d="m 144.05713,4.4309784 c -5.12065,-0.00907 -21.20979,-0.02796 -35.75376,-0.02796 L 81.859926,4.3975714 V 4.2868384 4.1761187 l 24.208344,3.649e-4 c 22.62079,4.032e-4 42.34633,0.037826 50.89199,0.094641 l 3.66675,0.027963 v 0.08496 0.08496 l -3.62985,-0.00555 c -1.99642,-0.00363 -7.81949,-0.01864 -12.94003,-0.02794 z"
       id="path5940" />
    <path
       style="fill:#004400;fill-opacity:0.923695;stroke-width:0.00139634"
       d="m 130.86033,4.1468562 c 0.19956,-0.00556 0.51547,-0.00556 0.70178,0 0.18726,0.00556 0.0283,0.00909 -0.36224,0.00909 -0.38589,0 -0.53909,-0.00556 -0.33954,-0.00909 z"
       id="path5979" />
    <path
       style="fill:#004400;fill-opacity:0.923695;stroke-width:0.00139634"
       d="m 147.2159,4.4309784 c -5.90291,-0.00907 -23.02286,-0.02796 -38.04429,-0.02796 L 81.859926,4.3975714 V 4.2868384 4.1761187 l 9.467146,-0.0091 9.467218,-0.00909 -9.467218,-0.00909 c -9.439533,-0.0091 -9.467146,-0.0091 -9.467146,-0.08496 0,-0.075631 0.02829,-0.075631 12.58902,-0.075631 12.989394,6.942e-4 42.966034,0.047134 57.763804,0.094641 8.36555,0.027963 8.41426,0.027963 8.41426,0.099209 0,0.075631 -0.019,0.075631 -3.9993,0.047134 -7.44417,-0.047134 -27.73992,-0.094641 -37.34231,-0.08496 -7.47123,0.00556 -8.72195,0.0091 -5.74496,0.027963 2.09285,0.00909 8.70974,0.027963 14.7041,0.027963 12.18451,0.00556 29.83411,0.066143 31.37576,0.099209 0.95328,0.018636 1.00671,0.027943 1.00671,0.094641 0,0.066138 -0.0473,0.066138 -1.33924,0.066138 -0.73678,-0.00363 -6.16898,-0.018641 -12.07187,-0.02796 z"
       id="path6018" />
    <path
       style="fill:#004400;fill-opacity:0.923695;stroke-width:0.00139634"
       d="m 131.89295,4.1469663 c 0.13722,-0.00556 0.36131,-0.00556 0.49843,0 0.13721,0.00556 0.0283,0.0091 -0.24969,0.0091 -0.27426,0 -0.38682,-0.00556 -0.24968,-0.0091 z"
       id="path6057" />
    <path
       style="fill:#004400;fill-opacity:0.923695;stroke-width:0.00139634"
       d="m 56.598643,4.3683655 c -8.192964,-0.00907 -9.688931,-0.018641 -9.688931,-0.056815 0,-0.066133 5.332214,-0.094641 22.619769,-0.109807 l 12.330445,-0.00909 V 4.2975208 4.40239 L 74.073651,4.39332 C 69.791275,4.38777 61.927544,4.38425 56.598643,4.374691 Z"
       id="path6096" />
    <path
       style="fill:#004400;fill-opacity:0.923695;stroke-width:0.00139634"
       d="M 61.022797,4.0635446 V 3.9528251 h 5.181545 c 5.554947,9.09e-5 15.826866,0.047134 15.720183,0.066143 -0.08514,0.018636 -0.08514,0.075631 0,0.094641 0.164569,0.037826 -5.925606,0.066143 -13.060129,0.066143 h -7.841599 z"
       id="path6135" />
    <path
       style="fill:#004400;fill-opacity:0.923695;stroke-width:0.00139634"
       d="m 205.49323,43.83503 c 9e-5,-0.304702 0.005,-0.424654 0.009,-0.265616 0.005,0.158948 0.005,0.407628 -9e-5,0.554242 -0.005,0.146537 -0.009,0.01865 -0.009,-0.287622 z"
       id="path6174" />
    <path
       style="fill:#004400;fill-opacity:0.923695;stroke-width:0.00139634"
       d="m 205.77632,16.033836 c -0.009,-2.443963 -0.0948,-4.665649 -0.19019,-5.351041 -0.0187,-0.149633 -0.0279,-0.278951 -0.0187,-0.28858 0.0278,-0.02796 0.28576,1.083412 0.35846,1.579578 0.19674,1.352971 0.1958,2.795227 -0.004,4.214957 -0.12,0.854044 -0.13812,0.835135 -0.14269,-0.155114 z"
       id="path6250" />
    <path
       style="fill:#004400;fill-opacity:0.923695;stroke-width:0.00139634"
       d="m 205.74001,14.054177 c 10e-4,-0.04713 0.009,-0.04713 0.0187,-0.01864 0.009,0.02796 0.009,0.05682 -0.004,0.06613 -0.009,0.009 -0.0187,-0.009 -0.0187,-0.04713 z"
       id="path6289" />
    <path
       style="fill:#004400;fill-opacity:0.923695;stroke-width:0.00139634"
       d="m 205.17848,9.6127235 c -0.1146,-0.1768574 -0.3103,-0.5041335 -0.43509,-0.7273228 -0.67149,-1.1971052 -1.61389,-2.1827144 -2.77902,-2.9053772 -0.77745,-0.4823897 -1.83449,-0.920273 -2.5252,-1.0475806 -1.20236,-0.2212352 -4.25815,-0.3385864 -11.066,-0.4246567 -1.61541,-0.018641 -3.4899,-0.047135 -4.16548,-0.056818 l -1.22848,-0.018641 v -0.10669 -0.1066944 l 0.56369,9.08e-5 c 3.33053,4.75e-4 12.42548,0.1284424 13.25412,0.1864855 4.12234,0.2885801 6.80782,1.7693851 8.18794,4.5153367 0.2175,0.4331688 0.4294,0.9420161 0.41237,0.9904138 -0.005,0.018641 -0.10392,-0.114552 -0.21844,-0.2913568 z"
       id="path6402" />
    <path
       style="fill:#004400;fill-opacity:0.923695;stroke-width:0.00139634"
       d="m 205.22209,9.9643723 c -0.56842,-0.9022969 -1.08965,-1.6694307 -1.3635,-2.0080149 -0.3414,-0.4218436 -0.94483,-1.0293299 -1.31727,-1.3260206 -0.81908,-0.652615 -1.95185,-1.228202 -2.68098,-1.3635487 -1.52715,-0.2836094 -6.19438,-0.4672425 -15.1543,-0.5977487 l -1.72722,-0.02794 v -0.094643 -0.094643 l 1.50554,0.01864 c 0.8285,0.00907 2.71082,0.037825 4.18398,0.056828 6.73287,0.094643 9.62758,0.205102 10.78778,0.4255877 0.47574,0.094643 1.21099,0.3612958 1.83785,0.6772053 1.51565,0.7641925 2.72316,1.9520166 3.55444,3.4951796 0.085,0.1626056 0.21749,0.3783226 0.2895,0.4795401 0.14762,0.2072575 0.35373,0.6279859 0.33479,0.6828509 -0.005,0.01864 -0.11999,-0.133373 -0.2507,-0.3414531 z"
       id="path6441" />
    <path
       style="fill:#004400;fill-opacity:0.923695;stroke-width:0.00139634"
       d="m 205.79978,16.144664 c -0.009,-0.295085 -0.0278,-0.918374 -0.0278,-1.385474 -3.7e-4,-0.958769 -0.0472,-2.509899 -0.11369,-3.411046 -0.0187,-0.331971 -0.0379,-0.610025 -0.0278,-0.61949 0.0278,-0.02796 0.24604,1.047491 0.3047,1.497215 0.13721,1.051328 0.13721,2.559319 2.7e-4,3.666756 -0.10301,0.829452 -0.11265,0.847431 -0.14085,0.252569 z"
       id="path6480" />
    <path
       style="fill:#004400;fill-opacity:0.923695;stroke-width:0.00139634"
       d="m 205.81337,16.440221 c -0.001,-0.04713 -0.0187,-0.914592 -0.0378,-1.919092 -0.0278,-1.704891 -0.0756,-2.945044 -0.13246,-3.511843 -0.009,-0.13246 -0.009,-0.231794 -0.004,-0.221235 0.0278,0.02794 0.20325,0.876755 0.26375,1.285242 0.14761,0.982795 0.16351,2.574833 0.0378,3.702311 -0.066,0.556129 -0.11729,0.847431 -0.12564,0.664929 z"
       id="path6556" />
    <path
       style="fill:#004400;fill-opacity:0.923695;stroke-width:0.00139634"
       d="m 204.78236,101.37711 c 0,-0.0472 0.009,-0.0756 0.0187,-0.0472 0.009,0.0278 0.009,0.066 0,0.0947 -0.009,0.0278 -0.0187,0.004 -0.0187,-0.0472 z"
       id="path6706" />
    <path
       style="fill:#004400;fill-opacity:0.923695;stroke-width:0.00139634"
       d="m 184.6876,172.54403 c -1.39213,-0.009 -1.70878,-0.0187 -1.70878,-0.0569 0,-0.0661 1.0399,-0.0974 2.84478,-0.0983 2.35437,-0.001 5.7633,-0.0948 6.87186,-0.18711 1.17583,-0.0992 1.3629,-0.13337 2.19823,-0.40291 2.84751,-0.91932 5.14306,-2.40056 6.67164,-4.30393 0.66302,-0.8257 1.30655,-1.95546 1.62085,-2.8459 0.72445,-2.05221 0.91739,-5.99107 1.14579,-23.36678 0.085,-6.11523 0.0757,-6.05896 0.13905,-6.05896 0.0471,0 0.0569,0.14871 0.0278,1.17296 -0.009,0.64503 -0.0278,1.90459 -0.0472,2.79861 -0.15695,12.63795 -0.30471,21.01476 -0.38871,22.03782 -0.35754,4.35097 -2.43646,7.52487 -6.22039,9.49629 -1.41741,0.73869 -3.22048,1.33169 -4.93831,1.62478 -1.17808,0.20136 -1.06365,0.19486 -3.87615,0.20043 -1.45296,0.004 -3.41057,0 -4.35029,-0.005 z"
       id="path6745" />
    <path
       style="fill:#004400;fill-opacity:0.923695;stroke-width:0.00139634"
       d="m 182.97882,172.25643 v -0.12973 l 1.08068,-2.7e-4 c 1.97671,-6.8e-4 7.53572,-0.0756 8.24801,-0.10983 0.38587,-0.0187 0.90041,-0.0661 1.14233,-0.11163 2.16693,-0.38022 4.37678,-1.39928 6.21699,-2.86701 0.45021,-0.35937 1.5025,-1.40458 1.83601,-1.82441 1.03108,-1.29765 1.52992,-2.43752 1.81042,-4.13786 0.34902,-2.11415 0.55425,-6.31281 0.7046,-14.39011 0.009,-0.58924 0.0279,-1.39563 0.0378,-1.79183 0.009,-0.39628 0.0279,-1.46861 0.0379,-2.38301 0.009,-0.91459 0.0278,-1.85368 0.0378,-2.08738 0.009,-0.23365 0.0279,-1.38917 0.0379,-2.56773 0.009,-1.17851 0.0278,-2.16771 0.0378,-2.19824 0.005,-0.0278 0.009,-0.59206 0.009,-1.24683 0.004,-1.19088 0.004,-1.19152 0.085,-1.19152 h 0.0756 l -0.0278,1.74565 c -0.009,0.96008 -0.0378,2.97595 -0.0569,4.47956 -0.1967,14.79144 -0.37358,19.55756 -0.81431,21.93188 -0.15329,0.82285 -0.35753,1.42251 -0.75476,2.21499 -1.08985,2.17427 -2.83769,3.86596 -5.28227,5.1127 -0.95252,0.48613 -2.32386,1.0191 -3.19756,1.24362 -0.96369,0.24794 -2.77317,0.3386 -7.99859,0.40102 -1.64598,0.0187 -3.05491,0.0379 -3.13114,0.0379 -0.1343,3.7e-4 -0.13906,-0.004 -0.13906,-0.12849 z"
       id="path6784" />
    <path
       style="fill:#004400;fill-opacity:0.923695;stroke-width:0.00139634"
       d="m 204.41427,133.24231 c 7.4e-4,-0.0569 0.009,-0.085 0.0187,-0.0472 0.009,0.0378 0.009,0.085 -0.001,0.11074 -0.009,0.0278 -0.0187,-0.004 -0.0187,-0.0661 z"
       id="path6860" />
    <path
       style="fill:#004400;fill-opacity:0.923695;stroke-width:0.00139634"
       d="m 204.42355,133.76923 c 0.0378,-1.99544 0.31587,-26.53528 0.31587,-27.41374 0,-0.59111 0.009,-0.69233 0.0569,-0.69233 0.0472,0 0.0569,0.085 0.0569,0.53532 0,0.63557 -0.1542,14.13947 -0.25909,22.62915 -0.0378,3.30195 -0.0756,6.08902 -0.0756,6.19354 0,0.14087 -0.0187,0.19578 -0.0569,0.21284 -0.0569,0.0187 -0.0569,-0.10584 -0.0378,-1.46464 z"
       id="path6899" />
    <path
       style="fill:#004400;fill-opacity:0.923695;stroke-width:0.00139634"
       d="m 204.23722,135.06192 c 0.009,-0.085 0.0278,-1.19612 0.0378,-2.46607 0.009,-1.27002 0.0278,-2.60008 0.0378,-2.95559 0.009,-0.35565 0.0278,-1.38646 0.0378,-2.29065 0.0278,-2.6341 0.0849,-7.10444 0.10853,-8.62669 0.009,-0.77177 0.0279,-2.08559 0.0378,-2.91873 0.009,-0.83325 0.0279,-2.09652 0.0378,-2.8078 0.009,-0.71123 0.0278,-2.02457 0.0379,-2.91862 0.0278,-2.56066 0.066,-4.39512 0.0756,-4.41196 0.009,-0.009 0.0278,-0.004 0.0378,0.009 0.0187,0.0187 -0.0187,4.00301 -0.0756,8.86381 -0.0569,4.86076 -0.12566,10.93248 -0.1542,13.49275 -0.0278,2.56036 -0.0661,5.22459 -0.0756,5.9205 -0.0187,1.22085 -0.0279,1.26538 -0.0957,1.26538 -0.0661,0 -0.0661,-0.0186 -0.0568,-0.15694 z"
       id="path6938" />
    <path
       style="fill:#004400;fill-opacity:0.923695;stroke-width:0.00139634"
       d="m 204.64268,103.75086 c 0.009,-1.05155 0.0278,-2.45226 0.0378,-3.11263 0.009,-0.660174 0.0279,-1.998713 0.0378,-2.974036 0.009,-0.975393 0.0278,-2.380185 0.0378,-3.12189 0.009,-0.741496 0.0279,-2.104959 0.0378,-3.029468 0.009,-0.92497 0.0279,-2.42085 0.0378,-3.32514 0.0378,-3.442124 0.12783,-11.174294 0.16352,-14.685648 0.0569,-5.462369 0.0757,-6.262242 0.13429,-6.262242 0.0472,0 0.0472,0.18741 0.0278,1.154526 -0.0278,1.423151 -0.33199,27.555322 -0.38682,33.038188 -0.0187,2.19455 -0.0471,4.04414 -0.0568,4.11015 -0.009,0.0661 -0.0378,0.12 -0.0569,0.12 -0.0279,0 -0.0378,-0.54949 -0.0187,-1.9119 z"
       id="path6977" />
    <path
       style="fill:#004400;fill-opacity:0.923695;stroke-width:0.00139634"
       d="m 204.76356,104.98852 c 0.005,-0.37073 0.0379,-3.02672 0.0756,-5.901957 0.15987,-14.485434 0.37549,-31.813267 0.39724,-31.834743 0.0378,-0.03782 0.0278,0.373596 -0.0661,9.852368 -0.0472,4.744691 -0.13336,12.691573 -0.1843,17.659823 -0.10572,10.212129 -0.1173,10.898779 -0.18555,10.898779 -0.0378,0 -0.0471,-0.15146 -0.0279,-0.67436 z"
       id="path7016" />
    <path
       style="fill:#004400;fill-opacity:0.923695;stroke-width:0.00139634"
       d="m 205.22708,62.159843 c 7.8e-4,-0.05685 0.009,-0.08501 0.0187,-0.0472 0.009,0.03781 0.009,0.08501 -0.001,0.110732 -0.009,0.02791 -0.0187,-0.0038 -0.0187,-0.06609 z"
       id="path7055" />
    <path
       style="fill:#004400;fill-opacity:0.923695;stroke-width:0.00139634"
       d="m 205.22708,62.640109 c 7.8e-4,-0.05685 0.009,-0.08501 0.0187,-0.04707 0.009,0.0378 0.009,0.08501 -0.001,0.110732 -0.009,0.02791 -0.0187,-0.0038 -0.0187,-0.06609 z"
       id="path7094" />
    <path
       style="fill:#004400;fill-opacity:0.923695;stroke-width:0.00139634"
       d="m 205.09116,65.558768 c 0.009,-0.975309 0.0279,-2.504859 0.0378,-3.398925 0.0187,-1.907867 0.0475,-4.477197 0.0756,-7.185874 0.009,-1.066763 0.0278,-2.687742 0.0378,-3.602153 0.0661,-6.406825 0.16535,-17.02605 0.16535,-18.444828 l 3e-4,-1.154537 h 0.0948 0.0948 l -1.7e-4,0.637467 c -9e-5,0.350883 -0.0187,1.925818 -0.0378,3.50059 -0.0187,1.574753 -0.0948,7.709552 -0.16536,13.632793 -0.0661,5.923254 -0.14543,12.057954 -0.16534,13.63271 -0.0187,1.574859 -0.0379,3.142696 -0.0379,3.484333 -1.1e-4,0.366009 -0.009,0.61285 -0.0378,0.599628 -0.0187,-0.0089 -0.0471,0 -0.0569,0.02791 -0.009,0.02791 -0.009,-0.751889 -0.004,-1.727017 z"
       id="path7133" />
    <path
       style="fill:#004400;fill-opacity:0.923695;stroke-width:0.00139634"
       d="m 205.21983,66.682556 c -2.1e-4,-0.607217 0.13994,-12.45568 0.16077,-13.574257 0.005,-0.36601 0.005,0.581647 -0.004,2.105796 -0.0278,4.31246 -0.11074,11.990742 -0.1352,12.015602 -0.009,0.0089 -0.0187,-0.233657 -0.0187,-0.546678 z"
       id="path7209" />
    <path
       style="fill:#008a00;fill-opacity:0.927916;stroke-width:0.00139634"
       d="m 205.41691,31.486155 c 0.009,-0.157854 0.0379,-3.395296 0.0472,-7.19517 0.009,-3.799728 0.0278,-7.025074 0.0378,-7.167326 0.005,-0.141778 0.0187,-1.6801 0.0187,-3.41744 0.004,-1.781208 0.0187,-3.078198 0.0378,-2.974058 0.13996,0.857829 0.19673,3.623823 0.16846,8.146414 -0.0278,5.104572 -0.0948,11.345303 -0.11909,12.182632 l -0.0187,0.711244 h -0.0947 -0.0948 z"
       id="path7248" />
    <path
       style="fill:#004400;fill-opacity:0.923695;stroke-width:0.00139634"
       d="M 36.306481,105.73665 V 88.889683 h 0.09458 0.09457 v 16.828067 16.82809 l 1.339249,0.009 1.33925,0.009 -1.431558,0.009 -1.431654,0.009 z"
       id="path7881" />
    <path
       style="fill:#004400;fill-opacity:0.923695;stroke-width:0.00139634"
       d="M 50.530412,108.8247 V 95.20729 h 8.920185 8.920187 l 5.15894,-4.627411 c 4.19508,-3.762746 5.18051,-4.629561 5.273957,-4.639502 0.114462,-0.0089 0.113562,-0.0089 -0.08514,0.166627 -0.108804,0.09826 -2.485555,2.22737 -5.281139,4.731637 l -5.082802,4.553153 -8.779451,2.84e-4 -8.779547,2.72e-4 -0.01893,1.006802 c -0.0092,0.553311 -0.03782,4.830558 -0.06621,9.504118 -0.08512,16.11742 -0.08512,16.50701 -0.134287,16.52372 -0.03783,0.009 -0.04728,-2.72444 -0.04728,-13.60195 z"
       id="path7959" />
    <path
       style="fill:#004400;fill-opacity:0.923695;stroke-width:0.00139634"
       d="m 36.306481,74.111604 v -14.77809 h 0.09458 0.09457 v 14.77809 14.778079 h -0.09457 -0.09458 z"
       id="path8183" />
    <path
       style="fill:#004400;fill-opacity:0.923695;stroke-width:0.00139634"
       d="m 36.508505,57.246173 c 0,-1.15823 0.0046,-1.626766 0.0092,-1.041067 0.0056,0.585455 0.0056,1.533253 0,2.105822 -0.0057,0.572209 -0.0092,0.09466 -0.0092,-1.064755 z"
       id="path8370" />
    <path
       style="fill:#004400;fill-opacity:0.923695;stroke-width:0.00139634"
       d="m 36.505288,58.908679 c 9.7e-5,-0.243895 0.0061,-0.33859 0.0092,-0.211009 0.007,0.127837 0.007,0.327246 -1.84e-4,0.443573 -0.007,0.116392 -0.0092,0.0089 -0.0092,-0.232731 z"
       id="path8409" />
    <path
       style="fill:#004400;fill-opacity:0.923695;stroke-width:0.00139634"
       d="m 78.739262,85.905704 c 0.03781,-0.03781 1.026481,-0.917447 2.189056,-1.960365 l 2.113848,-1.896318 -0.0013,-6.638001 -0.0013,-6.637973 -7.321597,-6.807171 -7.321695,-6.807109 H 57.653095 46.909788 v -0.117292 -0.117291 l 1.724095,0.02791 c 0.948162,0.0089 5.784017,0.0279 10.746331,0.0279 h 9.022331 l 0.91553,0.858776 c 0.503163,0.472883 1.166643,1.090863 1.47327,1.374331 0.306444,0.283893 3.238309,3.014999 6.514835,6.070215 l 5.957387,5.55488 v 6.602953 6.602992 l -2.01946,1.809327 c -1.110658,0.995165 -2.087381,1.869065 -2.170514,1.941986 -0.08514,0.07562 -0.209015,0.143605 -0.279944,0.156029 -0.12578,0.01864 -0.127708,0.01864 -0.05672,-0.0378 z"
       id="path9114" />
    <path
       style="fill:#004400;fill-opacity:0.923695;stroke-width:0.000147638"
       d=""
       id="path9153"
       transform="scale(0.26458333)" />
    <path
       style="fill:#004400;fill-opacity:0.923695;stroke-width:0.00139634"
       d="m 86.274812,68.42112 c 0.38966,-0.109832 3.247949,-0.198598 5.504823,-0.17119 1.755773,0.01864 2.409881,0.05685 2.891677,0.151461 0.213761,0.04707 -0.368865,0.04707 -4.129362,0.04707 -2.447047,5.66e-4 -4.32909,-0.0089 -4.267138,-0.02791 z"
       id="path9192" />
    <path
       style="fill:#004400;fill-opacity:0.923695;stroke-width:0.00139634"
       d="m 96.062567,72.742444 c 0.0089,-0.130629 0.05672,-0.735812 0.0984,-1.345202 0.03781,-0.609081 0.07562,-1.112148 0.08514,-1.118013 0.01891,-0.01864 0.05672,0.999152 0.05672,1.547619 0,0.301589 0.0076,0.54857 0.01891,0.54857 0.0089,0 0.447356,-0.321599 0.973124,-0.714077 1.505807,-1.125254 2.3906,-1.685823 3.734109,-2.366128 0.80771,-0.408564 1.58866,-0.750949 2.33253,-1.022392 1.25232,-0.456832 2.13352,-0.670555 3.4165,-0.829465 0.68002,-0.08501 0.73584,-0.05685 0.0851,0.03781 -3.87144,0.577894 -7.43001,2.315211 -10.351202,5.054988 l -0.474787,0.445489 z"
       id="path9231" />
    <path
       style="fill:#004400;fill-opacity:0.923695;stroke-width:0.00139634"
       d="m 96.330049,72.276659 c -0.0089,-0.0089 -0.01891,-0.366974 -0.01891,-0.785031 l 0.0038,-0.760388 0.06623,0.596772 c 0.0378,0.328198 0.07562,0.624244 0.07562,0.658285 0.0089,0.04707 0.112533,-0.0089 0.455868,-0.24698 1.339827,-0.931607 1.915236,-1.32582 2.187914,-1.499081 1.103559,-0.700832 2.510229,-1.408852 3.643689,-1.832877 0.54667,-0.204167 0.506,-0.140852 -0.0567,0.08501 -1.33849,0.540981 -2.708107,1.2619 -3.929506,2.068743 -0.263868,0.175037 -0.908908,0.637452 -1.432501,1.028642 -0.523981,0.391564 -0.957343,0.711262 -0.963671,0.711262 -0.0064,0 -0.01891,-0.0089 -0.03781,-0.02791 z"
       id="path9344" />
    <path
       style="fill:#004400;fill-opacity:0.923695;stroke-width:0.00139634"
       d="m 98.891636,83.361492 c 0,-0.04707 0.419936,-0.633671 0.722592,-1.011706 1.341612,-1.677682 3.167772,-2.764673 5.360782,-3.190936 0.90325,-0.175951 1.45549,-0.221234 2.67301,-0.222173 1.47081,-3.85e-4 2.32506,0.09465 3.74989,0.403834 0.57128,0.124749 0.58072,0.128802 0.2951,0.110732 -1.23958,-0.07562 -2.56322,-0.111634 -4.47033,-0.111634 -2.41185,-4.76e-4 -2.63497,0.01865 -3.37186,0.223099 -0.66677,0.189262 -2.00054,0.928791 -2.76106,1.531068 -0.62233,0.492728 -1.341611,1.26509 -1.824912,1.958461 -0.12012,0.172298 -0.226982,0.286387 -0.282797,0.301615 -0.04733,0.0089 -0.09466,0.01864 -0.09466,0.0051 z"
       id="path9383" />
    <path
       style="fill:#004400;fill-opacity:0.923695;stroke-width:0.00139634"
       d="m 148.57358,102.38655 c 0.18444,-0.19951 2.93878,-3.130964 6.11979,-6.514241 l 5.78374,-6.151372 -6.6e-4,-4.673571 -5.7e-4,-4.673544 -5.71433,-6.077521 c -4.8767,-5.186645 -5.70145,-6.079297 -5.6271,-6.089969 0.0568,-0.0089 0.12384,0.02791 0.20617,0.110732 0.0661,0.06609 1.69629,1.81083 3.62365,3.873337 1.92734,2.062378 4.45649,4.767751 5.62029,6.011866 l 2.11595,2.261954 v 4.597717 4.597677 l -6.10078,6.532916 c -5.6832,6.085899 -6.10975,6.533829 -6.23175,6.544889 l -0.13046,0.009 z"
       id="path9459" />
    <path
       style="fill:#004400;fill-opacity:0.923695;stroke-width:0.000147638"
       d=""
       id="path9498"
       transform="scale(0.26458333)" />
    <path
       style="fill:#004400;fill-opacity:0.923695;stroke-width:0.00139634"
       d="m 118.51116,80.549347 c -0.001,-0.08501 -0.019,-0.119993 -0.0568,-0.119993 -0.0948,0 -0.0569,-0.0472 0.20711,-0.277089 0.36697,-0.31684 2.39115,-2.399488 4.52385,-4.655024 0.34615,-0.36601 2.25393,-2.406588 4.2401,-4.535084 l 3.61134,-3.870019 h 8.58093 8.581 l 0.50601,0.544788 c 0.41144,0.443573 0.49371,0.549509 0.44168,0.570306 -0.0473,0.01864 -0.17119,-0.08501 -0.52586,-0.452102 l -0.46154,-0.478554 -8.53431,0.0011 -8.53437,0.0011 -6.04053,6.428676 c -3.3223,3.535764 -6.15203,6.548693 -6.28833,6.69541 l -0.24779,0.26653 z"
       id="path9537" />
    <path
       style="fill:#004400;fill-opacity:0.923695;stroke-width:0.00139634"
       d="m 118.43559,80.261546 c 0,-0.0089 0.48707,-0.540982 1.0818,-1.17428 0.59489,-0.633722 1.94466,-2.07452 2.99942,-3.202307 1.05474,-1.127749 2.13645,-2.283149 2.40374,-2.567632 0.26765,-0.284844 1.37272,-1.46495 2.45641,-2.623167 3.68521,-3.938773 3.35947,-3.602177 3.48498,-3.602177 h 0.11253 l -0.11253,0.119993 c -0.066,0.06609 -1.62355,1.741047 -3.47022,3.722183 -4.82178,5.173127 -6.06046,6.481932 -7.79166,8.23278 -0.93917,0.949959 -1.16447,1.161637 -1.16447,1.094503 z"
       id="path9576" />
    <path
       style="fill:#004400;fill-opacity:0.923695;stroke-width:0.00139634"
       d="m 128.4983,119.56278 c -1.40479,-1.4779 -4.29344,-4.5159 -6.41921,-6.7511 -3.35985,-3.53282 -3.865,-4.07848 -3.8651,-4.17445 0,-0.10855 0.004,-0.10766 0.23551,0.1297 0.12955,0.13245 2.98315,3.12435 6.34118,6.64983 3.35807,3.52543 6.19839,6.50557 6.3118,6.62236 l 0.20618,0.21286 -0.12863,-6.5e-4 c -0.12114,-4.7e-4 -0.26198,-0.14087 -2.68229,-2.68779 z"
       id="path9615" />
    <path
       style="fill:#004400;fill-opacity:0.923695;stroke-width:0.00139634"
       d="m 130.20045,121.66927 c -0.79636,-0.84555 -5.71942,-6.05501 -9.01297,-9.53684 -1.56434,-1.65363 -2.88286,-3.05435 -2.93008,-3.11265 -0.0473,-0.0569 -0.0851,-0.13426 -0.0756,-0.16845 0.009,-0.0661 0.59771,0.5467 8.57987,8.94792 1.98864,2.09294 3.75851,3.95088 3.9331,4.1287 l 0.31685,0.32346 h -0.13246 c -0.12386,0 -0.17028,-0.0378 -0.68099,-0.5817 z"
       id="path9654" />
    <path
       style="fill:#004400;fill-opacity:0.923695;stroke-width:0.000147638"
       d=""
       id="path9693"
       transform="scale(0.26458333)" />
    <path
       style="fill:#004400;fill-opacity:0.923695;stroke-width:0.00139634"
       d="m 95.206917,123.02373 c 0.174974,-0.0378 0.426545,-0.16625 0.53531,-0.26559 0.133355,-0.12205 0.09556,-0.0187 -0.03781,0.11729 -0.125779,0.12192 -0.317792,0.19022 -0.522088,0.18432 -0.104946,-10e-4 -0.103145,-0.005 0.02829,-0.0378 z"
       id="path9771" />
    <path
       style="fill:#000000;fill-opacity:0.923695;stroke-width:0.00139634;stroke-miterlimit:4;stroke-dasharray:none"
       d="m 131.625,84.807241 v -4.156293 h 7.9987 7.99861 v 4.156293 4.156303 h -7.99861 -7.9987 z m 15.81259,0.0378 v -4.008566 h -7.83241 -7.83235 v 4.008571 4.008596 h 7.83235 7.83241 z"
       id="path9942" />
    <path
       style="fill:#000000;fill-opacity:0.923695;stroke-width:0.00139634;stroke-miterlimit:4;stroke-dasharray:none"
       d="m 118.29079,81.700773 c 0.001,-0.04745 0.009,-0.04745 0.019,-0.01865 0.009,0.02791 0.009,0.05685 -0.004,0.0661 -0.009,0.0089 -0.019,-0.0089 -0.019,-0.0472 z"
       id="path10018" />
    <path
       style="fill:#000000;fill-opacity:0.923695;stroke-width:0.000147638;stroke-miterlimit:4;stroke-dasharray:none"
       d=""
       id="path10057"
       transform="scale(0.26458333)" />
    <path
       style="fill:#000000;fill-opacity:0.923695;stroke-width:0.00139634;stroke-miterlimit:4;stroke-dasharray:none"
       d="m 118.25807,83.624987 c 7.5e-4,-0.05685 0.009,-0.08501 0.019,-0.04707 0.009,0.03781 0.009,0.08488 -10e-4,0.110731 -0.009,0.02791 -0.019,-0.0038 -0.019,-0.06609 z"
       id="path10170" />
    <path
       style="fill:#000000;fill-opacity:0.923695;stroke-width:0.000147638;stroke-miterlimit:4;stroke-dasharray:none"
       d=""
       id="path10209"
       transform="scale(0.26458333)" />
    <path
       style="fill:#000000;fill-opacity:0.923695;stroke-width:0.00139634;stroke-miterlimit:4;stroke-dasharray:none"
       d="m 118.26234,83.809695 c 1.8e-4,-0.121921 0.008,-0.16754 0.019,-0.101216 0.009,0.06609 0.008,0.166626 -3.8e-4,0.221233 -0.009,0.05685 -0.019,0.0011 -0.019,-0.120892 z"
       id="path10248" />
    <path
       style="fill:#000000;fill-opacity:0.923695;stroke-width:0.00139634;stroke-miterlimit:4;stroke-dasharray:none"
       d="m 118.25674,83.089303 c 0,-0.0472 0.009,-0.07562 0.019,-0.0472 0.009,0.0279 0.009,0.06609 0,0.09466 -0.009,0.0279 -0.019,0.0038 -0.019,-0.0472 z"
       id="path10472" />
    <path
       style="fill:#000000;fill-opacity:0.923695;stroke-width:0.00139634;stroke-miterlimit:4;stroke-dasharray:none"
       d="m 118.25807,82.886113 c 7.5e-4,-0.05685 0.009,-0.08501 0.019,-0.04707 0.009,0.03781 0.009,0.08501 -10e-4,0.110733 -0.009,0.02791 -0.019,-0.0038 -0.019,-0.06609 z"
       id="path10511" />
    <path
       style="fill:#000000;fill-opacity:0.923695;stroke-width:0.00139634;stroke-miterlimit:4;stroke-dasharray:none"
       d="m 118.19366,83.938998 c 1.8e-4,-2.681632 0.005,-3.037171 0.019,-1.53324 0.009,1.076987 0.009,2.648141 -1.8e-4,3.491394 -0.009,0.941086 -0.019,0.183396 -0.019,-1.958154 z"
       id="path10698" />
    <path
       style="fill:#000000;fill-opacity:0.923695;stroke-width:0.00139634;stroke-miterlimit:4;stroke-dasharray:none"
       d="m 118.21399,81.863528 c 0,-1.371117 8.5e-4,-1.386626 0.0756,-1.45623 l 0.0756,-0.06609 -0.019,0.258158 c -0.009,0.141778 -0.0378,0.790715 -0.0661,1.440834 -0.019,0.650713 -0.0473,1.189161 -0.0569,1.197673 -0.009,0.0089 -0.019,-0.608154 -0.019,-1.370472 z"
       id="path10811" />
    <path
       style="fill:#000000;fill-opacity:0.923695;stroke-width:0.00139634;stroke-miterlimit:4;stroke-dasharray:none"
       d="m 118.19243,83.569568 c -3.7e-4,-0.88433 0.009,-1.349369 0.019,-1.034404 0.009,0.314938 0.009,1.038096 7.6e-4,1.607089 -0.019,0.911762 -0.019,0.843651 -0.019,-0.572208 z"
       id="path10850" />
    <path
       style="fill:#000000;fill-opacity:0.923695;stroke-width:0.00139634;stroke-miterlimit:4;stroke-dasharray:none"
       d="m 118.22864,83.754277 c 0,-0.294142 0.005,-0.415189 0.009,-0.267764 0.008,0.147631 0.008,0.388695 0,0.535297 -0.008,0.147631 -0.009,0.02791 -0.009,-0.267765 z"
       id="path10889" />
    <path
       style="fill:#008000;fill-opacity:0.923695;stroke-width:0.00139634;stroke-miterlimit:4;stroke-dasharray:none"
       d="m 85.532454,68.940998 c 0.0089,-0.06609 0.05672,-0.167539 0.105972,-0.21564 0.07562,-0.08501 0.354666,-0.246993 0.377366,-0.222172 0.0064,0.0051 -0.105974,0.136301 -0.247791,0.288561 -0.252525,0.270594 -0.258196,0.274311 -0.235509,0.149638 z"
       id="path11261" />
    <path
       style="fill:#003900;fill-opacity:0.94902;stroke-width:0.00139634;stroke-miterlimit:4;stroke-dasharray:none"
       d="m 36.306481,57.135286 v -2.198189 h 5.301666 5.301565 v 0.110732 0.110732 h -5.209257 -5.209257 v 2.087393 2.087367 h -0.09458 -0.09458 z"
       id="path11411" />
    <path
       style="fill:#003900;fill-opacity:0.94902;stroke-width:0.000315207;stroke-miterlimit:4;stroke-dasharray:none"
       d="m 131.63292,86.241974 v -2.714629 h 0.0668 0.0666 v 2.664589 2.664589 h 5.45011 5.4501 v 0.05004 0.05004 h -5.51682 -5.51683 z"
       id="path28623" />
    <path
       style="fill:#003900;fill-opacity:0.94902;stroke-width:3.94011e-05;stroke-miterlimit:4;stroke-dasharray:none"
       d="m 133.09032,88.977973 v -0.01355 h 1.11128 1.11129 v 0.01355 0.01355 h -1.11129 -1.11128 z"
       id="path28740" />
    <path
       style="fill:#003900;fill-opacity:0.94902;stroke-width:3.94011e-05;stroke-miterlimit:4;stroke-dasharray:none"
       d="m 133.09032,88.844014 v -0.0088 h 1.11128 1.11129 v 0.0088 0.0088 h -1.11129 -1.11128 z"
       id="path28779" />
    <path
       style="fill:#003900;fill-opacity:0.94902;stroke-width:3.94011e-05;stroke-miterlimit:4;stroke-dasharray:none"
       d="m 131.77366,88.844014 v -0.0088 h 0.65833 0.65833 v 0.0088 0.0088 h -0.65833 -0.65833 z"
       id="path28857" />
    <path
       style="fill:#003900;fill-opacity:0.94902;stroke-width:3.94011e-05;stroke-miterlimit:4;stroke-dasharray:none"
       d="m 131.6225,88.655325 c 0,-0.22344 2.6e-4,-0.336202 0.001,-0.336202 8.1e-4,0 0.001,0.108245 0.001,0.32265 v 0.322648 h 0.73286 0.73287 v 0.01355 0.01355 h -0.73391 -0.73391 z"
       id="path28896" />
    <path
       style="fill:#003900;fill-opacity:0.94902;stroke-width:3.94011e-05;stroke-miterlimit:4;stroke-dasharray:none"
       d="m 131.62562,88.64125 v -0.322127 h 0.004 0.004 v 0.319001 0.319001 h 0.83243 0.83242 v 0.0031 0.0031 h -0.83606 -0.83607 z"
       id="path28935" />
    <path
       style="fill:#003900;fill-opacity:0.94902;stroke-width:3.94011e-05;stroke-miterlimit:4;stroke-dasharray:none"
       d="m 134.07442,88.960252 v -0.0031 h 1.11129 1.11129 v 0.0031 0.0031 h -1.11129 -1.11129 z"
       id="path28974" />
    <path
       style="fill:#003900;fill-opacity:0.94902;stroke-width:3.94011e-05;stroke-miterlimit:4;stroke-dasharray:none"
       d="m 135.31289,88.977973 v -0.01355 h 0.49206 0.49205 v 0.01355 0.01355 h -0.49205 -0.49206 z"
       id="path29013" />
    <path
       style="fill:#003900;fill-opacity:0.94902;stroke-width:3.94011e-05;stroke-miterlimit:4;stroke-dasharray:none"
       d="m 135.31289,88.844014 v -0.0088 h 0.49206 0.49205 v 0.0088 0.0088 h -0.49205 -0.49206 z"
       id="path29052" />
    <path
       style="fill:#003900;fill-opacity:0.94902;stroke-width:3.94011e-05;stroke-miterlimit:4;stroke-dasharray:none"
       d="m 139.49534,88.960252 v -0.0031 h 1.11128 1.11129 v 0.0031 0.0031 h -1.11129 -1.11128 z"
       id="path29091" />
    <path
       style="fill:#003900;fill-opacity:0.94902;stroke-width:3.94011e-05;stroke-miterlimit:4;stroke-dasharray:none"
       d="m 139.49534,88.977973 v -0.01355 h 1.11128 1.11129 v 0.01355 0.01355 h -1.11129 -1.11128 z"
       id="path29130" />
    <path
       style="fill:#003900;fill-opacity:0.94902;stroke-width:3.94011e-05;stroke-miterlimit:4;stroke-dasharray:none"
       d="m 139.49534,88.844014 v -0.0088 h 1.11128 1.11129 v 0.0088 0.0088 h -1.11129 -1.11128 z"
       id="path29169" />
    <path
       style="fill:#003900;fill-opacity:0.94902;stroke-width:0.000157604;stroke-miterlimit:4;stroke-dasharray:none"
       d="m 137.1706,88.979536 v -0.01252 h 1.16133 1.16132 v 0.01252 0.01252 h -1.16132 -1.16133 z"
       id="path29208" />
    <path
       style="fill:#003900;fill-opacity:0.94902;stroke-width:3.94011e-05;stroke-miterlimit:4;stroke-dasharray:none"
       d="m 138.85942,88.844014 v -0.0088 h 0.31796 0.31796 v 0.0088 0.0088 h -0.31796 -0.31796 z"
       id="path29286" />
    <path
       style="fill:#003900;fill-opacity:0.94902;stroke-width:3.94011e-05;stroke-miterlimit:4;stroke-dasharray:none"
       d="m 138.85942,88.960252 v -0.0031 h 0.31796 0.31796 v 0.0031 0.0031 h -0.31796 -0.31796 z"
       id="path29325" />
    <path
       style="fill:#003900;fill-opacity:0.94902;stroke-width:3.94011e-05;stroke-miterlimit:4;stroke-dasharray:none"
       d="m 138.85942,88.979536 v -0.01199 h 0.31692 0.31691 v 0.01199 0.01199 h -0.31691 -0.31692 z"
       id="path29364" />
    <path
       style="fill:#003900;fill-opacity:0.94902;stroke-width:3.94011e-05;stroke-miterlimit:4;stroke-dasharray:none"
       d="m 139.49325,88.979016 v -0.01252 h -0.31691 -0.31692 v -0.05473 -0.05473 h 1.11129 1.11129 v 0.05369 0.0537 h -0.79334 -0.79332 v 0.01355 c 0,0.0083 -5.3e-4,0.01355 -0.001,0.01355 -5.3e-4,0 -0.001,-0.0048 -0.001,-0.01252 z"
       id="path29403" />
    <path
       style="fill:#003900;fill-opacity:0.94902;stroke-width:5.57212e-05;stroke-miterlimit:4;stroke-dasharray:none"
       d="m 141.71883,88.977952 v -0.01401 h 1.09025 1.09024 v 0.01401 0.01401 h -1.09024 -1.09025 z"
       id="path29442" />
    <path
       style="fill:#003900;fill-opacity:0.94902;stroke-width:5.57212e-05;stroke-miterlimit:4;stroke-dasharray:none"
       d="m 141.71883,88.959523 c 0,-0.0029 0.001,-0.0029 0.47399,-0.0029 h 0.47398 v -0.05013 -0.05012 h -0.95534 c -0.84821,0 -0.95534,-2.49e-4 -0.95534,-0.0021 0,-0.0019 0.0545,-0.0021 0.48136,-0.0021 h 0.48135 v -0.0088 -0.0088 h 1.09025 1.09024 v 0.06413 0.06413 h -1.09024 c -1.08926,0 -1.09025,-2e-6 -1.09025,-0.0029 z"
       id="path29481" />
    <path
       style="fill:#003900;fill-opacity:0.94902;stroke-width:7.88021e-05;stroke-miterlimit:4;stroke-dasharray:none"
       d="m 136.297,88.844014 v -0.0093 h 1.28122 1.2812 v 0.0093 0.0093 h -1.2812 -1.28122 z"
       id="path29520" />
    <path
       style="fill:#003900;fill-opacity:0.94902;stroke-width:7.88021e-05;stroke-miterlimit:4;stroke-dasharray:none"
       d="m 136.297,88.977452 v -0.01355 l 1.28174,5.34e-4 c 1.00805,5.33e-4 1.10131,5.33e-4 0.43679,0.0011 l -0.84493,4.93e-4 v 0.01252 0.01252 h -0.4368 -0.4368 z"
       id="path29559" />
    <path
       style="fill:#003900;fill-opacity:0.94902;stroke-width:7.88021e-05;stroke-miterlimit:4;stroke-dasharray:none"
       d="m 143.90087,88.912817 v -0.07818 h 0.90488 0.90487 v 0.07818 0.07819 h -0.90487 -0.90488 z"
       id="path29598" />
    <path
       style="fill:#003900;fill-opacity:0.94902;stroke-width:0.000157604;stroke-miterlimit:4;stroke-dasharray:none"
       d="m 145.71062,88.90865 v -0.05421 h 0.86526 0.86527 v -1.296847 -1.296852 h 0.0896 0.0896 v 1.35106 1.351059 h -0.95491 -0.95493 z"
       id="path29637" />
    <path
       style="fill:#003900;fill-opacity:0.94902;stroke-width:0.000157604;stroke-miterlimit:4;stroke-dasharray:none"
       d="m 145.71062,88.979536 v -0.01252 h 0.95701 0.957 v -1.353145 c 0,-0.899316 0.001,-1.353144 0.004,-1.353144 0.003,0 0.004,0.457999 0.004,1.365655 v 1.365655 h -0.96115 -0.96118 z"
       id="path29676" />
    <path
       style="fill:#003900;fill-opacity:0.94902;stroke-width:3.94011e-05;stroke-miterlimit:4;stroke-dasharray:none"
       d="m 146.28608,88.844014 v -0.0088 h 0.57545 0.57546 v 0.0088 0.0088 h -0.57546 -0.57545 z"
       id="path29715" />
    <path
       style="fill:#003900;fill-opacity:0.94902;stroke-width:3.94011e-05;stroke-miterlimit:4;stroke-dasharray:none"
       d="m 145.71062,88.844014 v -0.0088 h 0.28774 0.28772 v 0.0088 0.0088 h -0.28772 -0.28774 z"
       id="path29754" />
    <path
       style="fill:#008a00;fill-opacity:0.927916;stroke-width:0.000630414;stroke-miterlimit:4;stroke-dasharray:none"
       d="m 147.44532,83.539855 v -2.718798 h -7.83948 -7.83948 v 1.351059 1.35106 h -0.0666 -0.0668 v -1.434458 -1.434459 h 7.98961 7.98959 v 2.802197 2.802197 h -0.0834 -0.0834 z"
       id="path29793" />
    <path
       style="fill:#003900;fill-opacity:0.94902;stroke-width:0.00334066;stroke-miterlimit:4;stroke-dasharray:none"
       d=""
       id="path29832"
       transform="scale(0.26458333)" />
    <path
       style="fill:#003900;fill-opacity:0.94902;stroke-width:0.000891542;stroke-miterlimit:4;stroke-dasharray:none"
       d="m 149.23121,122.19529 c 0.087,-0.0915 2.07916,-2.22119 4.91254,-5.25175 5.55608,-5.94274 7.8519,-8.38955 7.8622,-8.37925 0.0344,0.0344 -2.81583,3.17017 -5.61998,6.18286 -1.54995,1.66524 -6.1535,6.60789 -6.56363,7.04714 l -0.45703,0.48946 h -0.10912 -0.10911 z"
       id="path29908" />
    <path
       style="fill:#003900;fill-opacity:0.94902;stroke-width:0.000891542;stroke-miterlimit:4;stroke-dasharray:none"
       d="m 148.89718,122.2728 c 0,-0.006 2.93512,-3.13477 6.52251,-6.95277 6.12197,-6.51553 6.52773,-6.94229 6.60733,-6.9493 0.0468,-0.004 0.0811,0.003 0.0765,0.015 -0.005,0.0124 -1.44757,1.56016 -3.20656,3.43963 -1.75898,1.87946 -3.45738,3.69529 -3.77419,4.03517 -0.31682,0.33989 -1.79676,1.92335 -3.28874,3.51883 l -2.71269,2.90086 -0.11205,0.002 c -0.0616,0.001 -0.11205,-0.003 -0.11205,-0.009 z"
       id="path29947" />
    <path
       style="fill:#003900;fill-opacity:0.94902;stroke-width:0.000445771;stroke-miterlimit:4;stroke-dasharray:none"
       d="m 148.56693,108.19452 c -6.07498,-0.0311 -11.44082,-0.0586 -11.92409,-0.0609 -0.48327,-0.002 2.97719,-0.003 7.68992,-0.002 8.17864,0.002 9.29471,0.006 11.9359,0.0401 1.54149,0.02 3.00582,0.048 3.66214,0.0702 l 0.25947,0.009 -0.28895,2.7e-4 c -0.15893,1.5e-4 -5.2594,-0.0252 -11.33439,-0.0565 z"
       id="path29986" />
    <path
       style="fill:#003900;fill-opacity:0.94902;stroke-width:3.94011e-05;stroke-miterlimit:4;stroke-dasharray:none"
       d="m 135.9191,122.27382 c -0.17717,-2.6e-4 -0.61204,-0.001 -0.96638,-0.002 -0.35434,-5.4e-4 -0.64907,-0.002 -0.65495,-0.002 l -0.0107,-5.5e-4 v -0.004 -0.004 l 0.0978,5.5e-4 c 0.0538,2.7e-4 0.51009,0.001 1.01408,0.002 0.50399,8e-4 0.96009,0.002 1.01356,0.002 l 0.0973,5.3e-4 v 0.004 0.004 l -0.13421,-1.8e-4 c -0.0739,-1e-4 -0.27918,-5.4e-4 -0.45635,-8.1e-4 z"
       id="path30025" />
  </g>
</svg>
