<?xml version="1.0" encoding="UTF-8" standalone="no"?>
<!-- Created with Inkscape (http://www.inkscape.org/) -->

<svg
   width="210mm"
   height="297mm"
   viewBox="0 0 210 297"
   version="1.1"
   id="svg6813"
   inkscape:version="1.1.2 (b8e25be833, 2022-02-05)"
   sodipodi:docname="Verif yellow.svg"
   xmlns:inkscape="http://www.inkscape.org/namespaces/inkscape"
   xmlns:sodipodi="http://sodipodi.sourceforge.net/DTD/sodipodi-0.dtd"
   xmlns="http://www.w3.org/2000/svg"
   xmlns:svg="http://www.w3.org/2000/svg">
  <sodipodi:namedview
     id="namedview6815"
     pagecolor="#505050"
     bordercolor="#eeeeee"
     borderopacity="1"
     inkscape:pageshadow="0"
     inkscape:pageopacity="0"
     inkscape:pagecheckerboard="0"
     inkscape:document-units="mm"
     showgrid="false"
     showguides="true"
     inkscape:guide-bbox="true"
     inkscape:lockguides="true"
     inkscape:zoom="0.90509668"
     inkscape:cx="266.82233"
     inkscape:cy="318.19805"
     inkscape:window-width="1920"
     inkscape:window-height="1017"
     inkscape:window-x="-8"
     inkscape:window-y="-8"
     inkscape:window-maximized="1"
     inkscape:current-layer="layer1">
    <sodipodi:guide
       position="104.48902,93.201977"
       orientation="0,-1"
       id="guide67029"
       inkscape:locked="true" />
  </sodipodi:namedview>
  <defs
     id="defs6810">
    <linearGradient
       id="linearGradient46545"
       inkscape:swatch="solid">
      <stop
         style="stop-color:#000000;stop-opacity:1;"
         offset="0"
         id="stop46543" />
    </linearGradient>
    <linearGradient
       id="linearGradient46502"
       inkscape:swatch="solid">
      <stop
         style="stop-color:#000000;stop-opacity:1;"
         offset="0"
         id="stop46500" />
    </linearGradient>
    <linearGradient
       id="linearGradient46459"
       inkscape:swatch="solid">
      <stop
         style="stop-color:#000000;stop-opacity:1;"
         offset="0"
         id="stop46457" />
    </linearGradient>
    <linearGradient
       id="linearGradient31882"
       inkscape:swatch="solid">
      <stop
         style="stop-color:#000000;stop-opacity:1;"
         offset="0"
         id="stop31880" />
    </linearGradient>
  </defs>
  <g
     inkscape:label="Capa 1"
     inkscape:groupmode="layer"
     id="layer1">
    <path
       style="font-variation-settings:normal;opacity:1;fill:none;fill-opacity:1;stroke:#000000;stroke-width:3.62224;stroke-linecap:butt;stroke-linejoin:miter;stroke-miterlimit:4;stroke-dasharray:none;stroke-dashoffset:0;stroke-opacity:1;stop-color:#000000;stop-opacity:1"
       d="M 31.330597,13.525013 29.691935,162.07363 c 0,0 0.410558,12.3457 14.759402,12.3457 14.34884,0 146.359783,0.39983 146.359783,0.39983 0,0 14.3492,-0.39983 14.75939,-13.939 0.41056,-13.54056 1.63868,-142.97324 1.63868,-142.97324 0,0 3.27732,-14.3370591 -11.47922,-14.7354793 C 180.97091,2.7715931 43.629862,2.7715931 43.629862,2.7715931 c 0,0 -11.88906,-0.7961258 -12.299265,10.7530649 z"
       id="path8047" />
    <path
       style="font-variation-settings:normal;opacity:1;fill:none;fill-opacity:1;stroke:#000000;stroke-width:2.32055;stroke-linecap:butt;stroke-linejoin:miter;stroke-miterlimit:4;stroke-dasharray:none;stroke-dashoffset:0;stroke-opacity:1;stop-color:#000000;stop-opacity:1"
       d="M 1.4612202,39.858954 V 200.04353 l 2.1634641,2.16346 H 169.92083 l 1.99209,-1.99209 v -8.76133 l -2.90603,-2.90603 H 18.970289 l -1.970682,-1.97069 V 36.540211 l -1.995672,-1.99567 H 3.7310729 l -2.2705662,2.266997 v 3.048844"
       id="path18119" />
    <path
       style="opacity:0.874;fill:none;fill-opacity:1;stroke-width:0.0641089;stroke-linejoin:round;stroke-miterlimit:4;stroke-dasharray:none"
       d="M 9.2718256,184.43588 8.5578099,183.62546 V 112.57707 41.528677 l 0.7604267,-0.763995 c 0.6961614,-0.696166 1.1031504,-0.763995 4.8817184,-0.763995 3.574358,0 4.192696,0.107096 4.664661,0.63904 0.49981,0.58906 0.54622,5.714973 0.54622,66.601163 v 65.96139 l 1.085301,1.121 1.081734,1.12102 h 61.991841 61.991068 l 0.88538,0.98177 c 0.83182,0.92465 0.88538,1.17454 0.88538,4.32015 0,2.78822 -0.1071,3.4344 -0.59978,3.91814 -0.55336,0.53551 -5.7928,0.58193 -68.670316,0.58193 H 9.9929783 Z"
       id="path36582" />
    <path
       style="opacity:0.874;fill:none;fill-opacity:1;stroke-width:0.0641089;stroke-linejoin:round;stroke-miterlimit:4;stroke-dasharray:none"
       d="M 9.2718256,184.43588 8.5578099,183.62546 V 112.57707 41.528677 l 0.7604267,-0.763995 c 0.6961614,-0.696166 1.1031504,-0.763995 4.8817184,-0.763995 3.574358,0 4.192696,0.107096 4.664661,0.63904 0.49981,0.58906 0.54622,5.714973 0.54622,66.601163 v 65.96139 l 1.085301,1.121 1.081734,1.12102 h 61.991841 61.991068 l 0.88538,0.98177 c 0.83182,0.92465 0.88538,1.17454 0.88538,4.32015 0,2.78822 -0.1071,3.4344 -0.59978,3.91814 -0.55336,0.53551 -5.7928,0.58193 -68.670316,0.58193 H 9.9929783 Z"
       id="path36621" />
    <path
       style="opacity:0.874;fill:none;fill-opacity:1;stroke-width:0.0641089;stroke-linejoin:round;stroke-miterlimit:4;stroke-dasharray:none"
       d="m 59.03402,160.05586 -19.40157,-0.17861 -1.738624,-0.83897 c -2.138478,-1.02819 -4.12308,-3.34876 -4.846377,-5.66465 -0.499813,-1.59224 -0.485531,-6.5325 0.142801,-67.77926 0.424837,-40.393257 0.824687,-66.570827 1.028181,-67.375879 0.439119,-1.752906 2.099205,-3.707877 3.918156,-4.603253 1.46373,-0.717586 1.860008,-0.731866 31.733319,-0.817548 16.639047,-0.07141 46.091374,0.03141 65.448694,0.178506 l 35.19485,0.249907 1.63511,0.896087 c 0.9889,0.542653 2.02066,1.485152 2.62042,2.395522 l 0.98891,1.502998 -0.10711,11.777678 c -0.51766,73.748092 -1.17812,121.478902 -1.7065,123.322842 -0.88539,3.08456 -4.25695,6.12875 -7.63388,6.89954 -1.68151,0.38196 -67.881371,0.39984 -107.316029,0.0315 z m 15.620147,-40.60462 v -7.69957 H 63.966791 53.279417 V 84.453812 57.155949 H 63.966791 74.654167 V 49.981543 42.807111 H 58.799464 42.945836 l -1.410181,1.470886 -1.410177,1.470867 v 38.502178 38.502168 l 2.045652,2.19557 2.045654,2.19561 h 15.218153 15.218515 z m 55.940503,5.01381 2.59188,-2.68468 V 90.790706 59.800676 l -2.04566,-2.195601 -2.04565,-2.195588 H 112.47618 95.857192 l -6.570363,6.99949 -6.571078,6.99949 h 17.672179 17.67222 v 6.124465 6.124455 H 102.69419 87.329002 l -2.39195,2.5276 -2.391951,2.527632 v 17.499761 17.49942 l 2.538322,2.72042 2.538323,2.72039 h 20.186934 20.18733 z M 159.16598,84.978623 V 42.807111 h -6.57715 c -4.16521,0 -6.57643,0.1428 -6.57643,0.357011 0,0.178407 -0.24993,0.35701 -0.49268,0.35701 -0.43554,0 -0.49268,4.854233 -0.49268,41.588511 0,22.873817 0.10711,41.693457 0.21423,41.821977 0.14279,0.14282 3.30231,0.21421 7.07015,0.21421 h 6.85099 z"
       id="path36660" />
    <path
       style="opacity:0.874;fill:none;fill-opacity:1;stroke-width:0.0641089;stroke-linejoin:round;stroke-miterlimit:4;stroke-dasharray:none"
       d="m 59.03402,160.05586 -19.40157,-0.17861 -1.738624,-0.83897 c -2.138478,-1.02819 -4.12308,-3.34876 -4.846377,-5.66465 -0.499813,-1.59224 -0.485531,-6.5325 0.142801,-67.77926 0.424837,-40.393257 0.824687,-66.570827 1.028181,-67.375879 0.439119,-1.752906 2.099205,-3.707877 3.918156,-4.603253 1.46373,-0.717586 1.860008,-0.731866 31.733319,-0.817548 16.639047,-0.07141 46.091374,0.03141 65.448694,0.178506 l 35.19485,0.249907 1.63511,0.896087 c 0.9889,0.542653 2.02066,1.485152 2.62042,2.395522 l 0.98891,1.502998 -0.10711,11.777678 c -0.51766,73.748092 -1.17812,121.478902 -1.7065,123.322842 -0.88539,3.08456 -4.25695,6.12875 -7.63388,6.89954 -1.68151,0.38196 -67.881371,0.39984 -107.316029,0.0315 z m 15.620147,-40.60462 v -7.69957 H 63.966791 53.279417 V 84.453812 57.155949 H 63.966791 74.654167 V 49.981543 42.807111 H 58.799464 42.945836 l -1.410181,1.470886 -1.410177,1.470867 v 38.502178 38.502168 l 2.045652,2.19557 2.045654,2.19561 h 15.218153 15.218515 z m 55.940503,5.01381 2.59188,-2.68468 V 90.790706 59.800676 l -2.04566,-2.195601 -2.04565,-2.195588 H 112.47618 95.857192 l -6.570363,6.99949 -6.571078,6.99949 h 17.672179 17.67222 v 6.124465 6.124455 H 102.69419 87.329002 l -2.39195,2.5276 -2.391951,2.527632 v 17.499761 17.49942 l 2.538322,2.72042 2.538323,2.72039 h 20.186934 20.18733 z M 159.16598,84.978623 V 42.807111 h -6.57715 c -4.16521,0 -6.57643,0.1428 -6.57643,0.357011 0,0.178407 -0.24993,0.35701 -0.49268,0.35701 -0.43554,0 -0.49268,4.854233 -0.49268,41.588511 0,22.873817 0.10711,41.693457 0.21423,41.821977 0.14279,0.14282 3.30231,0.21421 7.07015,0.21421 h 6.85099 z"
       id="path36699" />
    <path
       style="opacity:0.874;fill:#000000;fill-opacity:1;stroke-width:0.00593964;stroke-linejoin:round;stroke-miterlimit:4;stroke-dasharray:none"
       d="m 32.695082,118.71937 c 0.0018,-0.0315 0.0081,-0.0315 0.01572,-0.0176 0.0081,0.0254 0.0081,0.0714 -0.0021,0.0714 -0.0078,0.009 -0.01572,-0.009 -0.01572,-0.0315 z"
       id="path47843" />
    <path
       style="opacity:0.874;fill:#000000;fill-opacity:1;stroke-width:0.0069728;stroke-linejoin:round;stroke-miterlimit:4;stroke-dasharray:none"
       d="m 50.541616,252.09507 c 0.09633,-0.009 0.254094,-0.009 0.350441,0 0.09634,0.009 0.01889,0.01 -0.174747,0.01 -0.192688,0 -0.272039,-0.006 -0.175694,-0.01 z"
       id="path48221" />
    <path
       style="opacity:0.874;fill:#000000;fill-opacity:1;stroke-width:0.000738189;stroke-linejoin:round;stroke-miterlimit:4;stroke-dasharray:none"
       d=""
       id="path50654"
       transform="scale(0.26458333)" />
    <path
       style="font-variation-settings:normal;fill:none;fill-opacity:1;stroke:#000000;stroke-width:0.271446;stroke-linecap:butt;stroke-linejoin:miter;stroke-miterlimit:4;stroke-dasharray:none;stroke-dashoffset:0;stroke-opacity:1;stop-color:#000000"
       d="m 79.394511,86.287049 v 24.825201 l 11.72448,12.22287 h 15.502629 l 11.55312,-12.22287 H 91.118991 v -5.17694 h 14.951059 l 10.8598,-11.489197 V 86.287049 L 105.9915,74.714301 H 90.88301 L 79.394511,86.869693"
       id="path61236" />
    <path
       style="font-variation-settings:normal;fill:none;fill-opacity:1;stroke:#000000;stroke-width:0.471628;stroke-linecap:butt;stroke-linejoin:miter;stroke-miterlimit:4;stroke-dasharray:none;stroke-dashoffset:0;stroke-opacity:1;stop-color:#000000"
       d="m 91.118991,86.287049 v 7.742415 H 105.75588 V 86.287049 H 91.118991"
       id="path61529" />
    <path
       style="font-variation-settings:normal;fill:none;fill-opacity:1;stroke:#000000;stroke-width:0.281622;stroke-linecap:butt;stroke-linejoin:miter;stroke-miterlimit:4;stroke-dasharray:none;stroke-dashoffset:0;stroke-opacity:1;stop-color:#000000"
       d="M 123.72478,121.89925 V 75.531842 l 0.78898,-0.842527 h 7.65388 l 1.01392,1.085298 -0.21422,3.252344 c 0,0 6.64107,-8.068733 17.7836,-4.335143"
       id="path64060" />
    <path
       style="font-variation-settings:normal;fill:none;fill-opacity:1;stroke:#000000;stroke-width:0.281622;stroke-linecap:butt;stroke-linejoin:miter;stroke-miterlimit:4;stroke-dasharray:none;stroke-dashoffset:0;stroke-opacity:1;stop-color:#000000"
       d="m 123.73155,121.90175 0.67475,0.72115 h 7.99126 l 0.78899,-0.84253 v -5.78067"
       id="path64132" />
    <path
       style="font-variation-settings:normal;fill:none;fill-opacity:1;stroke:#000000;stroke-width:0.281622;stroke-linecap:butt;stroke-linejoin:miter;stroke-miterlimit:4;stroke-dasharray:none;stroke-dashoffset:0;stroke-opacity:1;stop-color:#000000"
       d="m 133.18476,116.00112 9.9e-4,-20.716045 c 0,0 -3.5e-4,-15.655842 15.0825,-10.959417 0,0 2.47404,0 2.47404,0 l -9.8e-4,-9.634193 v 0"
       id="path64284" />
    <path
       style="font-variation-settings:normal;fill:none;fill-opacity:1;stroke:#000000;stroke-width:0.386164;stroke-linecap:butt;stroke-linejoin:miter;stroke-miterlimit:4;stroke-dasharray:none;stroke-dashoffset:0;stroke-opacity:1;stop-color:#000000"
       d="M 35.128801,65.808396 44.03471,44.48577 59.357825,97.174716 74.811606,44.48577 83.717514,65.808396 67.084537,123.44257 H 51.499735 Z"
       id="path64513" />
    <path
       style="fill:none;stroke:#000000;stroke-width:0.332831;stroke-linecap:butt;stroke-linejoin:miter;stroke-miterlimit:4;stroke-dasharray:none;stroke-opacity:1"
       d="m 171.39525,94.275811 0.10712,29.059309 c 7.49824,1.65296 13.29354,5.81209 8.79097,-10.42534 l -0.1071,-18.185551 1.82787,-0.14282 7.58963,-9.429277 -9.2979,-0.521236 -0.17851,-6.510743 6.76708,0.321303 10.24612,-10.102592 -16.824,-0.521234 -9.04442,9.728822 0.1785,7.034453 h -2.58829 l 0.357,9.653487 z"
       id="path1725"
       sodipodi:nodetypes="cccccccccccccccc" />
    <path
       style="fill:none;stroke:#000000;stroke-width:0.332831;stroke-linecap:butt;stroke-linejoin:miter;stroke-miterlimit:4;stroke-dasharray:none;stroke-opacity:1"
       d="m 180.30903,112.90978 0.357,10.42534 h -9.12224"
       id="path2018" />
    <path
       style="fill:none;stroke:#000000;stroke-width:0.29471;stroke-linecap:butt;stroke-linejoin:miter;stroke-miterlimit:4;stroke-dasharray:none;stroke-opacity:1"
       d="m 153.69626,83.240362 c 0.14281,-0.106945 0.49626,-0.639038 0.49626,-0.639038 l 8.15226,12.430631 0.1785,27.526325 -0.32131,0.67475 h -8.40002 z"
       id="path2471" />
    <path
       style="fill:none;stroke:#000000;stroke-width:0.29471;stroke-linecap:butt;stroke-linejoin:miter;stroke-miterlimit:4;stroke-dasharray:none;stroke-opacity:1"
       d="m 161.70037,88.648654 0.49625,-0.453402 V 71.183861 h -0.35701 l -5.85529,8.899831 z"
       id="path2473" />
    <path
       style="fill:#fff6d5;fill-opacity:1;stroke-width:0.0223129"
       d="m 40.092933,171.69092 c -3.367624,-0.90492 -6.585815,-3.78863 -7.575361,-6.78675 -0.532743,-1.6158 -0.532743,-19.15112 0.0023,-75.313864 0.383502,-40.264327 0.840682,-74.522438 1.015144,-76.129266 0.42034,-3.8728817 1.770525,-6.0046144 4.699297,-7.4224326 2.366178,-1.1454004 3.832829,-1.1673165 75.284257,-1.1233912 40.07909,0.02835 75.9885,0.2351996 79.79858,0.4685125 5.61837,0.3438277 7.23608,0.6517621 8.56029,1.6318595 2.66784,1.9744614 3.41606,4.0993918 3.29837,9.3673258 -0.0568,2.597602 -0.41089,35.141392 -0.78401,72.319583 -0.37312,37.178173 -0.89451,69.658653 -1.15805,72.178923 -0.58753,5.60464 -2.26341,8.15049 -6.73919,10.23451 l -3.0209,1.40667 -75.27138,-0.0377 C 58.603659,172.4565 42.339938,172.29213 40.092401,171.68766 Z M 68.550169,120.13893 C 75.961268,94.865884 83.956307,66.637896 83.934865,65.82027 83.887632,64.151471 75.26974,44.104705 74.722071,44.398378 c -0.275817,0.147337 -3.821497,11.616178 -7.879611,25.485291 -4.058112,13.869113 -7.432915,25.161884 -7.4997,25.095109 -0.06611,-0.06614 -2.938782,-9.80837 -6.382163,-21.647953 -3.443379,-11.839573 -6.797404,-23.351957 -7.45332,-25.583149 -0.655538,-2.231114 -1.407521,-3.825097 -1.670304,-3.542182 -0.846346,0.911509 -8.875388,20.556845 -8.875388,21.716218 0,0.615873 3.645898,13.963666 8.10206,29.661204 l 8.102059,28.540994 h 8.107915 8.10801 z M 180.89918,109.32621 c -0.14167,-11.291638 -0.0189,-14.131425 0.59037,-14.136715 0.67725,-0.0063 8.73767,-9.516181 8.73767,-10.309542 0,-0.170937 -1.70506,-0.310773 -3.78911,-0.310773 -5.2716,0 -5.65672,-0.225754 -5.65672,-3.310188 v -2.593443 h 3.40692 3.40693 l 5.19934,-5.223641 5.19948,-5.223546 -4.03101,-0.380647 c -2.21703,-0.209701 -6.28913,-0.380681 -9.04911,-0.380681 l -5.0181,3.81e-4 -4.57536,4.969262 c -4.56545,4.958478 -4.57527,4.976246 -4.57527,8.260476 0,2.897591 -0.14069,3.291192 -1.18073,3.291192 -1.03158,0 -1.17989,0.391061 -1.17421,3.099366 0.01,4.576412 0.61587,7.527181 1.54666,7.527181 0.65744,0 0.80856,2.239706 0.80856,12.020088 0,6.61103 0.15871,13.18616 0.35328,14.61145 l 0.35421,2.59146 4.8119,-0.18607 4.81198,-0.18608 z m -68.14282,8.2389 c 3.15793,-3.28269 5.83016,-6.20494 5.9384,-6.494 0.11147,-0.29752 -5.71264,-0.52518 -13.43072,-0.52518 H 91.636515 v -2.06627 -2.06627 h 7.331161 7.331144 l 5.65682,-6.03502 5.65682,-6.035011 V 90.305337 86.26744 l -5.46091,-5.81474 -5.46081,-5.814655 -8.081821,-0.05661 -8.081815,-0.05661 -5.628954,5.756114 -5.628862,5.755997 -0.01888,12.782453 -0.01889,12.782461 5.66853,5.96154 5.668439,5.96162 h 8.219442 8.219441 z m 50.17696,-8.26111 0.15772,-13.934267 -4.29065,-6.574205 c -2.35976,-3.615872 -4.5563,-6.489388 -4.88096,-6.385756 -0.8605,0.274867 -1.03431,8.080131 -0.57051,25.650318 l 0.40994,15.5207 4.50773,-0.17093 4.50774,-0.17093 z m -29.38103,-2.30062 c 0.27771,-14.724421 0.37217,-15.7887 1.60513,-18.094219 0.72071,-1.347263 2.26614,-3.040508 3.43478,-3.762734 1.94357,-1.201131 2.57484,-1.278032 7.39797,-0.901152 l 5.27303,0.412808 v -5.02756 c 0,-3.031713 -0.25882,-5.187554 -0.65176,-5.430493 -0.35895,-0.221977 -2.3127,-0.536527 -4.34233,-0.698978 -4.05067,-0.324951 -6.99908,0.402385 -10.464,2.581815 l -2.175,1.368227 -0.18608,-1.311263 c -0.17284,-1.21711 -0.53556,-1.323463 -5.0569,-1.482611 l -4.87047,-0.171921 v 24.25272 24.252601 l 4.87047,-0.17095 4.87054,-0.17094 z M 162.4801,79.811799 c 0,-4.851373 -0.22668,-8.82061 -0.50345,-8.82061 -0.5951,0 -6.18701,8.270856 -6.18701,9.150643 0,1.078905 5.6502,9.133628 6.17823,8.807384 0.28148,-0.174662 0.51291,-4.286043 0.51291,-9.137417 z"
       id="path14310" />
    <path
       style="fill:#f4eed7;fill-opacity:1;stroke-width:0.0111565"
       d="m 91.636515,90.178019 v -3.394551 h 6.936794 6.936701 v 3.394551 3.394636 h -6.936701 -6.936794 z"
       id="path14349" />
    <path
       style="fill:#fff6d5;fill-opacity:1;stroke-width:0.0111565"
       d="m 3.5799255,200.19094 -0.7934487,-0.8284 V 118.36746 37.372286 L 3.5799255,36.543888 4.373373,35.716435 H 9.2810426 14.18871 l 0.793452,0.827453 0.793448,0.828398 v 74.972414 74.97233 l 1.265741,1.24222 1.265645,1.24223 h 75.106184 75.10613 l 1.11336,1.21796 1.11338,1.21802 v 3.59725 c 0,3.55598 -0.01,3.6064 -0.82744,4.3904 l -0.82746,0.79346 H 86.732999 4.3747904 Z"
       id="path14388" />
    <path
       style="fill:#ffeeaa;fill-opacity:1;stroke-width:0.00278913"
       d="m 180.70848,115.79242 -0.17851,-0.75329 -0.0714,-8.94589 c -0.0356,-7.638864 -0.0356,-8.950513 0.0356,-8.978715 0.0714,-0.01968 0.42127,-0.07143 0.80328,-0.07143 l 0.69971,-0.03556 -0.1785,0.14282 c -0.10712,0.07143 -0.24989,0.178609 -0.35701,0.214208 -0.40699,0.178609 -0.52122,0.971053 -0.60691,4.350827 -0.0356,1.56368 -0.0356,5.0752 0.003,8.70204 0.0357,3.34518 0.0714,6.09235 0.0357,6.10519 -0.01,0.01 -0.10711,-0.32131 -0.21422,-0.73188 z"
       id="path21444" />
    <path
       style="fill:#ffeeaa;fill-opacity:1;stroke-width:0.00139457"
       d="m 182.51555,94.274763 c 0,-0.0095 1.54061,-1.931388 3.42353,-4.27093 1.88296,-2.339435 3.55391,-4.415918 3.71319,-4.614466 0.15967,-0.198377 0.27958,-0.37123 0.26731,-0.383516 -0.01,-0.0095 -2.13591,-0.140682 -4.71867,-0.285237 l -4.696,-0.262602 -0.01,-0.08499 c -0.01,-0.09726 -0.18137,-6.036642 -0.17098,-6.05241 0.003,-0.0063 1.43029,0.05661 3.16963,0.139868 1.73935,0.08498 3.24257,0.145433 3.34042,0.139866 l 0.1776,-0.0095 4.98483,-4.916646 4.98474,-4.916646 h 0.22481 0.22483 l -4.91977,4.943853 -4.91976,4.943853 -3.40636,4.66e-4 -3.40625,4.65e-4 0.0189,2.020103 c 0.0188,2.211748 0.0284,2.28957 0.24559,2.764783 0.43261,0.926634 1.44635,1.153795 5.14929,1.155521 1.36492,5.39e-4 2.57626,0.0472 3.26543,0.12939 0.54976,0.06614 0.73771,0.112353 0.73771,0.188049 0,0.509108 -3.9628,5.431055 -7.00106,8.695325 -0.60357,0.648933 -0.67348,0.718852 -0.67348,0.674458 z"
       id="path22704" />
    <path
       style="fill:#ffeeaa;fill-opacity:1;stroke-width:0.00139457"
       d="m 171.40935,77.086202 c 0,-0.04719 0.35044,-0.558241 0.62058,-0.910581 0.61397,-0.801001 0.97501,-1.202349 6.09417,-6.763874 l 1.78932,-1.944024 2.87823,4.65e-4 c 4.24061,6.46e-4 7.58897,0.10286 10.25779,0.313598 1.17157,0.0944 3.65562,0.331548 3.57136,0.342891 -0.0472,0.0063 -1.18223,-0.01968 -2.5275,-0.06603 -4.96038,-0.1548 -13.12081,-0.40522 -13.48797,-0.413718 l -0.37878,-0.0074 -4.30088,4.628361 c -4.63884,4.99212 -4.51699,4.862041 -4.51699,4.819839 z"
       id="path22743" />
    <path
       style="fill:#ffeeaa;fill-opacity:1;stroke-width:0.00139457"
       d="m 168.67893,84.37384 c 0,-0.01968 0.0567,-0.08498 0.12382,-0.1492 0.15395,-0.149371 0.40333,-0.226727 0.72922,-0.226727 0.54503,0 0.80289,-0.119063 0.96677,-0.446789 0.18136,-0.361759 0.20876,-0.641355 0.2456,-2.449387 0.0472,-2.249601 0.0755,-2.599496 0.25504,-3.121567 0.0567,-0.172885 0.0754,-0.187055 0.0849,-0.106786 0.01,0.0472 0.0472,1.271122 0.0755,2.711903 0.0284,1.440853 0.0662,2.88956 0.085,3.219402 l 0.0189,0.599808 h -1.29689 c -0.71317,0 -1.29702,-0.0095 -1.29702,-0.02836 z"
       id="path22782" />
    <path
       style="fill:#ffeeaa;fill-opacity:1;stroke-width:0.00139457"
       d="m 168.94444,93.064193 c -0.003,-0.01968 -0.0472,-0.237088 -0.1011,-0.492122 -0.31173,-1.539674 -0.44208,-3.406743 -0.41184,-5.884383 0.0189,-1.563653 0.0472,-1.847969 0.18608,-2.174224 l 0.0567,-0.127422 0.003,0.125783 c 0.002,0.06614 0.0662,1.920235 0.15199,4.114024 0.12562,3.356381 0.15774,4.604741 0.11611,4.439625 z"
       id="path22858" />
    <path
       style="fill:#ffeeaa;fill-opacity:1;stroke-width:0.00139457"
       d="m 171.1782,121.67017 c -0.11432,-0.88979 -0.15592,-1.42535 -0.21064,-2.71199 -0.11612,-2.7408 -0.1738,-6.35268 -0.22387,-14.20557 -0.0379,-5.497834 -0.0567,-6.626588 -0.14642,-7.877682 -0.10857,-1.508898 -0.28714,-2.208733 -0.58091,-2.270787 -0.0567,-0.0095 -0.13512,-0.02836 -0.17475,-0.03789 -0.0379,-0.0084 -0.10678,-0.03778 -0.1474,-0.06614 -0.0662,-0.0472 0.005,-0.05672 0.7292,-0.05672 l 0.80291,-0.0011 -2.7e-4,2.186245 c -2.1e-4,1.202348 0.0188,6.752244 0.0378,12.333004 0.0188,5.58079 0.0379,10.90237 0.0284,11.82569 l -0.01,1.67892 z"
       id="path22936" />
    <path
       style="fill:#ffeeaa;fill-opacity:1;stroke-width:0.00139457"
       d="m 180.85825,122.93777 c -0.0472,-0.91435 -0.28339,-8.15477 -0.27111,-8.21474 0.006,-0.0284 0.0984,0.30604 0.20404,0.75377 l 0.19269,0.81328 0.0379,2.9318 c 0.0189,1.61249 0.0379,3.2182 0.0472,3.56835 l 0.009,0.63665 h -0.0973 l -0.0973,-1e-4 z"
       id="path23051" />
    <path
       style="fill:#ffeeaa;fill-opacity:1;stroke-width:0.00139457"
       d="m 153.48335,112.4897 c -0.24275,-9.30537 -0.28338,-11.16373 -0.34289,-15.817678 -0.0756,-6.22866 0.0378,-11.161751 0.31456,-12.85218 l 0.0472,-0.283374 0.019,0.203097 c 0.0188,0.181361 0.10862,33.360045 0.0849,33.379895 -0.004,0.003 -0.0662,-2.07885 -0.1294,-4.62958 z"
       id="path23285" />
    <path
       style="fill:#ffeeaa;fill-opacity:1;stroke-width:0.00139457"
       d="m 162.40634,123.20068 c 0,-0.01 0.0662,-0.14723 0.14168,-0.30417 l 0.14166,-0.28525 -0.0944,-13.81819 -0.0945,-13.818176 -3.72392,-5.678069 c -2.04812,-3.122902 -3.71721,-5.684779 -3.70899,-5.693001 0.0284,-0.02836 0.86052,1.079847 1.57,2.072875 0.93701,1.31174 1.45947,2.093301 4.0939,6.124963 l 2.33861,3.579109 -0.0188,1.402132 c -0.01,0.7708 -0.0849,7.034957 -0.1605,13.919647 l -0.13986,12.51759 h -0.17569 c -0.0964,0 -0.17569,-0.009 -0.17569,-0.0196 z"
       id="path23324" />
    <path
       style="fill:#ffeeaa;fill-opacity:1;stroke-width:0.00139457"
       d="m 155.87541,79.882913 c 0,-0.05672 0.443,-0.891671 0.7245,-1.372947 0.87656,-1.497904 2.46959,-3.899701 3.60404,-5.434082 0.52047,-0.704658 1.03584,-1.363041 1.05275,-1.346215 0.0189,0.01968 -5.34276,8.172324 -5.3675,8.172324 -0.007,0 -0.01,-0.0084 -0.01,-0.01968 z"
       id="path23363" />
    <path
       style="fill:#ffeeaa;fill-opacity:1;stroke-width:0.00139457"
       d="m 161.03396,88.122425 c -1.24836,-1.411774 -3.66865,-4.888698 -4.70761,-6.762932 -0.24842,-0.448682 -0.46474,-0.931354 -0.50441,-1.127256 -0.0189,-0.08498 0.92664,1.299177 2.72833,3.99962 1.51482,2.269951 2.74695,4.134353 2.73798,4.143328 -0.009,0.0095 -0.12384,-0.104876 -0.25411,-0.253141 z"
       id="path23402" />
    <path
       style="fill:#9100ff;fill-opacity:1;stroke-width:0.00139457"
       d="m 162.45328,79.274691 c 0,-0.09429 0.006,-0.128396 0.0188,-0.08498 0.009,0.0472 0.009,0.120047 0,0.166218 -0.009,0.04719 -0.0188,0.0084 -0.0188,-0.08499 z"
       id="path23441" />
    <path
       style="fill:#ffeeaa;fill-opacity:1;stroke-width:0.00139457"
       d="m 150.1194,84.550671 -0.71977,-0.06614 0.74717,-0.0063 0.74717,-0.0063 0.01,-4.787414 0.01,-4.78753 0.0849,0.516695 c 0.19647,1.208105 0.2645,2.970335 0.26543,6.890629 l 9.4e-4,2.31536 -0.21252,-0.0063 c -0.1162,-0.0032 -0.53558,-0.03789 -0.93136,-0.06614 z"
       id="path23517" />
    <path
       style="fill:#ffeeaa;fill-opacity:1;stroke-width:0.00139457"
       d="m 133.16482,78.384629 c 0.0188,-0.204971 0.16342,-2.33605 0.16908,-2.526204 l 0.003,-0.10759 0.0284,0.09736 c 0.0189,0.05661 0.0756,0.426967 0.13131,0.830293 0.0567,0.402384 0.11239,0.744332 0.12469,0.759433 0.01,0.01968 0.48739,-0.266379 1.05537,-0.623417 1.51493,-0.954975 2.17338,-1.343179 2.89552,-1.707139 1.83721,-0.926635 3.30992,-1.365094 5.35022,-1.594923 0.70937,-0.07555 2.72616,-0.05661 3.72666,0.03778 1.38795,0.135137 2.35408,0.268263 3.15074,0.435454 0.61398,0.128449 0.81235,0.207796 0.91058,0.36743 0.0472,0.07555 0.0756,0.137889 0.0567,0.148324 -0.01,0.0095 -0.1823,-0.02836 -0.38255,-0.0944 -1.82607,-0.558242 -3.30415,-0.805722 -5.04926,-0.842569 -1.69817,-0.03778 -3.14027,0.136903 -4.67644,0.562982 -2.57899,0.714099 -5.14231,2.169133 -7.04914,4.001428 l -0.47134,0.452462 z"
       id="path23593" />
    <path
       style="fill:#ffeeaa;fill-opacity:1;stroke-width:0.00139457"
       d="m 133.34694,105.71193 c 0.007,-12.241003 -0.009,-11.30804 0.22669,-12.710174 0.58187,-3.465854 1.98504,-6.133174 4.04509,-7.686814 2.10461,-1.587473 4.80262,-2.062982 8.18395,-1.442579 0.67254,0.123655 2.11368,0.482672 1.97238,0.492144 -0.0188,0.0011 -0.44491,-0.02836 -0.94081,-0.06614 -2.71756,-0.217256 -3.08029,-0.237066 -4.2969,-0.239901 -1.32222,-0.0021 -1.61362,0.02836 -2.25037,0.227637 -0.65743,0.206854 -1.67796,0.778322 -2.34342,1.31305 -0.80761,0.648933 -1.75928,1.695435 -2.371,2.608291 -0.39955,0.596962 -0.88978,1.573663 -1.07624,2.147027 -0.54031,1.660957 -0.70656,4.107051 -0.89076,13.110129 -0.0284,1.60324 -0.10582,5.27267 -0.16246,8.15439 l -0.103,5.2395 z"
       id="path23817" />
    <path
       style="fill:#9100ff;fill-opacity:1;stroke-width:0.000147638"
       d=""
       id="path23856"
       transform="scale(0.26458333)" />
    <path
       style="fill:#9100ff;fill-opacity:1;stroke-width:0.000147638"
       d=""
       id="path23895"
       transform="scale(0.26458333)" />
    <path
       style="fill:#ffeeaa;fill-opacity:1;stroke-width:0.00139457"
       d="m 123.52525,107.75055 0.01,-15.211074 0.01,14.694464 c 0.009,12.88779 0.0188,14.69459 0.0662,14.69459 0.0284,0 0.0472,0.0196 0.0378,0.0472 -0.01,0.0284 0.13981,0.21633 0.33627,0.42413 l 0.35517,0.37593 2.146,0.003 2.14609,0.006 -2.23233,0.085 c -1.22777,0.0472 -2.37761,0.0849 -2.55519,0.0849 l -0.32305,0.002 z"
       id="path23934" />
    <path
       style="fill:#9100ff;fill-opacity:1;stroke-width:0.00139457"
       d="m 132.91376,122.309 0.32493,-0.35423 0.01,0.324 c 0.006,0.17762 0.006,0.32777 0,0.33249 -0.006,0.003 -0.15681,0.0197 -0.33533,0.0284 l -0.32494,0.0196 z"
       id="path23973" />
    <path
       style="fill:#ffeeaa;fill-opacity:1;stroke-width:0.00139457"
       d="m 132.84385,122.41744 c 0.1011,-0.11726 0.22765,-0.25221 0.28054,-0.30132 l 0.0964,-0.085 v 0.27866 0.27866 l -0.11527,0.0196 c -0.0662,0.01 -0.18986,0.0197 -0.28053,0.0197 h -0.1653 z"
       id="path24012" />
    <path
       style="fill:#ffeeaa;fill-opacity:1;stroke-width:0.00139457"
       d="m 123.52525,83.637931 -0.01,-9.122971 h 0.443 c 0.2437,0 0.44301,0.0095 0.44207,0.02836 -2.8e-4,0.01968 -0.1908,0.232378 -0.42412,0.481731 l -0.42412,0.454343 -0.01,8.640849 -0.01,8.640848 z"
       id="path24051" />
    <path
       style="fill:#ffeeaa;fill-opacity:1;stroke-width:0.00139457"
       d="m 99.052966,106.24695 v -0.1474 h 3.538944 3.53897 l 5.48254,-5.80039 5.48244,-5.800378 -7.5e-4,-4.134355 -7.5e-4,-4.134333 -5.37712,-5.688079 c -2.9574,-3.128361 -5.41727,-5.731055 -5.4665,-5.783681 l -0.0849,-0.09545 h 0.26258 0.2626 l 5.46328,5.817682 5.46327,5.817588 v 4.008043 4.007968 l -5.65455,6.037745 -5.65465,6.03777 -3.62512,0.002 -3.625184,0.002 z"
       id="path24164" />
    <path
       style="fill:#fff6d5;fill-opacity:1;stroke-width:0.00139457"
       d="m 59.321602,96.284548 c -0.06613,-0.201192 -8.457126,-29.072347 -8.457126,-29.093511 0,-0.0095 0.06613,-0.01968 0.147353,-0.01968 0.08502,0 0.147354,0.0074 0.147354,0.01968 0,0.01968 1.239196,4.281999 3.067908,10.551739 2.342186,8.030551 4.634215,15.798608 5.054554,17.130199 0.01889,0.06603 0.05666,0.111529 0.06612,0.100106 0.107668,-0.06614 2.264446,-7.24533 6.311413,-21.009677 1.094392,-3.722414 1.996373,-6.774446 2.004213,-6.782383 0.0078,-0.0074 0.06612,-0.0095 0.138854,-0.0021 l 0.124685,0.0095 -4.232197,14.427006 c -2.327645,7.93481 -4.255536,14.509969 -4.284155,14.611412 l -0.05666,0.184122 z"
       id="path24203" />
    <path
       style="fill:#fff6d5;fill-opacity:1;stroke-width:0.00139457"
       d="m 50.852574,67.14458 c -0.02835,-0.0472 -6.454803,-22.157732 -6.470578,-22.258521 -0.01888,-0.135136 0.184193,0.26637 0.376891,0.735834 0.385388,0.940799 0.729216,2.092521 4.869414,16.329555 0.743386,2.556988 1.391181,4.777794 1.438881,4.93506 l 0.08502,0.28622 h -0.142636 c -0.07556,0 -0.150186,-0.0095 -0.158703,-0.02836 z"
       id="path24279" />
    <path
       style="fill:#fff6d5;fill-opacity:1;stroke-width:0.00139457"
       d="m 35.369834,64.60789 c -0.0013,-0.01968 0.05666,-0.194537 0.122801,-0.388225 1.732646,-4.847216 6.263619,-15.857065 7.827468,-19.020107 0.396726,-0.802892 0.54219,-1.05518 0.583752,-1.014089 0.01889,0.01967 -8.324508,20.032226 -8.477907,20.348566 -0.02835,0.05661 -0.05666,0.0944 -0.05666,0.07555 z"
       id="path24318" />
    <path
       style="fill:#fff6d5;fill-opacity:1;stroke-width:0.00139457"
       d="M 47.546913,111.31105 C 42.404987,93.19407 41.751526,90.884943 41.751147,90.832994 c -5.67e-4,-0.07555 0.249369,-0.05672 0.27204,0.01968 0.0095,0.03789 2.079592,7.320528 4.597753,16.188906 2.518256,8.8683 4.611829,16.23631 4.652446,16.37329 l 0.07556,0.24937 h 7.947335 c 7.537009,0 7.948469,-0.003 7.966982,-0.0661 0.0095,-0.0379 2.129374,-7.3787 4.708272,-16.31804 2.578802,-8.939398 4.706096,-16.307431 4.727162,-16.37336 0.03778,-0.108586 0.05666,-0.120046 0.186078,-0.120046 0.123737,0 0.14357,0.0095 0.12657,0.06603 -0.0095,0.03789 -0.699939,2.430592 -1.530224,5.322535 -2.41832,8.421591 -4.937616,17.105511 -7.300394,25.164221 l -0.805728,2.74882 -8.09743,0.01 -8.097336,0.01 z"
       id="path24579" />
    <path
       style="fill:#9100ff;fill-opacity:1;stroke-width:0.00139457"
       d="m 32.349061,108.70069 c 7.53e-4,-0.0566 0.009,-0.085 0.01888,-0.0472 0.0095,0.0379 0.0089,0.0849 -0.0013,0.11054 -0.0095,0.0284 -0.01888,-0.003 -0.01888,-0.0662 z"
       id="path24655" />
    <path
       style="fill:#9100ff;fill-opacity:1;stroke-width:0.000147638"
       d=""
       id="path24805"
       transform="scale(0.26458333)" />
    <path
       style="fill:#ffeeaa;fill-opacity:1;stroke-width:0.00139457"
       d="M 154.04896,4.9962625 C 143.6732,4.9490332 114.46729,4.8895116 98.010531,4.8895116 L 81.637264,4.8893233 V 4.7599209 4.6305175 l 12.57286,6.604e-4 c 12.972636,6.614e-4 42.910796,0.047228 57.689526,0.094448 l 8.40348,0.02835 v 0.1426209 0.1426197 l -0.34098,-0.00656 c -0.18798,-0.0036 -2.84849,-0.018879 -5.91291,-0.03778 z"
       id="path24955" />
    <path
       style="fill:#ffeeaa;fill-opacity:1;stroke-width:0.00139457"
       d="m 204.47349,10.156983 c -0.35232,-0.9228544 -1.04707,-1.8716878 -1.91476,-2.6162074 -1.16655,-1.0010663 -1.98211,-1.3676588 -3.67896,-1.6536782 -1.70298,-0.2871539 -4.80008,-0.5214106 -7.80393,-0.5913093 -4.0958,-0.094448 -22.05685,-0.2588143 -28.32822,-0.2597593 h -2.44449 V 4.886792 4.7375551 l 3.73592,0.018879 c 2.05474,0.00952 7.23108,0.03779 11.50285,0.056668 12.36788,0.056668 19.64388,0.1350703 20.88413,0.2219769 3.73641,0.2607043 6.24643,1.4799718 7.74736,3.7623649 0.40335,0.6130347 0.4109,0.6347597 0.39863,1.1450214 l -0.01,0.4430087 z"
       id="path24994" />
    <path
       style="fill:#9100ff;fill-opacity:1;stroke-width:0.00139457"
       d="m 205.063,23.869673 c 0.002,-0.04723 0.01,-0.04723 0.0197,-0.01889 0.01,0.02835 0.01,0.05666 -0.002,0.0661 -0.01,0.0095 -0.0197,-0.0095 -0.0197,-0.04723 z"
       id="path25181" />
    <path
       style="fill:#fff6d5;fill-opacity:1;stroke-width:0.00139457"
       d="m 178.99189,172.95723 c -3.8761,-0.01 -8.10604,-0.0284 -9.39974,-0.0284 l -2.3522,-0.006 v -0.20876 -0.20782 l 13.10788,0.0284 13.10796,0.0284 1.85536,-0.86806 c 1.94705,-0.91154 2.56842,-1.23507 3.32871,-1.73519 1.97105,-1.29665 3.19022,-2.9391 3.89356,-5.24528 0.36839,-1.20879 0.6697,-2.97054 0.75283,-4.40687 0.11628,-1.99238 0.35706,-12.61007 0.46286,-20.38607 0.01,-0.83216 0.0284,-1.73274 0.0379,-2.00166 l 0.0197,-0.48929 h 0.14921 0.14937 l -0.0284,2.00177 c -0.16817,13.22357 -0.30983,21.21946 -0.39294,22.24009 -0.35704,4.34489 -2.43334,7.5152 -6.21244,9.48408 -1.65206,0.8605 -3.44054,1.40551 -5.771,1.75825 -0.49497,0.0755 -2.74099,0.085 -12.71776,0.0472 z"
       id="path25553" />
    <path
       style="fill:#fff6d5;fill-opacity:1;stroke-width:0.00139457"
       d="m 203.80588,136.95513 c 7e-5,-0.25881 0.0284,-2.59581 0.0755,-5.19342 0.0965,-6.27786 0.2097,-14.76665 0.30792,-23.00567 l 0.0756,-6.73383 0.12578,-0.01 0.12563,-0.01 -0.0284,2.66875 c -0.0198,2.44788 -0.0567,5.73615 -0.28053,24.97324 -0.0379,3.62248 -0.0849,6.85605 -0.0972,7.1859 l -0.0197,0.59981 h -0.14362 -0.14365 l 2.8e-4,-0.47041 z"
       id="path25592" />
    <path
       style="fill:#ffeeaa;fill-opacity:1;stroke-width:0.00139457"
       d="m 204.28552,100.99827 c 1.9e-4,-0.55256 0.0284,-3.994131 0.0755,-7.64702 0.0379,-3.652877 0.0973,-9.273346 0.12839,-12.489934 0.0284,-3.216565 0.0661,-6.416929 0.0755,-7.112032 l 0.0196,-1.263758 h 0.12464 c 0.12005,0 0.12463,0.0063 0.12366,0.138872 -3.8e-4,0.07555 -0.0284,3.127124 -0.0755,6.779927 -0.0378,3.652887 -0.10678,10.161726 -0.1492,14.463917 -0.0472,4.30229 -0.085,7.892908 -0.0965,7.979158 -0.0196,0.14461 -0.0284,0.15674 -0.1266,0.15674 h -0.10859 l 2.7e-4,-1.00542 z"
       id="path25668" />
    <path
       style="fill:#9100ff;fill-opacity:1;stroke-width:0.00139457"
       d="m 204.58042,72.087565 c 0,-0.431666 0.10386,-10.436497 0.22198,-21.297856 0.0379,-3.744235 0.0755,-7.035918 0.0755,-7.315036 v -0.507251 h 0.12939 c 0.12741,0 0.12938,0.002 0.12938,0.158736 0,0.294698 -0.18412,18.452305 -0.23994,23.676039 -0.0284,2.850659 -0.0567,5.295612 -0.0567,5.43314 v 0.250326 h -0.12939 -0.12939 z"
       id="path25707" />
    <path
       style="fill:#9100ff;fill-opacity:1;stroke-width:0.00139457"
       d="m 197.29316,68.463672 c 0.22481,-0.226694 0.27298,-0.257849 0.39295,-0.257849 0.27582,0 0.27864,0.02836 0.0284,0.281469 l -0.23236,0.235194 h -0.22105 -0.22103 z"
       id="path25783" />
    <path
       style="fill:#ffeeaa;fill-opacity:1;stroke-width:0.00139457"
       d="m 204.89564,41.6298 c 0.01,-0.735836 0.0662,-5.040194 0.11056,-9.56569 0.14937,-13.755664 0.16622,-15.118129 0.18706,-15.395649 l 0.0197,-0.267317 h 0.18136 c 0.1729,0 0.18135,0.0046 0.18135,0.102005 0,0.130353 -0.14167,1.003616 -0.17093,1.050187 -0.01,0.01888 -0.0661,4.977851 -0.12644,11.01855 -0.0568,6.040698 -0.1163,11.75098 -0.12939,12.689626 l -0.0284,1.706476 h -0.12562 -0.12579 z"
       id="path25822" />
    <path
       style="fill:#ffeeaa;fill-opacity:1;stroke-width:0.00139457"
       d="m 205.20755,15.524667 c -4.8e-4,-2.020556 -0.16622,-3.581007 -0.49782,-4.672658 -0.11905,-0.39389 -0.12939,-0.46379 -0.12644,-0.8803497 l 0.003,-0.452458 0.15968,0.329661 c 0.46661,0.9615827 0.80005,2.3664607 0.90775,3.8210237 0.0377,0.545969 0.0284,1.829845 -0.0284,2.462904 l -0.0198,0.267316 h -0.19838 -0.19835 l -2e-4,-0.876572 z"
       id="path25861" />
    <path
       style="fill:#fff6d5;fill-opacity:1;stroke-width:0.00139457"
       d="m 152.53622,172.88116 c -11.41386,-0.0377 -33.12745,-0.10206 -44.3419,-0.13217 l -9.141354,-0.0284 v -0.1294 -0.12937 l 9.968434,0.0284 c 5.48273,0.01 20.82482,0.0284 34.09355,0.0284 h 24.125 v 0.20309 0.20306 l -3.10871,-0.006 c -1.70968,-0.003 -6.92747,-0.0196 -11.59502,-0.0379 z"
       id="path25900" />
    <path
       style="fill:#fff6d5;fill-opacity:1;stroke-width:0.00139457"
       d="m 82.485875,172.67922 c -7.924665,-0.0284 -17.401469,-0.0472 -21.059364,-0.0472 l -6.650803,-0.003 v -0.17191 -0.17191 l 2.001662,0.0284 c 6.090098,0.0755 26.670751,0.16916 37.229859,0.16996 l 5.045737,3.6e-4 v 0.12938 0.1294 l -1.079267,-0.006 c -0.59319,-0.003 -7.563157,-0.0284 -15.487824,-0.0472 z"
       id="path25939" />
    <path
       style="fill:#fff6d5;fill-opacity:1;stroke-width:0.00139457"
       d="m 48.853555,172.58722 c -4.196117,-0.0197 -5.943594,-0.0379 -6.235658,-0.0662 -1.410168,-0.15575 -2.490579,-0.37406 -3.486833,-0.70465 -1.826349,-0.60454 -3.122694,-1.38478 -4.354995,-2.61923 -0.762278,-0.76417 -1.298422,-1.47742 -1.820115,-2.42324 -0.796283,-1.44387 -1.370116,-3.39539 -1.414229,-4.81085 -0.01888,-0.49969 0.201197,-21.4509 0.268261,-25.85614 l 0.02835,-1.63271 h 0.167196 0.167196 l -0.02835,0.56298 c -0.03779,0.90488 -0.02835,20.0631 0.0095,22.79362 0.06613,3.99112 0.138854,5.83647 0.279597,6.73722 0.05666,0.38729 0.285262,0.97897 0.593197,1.56055 1.269141,2.40133 3.864757,4.55089 6.545764,5.42066 0.546916,0.17763 0.897353,0.2456 1.641968,0.31927 1.680882,0.16719 5.653419,0.30699 10.515844,0.37028 0.852013,0.01 1.885952,0.0284 2.296848,0.0378 l 0.747162,0.0197 v 0.16248 c 0,0.10956 -0.01888,0.15968 -0.04723,0.15395 -0.02835,-0.003 -2.669485,-0.0197 -5.875963,-0.0284 z"
       id="path25978" />
    <path
       style="fill:#fff6d5;fill-opacity:1;stroke-width:0.00139457"
       d="m 31.825668,134.35385 c 1.88e-4,-0.0661 0.05666,-5.2838 0.128468,-11.59513 0.06612,-6.31142 0.12847,-11.57065 0.12847,-11.68742 l 2.83e-4,-0.21252 h 0.115253 0.115252 l -0.02835,2.72123 c -0.04723,5.14015 -0.09446,11.4356 -0.119022,16.16126 l -0.02835,4.73207 h -0.160589 c -0.15587,0 -0.159637,-0.002 -0.159637,-0.12007 z"
       id="path26017" />
    <path
       style="fill:#fff6d5;fill-opacity:1;stroke-width:0.00139457"
       d="m 32.096479,109.55856 c 0.0095,-0.71505 0.09917,-8.4487 0.190799,-17.185143 0.09445,-8.736427 0.176637,-16.121095 0.187967,-16.410226 0.01888,-0.484568 0.02835,-0.526136 0.09445,-0.526136 0.08501,0 0.08501,-0.861448 -0.0031,8.080608 -0.03779,3.967458 -0.10578,11.007522 -0.146402,15.644643 -0.03779,4.637144 -0.08502,9.165844 -0.09729,10.063844 l -0.01889,1.63272 h -0.111505 -0.111453 z"
       id="path26056" />
    <path
       style="fill:#fff6d5;fill-opacity:1;stroke-width:0.00139457"
       d="m 41.713834,90.759976 c 0,-0.0095 -0.422227,-1.522106 -0.938914,-3.361957 -2.858399,-10.18542 -5.521269,-19.97706 -5.472623,-20.123181 0.0066,-0.01968 1.487526,5.158442 3.290829,11.50737 1.803301,6.348812 3.307738,11.644889 3.34316,11.769019 l 0.06613,0.225755 h -0.14357 c -0.07556,0 -0.14357,-0.0084 -0.14357,-0.01968 z"
       id="path26095" />
    <path
       style="fill:#fff6d5;fill-opacity:1;stroke-width:0.00139457"
       d="m 32.489709,74.763942 c 9.5e-5,-0.370266 0.07556,-7.364719 0.165307,-15.543085 0.09445,-8.178388 0.165308,-15.181143 0.166251,-15.561619 l 2.84e-4,-0.692387 h 0.09823 0.09824 l -0.02835,1.669654 c -0.03779,2.270295 -0.153037,12.550567 -0.261652,22.51344 -0.09446,8.379876 -0.08502,8.283809 -0.213474,8.286359 -0.01888,3.81e-4 -0.02835,-0.302263 -0.02835,-0.67253 z"
       id="path26134" />
    <path
       style="fill:#ffeeaa;fill-opacity:1;stroke-width:0.00139457"
       d="m 32.846476,41.924989 c 0.02835,-1.544112 0.270151,-24.305239 0.270151,-24.961346 v -0.56297 h 0.147354 0.147354 l -1.89e-4,0.230477 c -9.5e-5,0.126569 -0.01889,1.010987 -0.03778,1.964733 -0.07556,3.425054 -0.24937,15.217312 -0.312657,20.736599 -0.0095,0.974055 -0.02835,2.190294 -0.03779,2.702737 l -0.0189,0.931357 h -0.08502 -0.08501 z"
       id="path26210" />
    <path
       style="fill:#ffeeaa;fill-opacity:1;stroke-width:0.00139457"
       d="m 33.136465,15.32177 c 0.02835,-1.82446 0.04723,-2.352387 0.108618,-2.848008 0.313601,-2.6415247 1.405538,-4.6353485 3.265799,-5.9612589 1.31401,-0.9360789 2.89779,-1.5165275 4.962741,-1.8173759 l 0.553524,-0.085018 14.998927,-0.00952 c 8.249413,-0.0071 16.198543,-0.00147 17.664726,0.00952 l 2.665893,0.02835 v 0.1246856 0.1246859 l -4.824358,4.72e-4 c -6.081788,5.671e-4 -17.752101,0.056668 -21.4099,0.1105032 -7.544,0.1020032 -10.486372,0.2616492 -11.902112,0.6460952 -0.837844,0.2276439 -1.974178,0.8378449 -2.804939,1.5076468 -1.887746,1.521344 -2.859248,3.9800901 -2.946811,7.4584211 -0.0095,0.466623 -0.02835,1.060387 -0.04724,1.319109 l -0.01888,0.470402 h -0.142636 -0.14262 z"
       id="path26249" />
    <path
       style="fill:#ffeeaa;fill-opacity:1;stroke-width:0.00139457"
       d="M 77.357078,4.7597368 V 4.6303343 h 2.140045 2.140141 v 0.1294025 0.1294033 h -2.140141 -2.140045 z"
       id="path26288" />
    <path
       style="fill:#ffeeaa;fill-opacity:1;stroke-width:0.00260989"
       d="m 345.33604,340.77851 v -13.7071 h 26.72366 26.72367 v 0.44885 0.44885 h -26.24029 -26.24029 v 12.87846 12.87846 h 26.24029 26.24029 v 0.37979 0.37979 H 372.0597 345.33604 Z"
       id="path28199"
       transform="scale(0.26458333)" />
    <path
       style="fill:#ffeeaa;fill-opacity:1;stroke-width:0.00521979"
       d="m 300.65849,326.418 c 0,-0.3844 -0.0377,-0.41691 -0.48337,-0.41691 -0.44069,0 -0.48338,-0.0352 -0.48338,-0.39828 0,-0.34284 2.64674,-3.10597 19.01661,-19.85285 26.25823,-26.86299 23.50126,-24.11012 24.0926,-24.0568 l 0.4957,0.0447 -20.43359,21.61371 c -11.23847,11.88755 -20.83205,22.03438 -21.31907,22.54853 -0.87074,0.91922 -0.8855,0.92785 -0.8855,0.5179 z"
       id="path28238"
       transform="scale(0.26458333)" />
    <path
       style="fill:#ffeeaa;fill-opacity:1;stroke-width:0.00521979"
       d="m 290.07836,342.88464 c 0.04,-0.13293 5.95122,-20.62625 13.13607,-45.54071 7.18485,-24.91447 13.12263,-45.4544 13.19506,-45.6443 0.9676,-2.53673 -3.91633,15.63665 -11.00458,40.94867 -3.39135,12.11043 -13.59449,48.15175 -14.22168,50.23634 -0.0535,0.17778 -0.2188,0.24169 -0.62515,0.24169 -0.46175,0 -0.54049,-0.0397 -0.47972,-0.24169 z"
       id="path28277"
       transform="scale(0.26458333)" />
    <path
       style="fill:#ffeeaa;fill-opacity:1;stroke-width:0.00521979"
       d=""
       id="path28316"
       transform="scale(0.26458333)" />
    <path
       style="fill:#ffeeaa;fill-opacity:1;stroke-width:0.00521979"
       d=""
       id="path28392"
       transform="scale(0.26458333)" />
    <path
       style="fill:#ffeeaa;fill-opacity:1;stroke-width:0.00521979"
       d="m 256.07851,253.81246 c -0.22048,-0.0432 -0.29484,-0.1323 -0.24468,-0.29331 0.0396,-0.12721 0.73004,-2.46862 1.53423,-5.20313 8.90006,-30.26312 22.4914,-74.52864 22.09273,-71.95364 -0.0353,0.22787 -5.15284,17.75362 -11.37236,38.94611 -7.86346,26.79411 -11.36684,38.53701 -11.50069,38.54889 -0.10586,0.009 -0.33501,-0.0108 -0.50923,-0.0449 z"
       id="path28431"
       transform="scale(0.26458333)" />
    <path
       style="fill:#ffeeaa;fill-opacity:1;stroke-width:0.00521979"
       d=""
       id="path28544"
       transform="scale(0.26458333)" />
    <path
       style="fill:#ffeeaa;fill-opacity:1;stroke-width:0.00521979"
       d=""
       id="path28657"
       transform="scale(0.26458333)" />
    <path
       style="fill:#ffeeaa;fill-opacity:1;stroke-width:0.00521979"
       d="m 307.77953,225.95866 c -5.00858,-12.01025 -9.24504,-22.14756 -9.41436,-22.52735 -1.05471,-2.36585 -11.67403,-27.9941 -11.62143,-28.0467 0.0834,-0.0834 2.88315,5.80246 5.52339,11.61199 8.68739,19.11553 18.96871,43.80759 23.00204,55.24272 0.93378,2.64741 1.73204,5.25709 1.66295,5.43651 -0.0254,0.0658 -4.14401,-9.70692 -9.15259,-21.71717 z"
       id="path28696"
       transform="scale(0.26458333)" />
    <path
       style="fill:#ffeeaa;fill-opacity:1;stroke-width:0.00521979"
       d=""
       id="path28920"
       transform="scale(0.26458333)" />
    <path
       style="fill:#ffeeaa;fill-opacity:1;stroke-width:0.00521979"
       d=""
       id="path28959"
       transform="scale(0.26458333)" />
    <path
       style="fill:#ffeeaa;fill-opacity:1;stroke-width:0.00521979"
       d="m 344.99077,410.17718 v -9.1841 h 14.63932 14.63932 v 0.55242 0.55243 h -14.01784 -14.01784 v 7.8567 7.85669 l 35.66608,0.0723 c 37.306,0.0756 46.8112,0.20713 57.34885,0.7933 2.80136,0.15583 7.42783,0.54245 7.51531,0.62803 0.0317,0.031 -22.85437,0.0563 -50.85783,0.0563 h -50.91537 z"
       id="path29035"
       transform="scale(0.26458333)" />
    <path
       style="fill:#ffeeaa;fill-opacity:1;stroke-width:0.00260989"
       d="m 320.91002,444.30641 -21.4222,-22.52826 0.0152,-9.39126 0.0152,-9.39127 0.0349,8.62354 0.0349,8.62354 22.26972,23.22387 22.26972,23.22386 29.55486,0.002 29.55485,0.002 1.69181,-1.79292 c 0.93049,-0.9861 1.87048,-1.98673 2.08887,-2.22362 l 0.39705,-0.4307 v 0.73772 0.73772 l -1.50068,1.55683 -1.50069,1.55682 -31.04072,-4.1e-4 -31.04073,-4e-4 z"
       id="path29113"
       transform="scale(0.26458333)" />
    <path
       style="fill:#ffeeaa;fill-opacity:1;stroke-width:0.00369095"
       d="m 407.42188,462.97341 v -0.69699 l 19.63904,-20.78665 c 10.80147,-11.43265 19.91641,-21.06817 20.25542,-21.41226 0.60734,-0.61642 0.62081,-0.62378 0.9176,-0.50085 0.16567,0.0686 0.30122,0.15855 0.30122,0.19984 0,0.59165 -9.11721,10.61956 -19.9707,21.96557 -3.65843,3.82443 -19.24956,20.00857 -20.37294,21.14782 l -0.76964,0.78051 z"
       id="path29152"
       transform="scale(0.26458333)" />
    <path
       style="fill:#ffeeaa;fill-opacity:1;stroke-width:0.00184547"
       d="m 681.70079,366.43067 c 0,-0.094 0.01,-0.13245 0.0223,-0.0855 0.0123,0.047 0.0123,0.1239 0,0.1709 -0.0123,0.047 -0.0223,0.009 -0.0223,-0.0854 z"
       id="path29865"
       transform="scale(0.26458333)" />
    <path
       style="fill:#ffeeaa;fill-opacity:1;stroke-width:0.0147638"
       d=""
       id="path30163"
       transform="scale(0.26458333)" />
    <path
       style="fill:#ffeeaa;fill-opacity:1;stroke-width:0.00738189"
       d="m 681.87006,363.64523 -0.0341,-4.90947 0.83008,-0.11389 c 0.45654,-0.0627 1.79687,-0.17266 2.97851,-0.24448 l 2.14844,-0.13059 -0.36761,0.41269 c -0.20218,0.22698 -0.75605,0.60073 -1.23082,0.83056 -0.47478,0.22984 -0.99251,0.61519 -1.15052,0.85635 -0.37855,0.57774 -0.82872,2.73569 -0.9885,4.73856 l -0.12832,1.60839 -0.93791,0.12442 c -0.93304,0.12377 -0.93829,0.1286 -1.0115,0.93067 -0.0405,0.44344 -0.089,-1.40301 -0.10773,-4.10321 z"
       id="path30319"
       transform="scale(0.26458333)" />
  </g>
</svg>
