<?xml version="1.0" encoding="UTF-8"?>
<svg id="Capa_2" data-name="Capa 2" xmlns="http://www.w3.org/2000/svg" viewBox="0 0 18.5 18.5">
  <g id="Capa_1-2" data-name="Capa 1">
    <g>
      <path d="M12.1,18.5H6.4c-3.5,0-6.4-2.9-6.4-6.4V6.4C0,2.9,2.9,0,6.4,0h5.7c3.5,0,6.4,2.9,6.4,6.4v5.7c0,3.5-2.9,6.4-6.4,6.4ZM6.4,1.7C3.8,1.7,1.7,3.8,1.7,6.4v5.7c0,2.6,2.1,4.7,4.7,4.7h5.7c2.6,0,4.7-2.1,4.7-4.7V6.4c0-2.6-2.1-4.7-4.7-4.7H6.4Z" fill="#96827a"/>
      <g>
        <path d="M6.8,11.5c-.2,.1-.7,.2-1.3,.2-1.7,0-2.6-1.1-2.6-2.5s1.2-2.7,2.8-2.7,1,.1,1.2,.2l-.2,.9c-.2,0-.5-.2-1-.2-.9,0-1.6,.5-1.6,1.7s.6,1.6,1.6,1.6,.7,0,1-.2l.2,.9Z" fill="#96827a"/>
        <path d="M8.8,10.4l-.4,1.3h-1.2l1.5-5h1.5l1.6,5h-1.2l-.4-1.3h-1.4Zm1.3-.8l-.3-1.1c0-.3-.2-.7-.3-1h0c0,.3-.2,.7-.2,1l-.3,1.1h1.1Z" fill="#96827a"/>
        <path d="M12.6,6.6h1.1v4.1h2v1h-3.1V6.6Z" fill="#96827a"/>
      </g>
    </g>
  </g>
</svg>