<?xml version="1.0" encoding="UTF-8" standalone="no"?>
<!-- Created with Inkscape (http://www.inkscape.org/) -->

<svg
   width="210mm"
   height="297mm"
   viewBox="0 0 210 297"
   version="1.1"
   id="svg6813"
   inkscape:version="1.1.2 (b8e25be833, 2022-02-05)"
   sodipodi:docname="Trazit - cal brown.svg"
   xmlns:inkscape="http://www.inkscape.org/namespaces/inkscape"
   xmlns:sodipodi="http://sodipodi.sourceforge.net/DTD/sodipodi-0.dtd"
   xmlns="http://www.w3.org/2000/svg"
   xmlns:svg="http://www.w3.org/2000/svg">
  <sodipodi:namedview
     id="namedview6815"
     pagecolor="#505050"
     bordercolor="#eeeeee"
     borderopacity="1"
     inkscape:pageshadow="0"
     inkscape:pageopacity="0"
     inkscape:pagecheckerboard="0"
     inkscape:document-units="mm"
     showgrid="false"
     showguides="true"
     inkscape:guide-bbox="true"
     inkscape:lockguides="true"
     inkscape:zoom="0.90509668"
     inkscape:cx="291.12912"
     inkscape:cy="361.28737"
     inkscape:window-width="1920"
     inkscape:window-height="1017"
     inkscape:window-x="-8"
     inkscape:window-y="-8"
     inkscape:window-maximized="1"
     inkscape:current-layer="layer1" />
  <defs
     id="defs6810">
    <linearGradient
       id="linearGradient46545"
       inkscape:swatch="solid">
      <stop
         style="stop-color:#000000;stop-opacity:1;"
         offset="0"
         id="stop46543" />
    </linearGradient>
    <linearGradient
       id="linearGradient46502"
       inkscape:swatch="solid">
      <stop
         style="stop-color:#000000;stop-opacity:1;"
         offset="0"
         id="stop46500" />
    </linearGradient>
    <linearGradient
       id="linearGradient46459"
       inkscape:swatch="solid">
      <stop
         style="stop-color:#000000;stop-opacity:1;"
         offset="0"
         id="stop46457" />
    </linearGradient>
    <linearGradient
       id="linearGradient31882"
       inkscape:swatch="solid">
      <stop
         style="stop-color:#000000;stop-opacity:1;"
         offset="0"
         id="stop31880" />
    </linearGradient>
  </defs>
  <g
     inkscape:label="Capa 1"
     inkscape:groupmode="layer"
     id="layer1">
    <path
       style="font-variation-settings:normal;opacity:1;fill:none;fill-opacity:1;stroke:#000000;stroke-width:3.60263;stroke-linecap:butt;stroke-linejoin:miter;stroke-miterlimit:4;stroke-dasharray:none;stroke-dashoffset:0;stroke-opacity:1;stop-color:#000000;stop-opacity:1"
       d="M 31.622599,16.76422 29.992797,164.5091 c 0,0 0.408338,12.27889 14.679556,12.27889 14.271214,0 145.568027,0.39768 145.568027,0.39768 0,0 14.27157,-0.39768 14.67955,-13.86359 0.40833,-13.46733 1.6298,-142.199658 1.6298,-142.199658 0,0 3.25959,-14.2594952 -11.41712,-14.6557599 -14.6792,-0.397685 -151.277287,-0.397685 -151.277287,-0.397685 0,0 -11.824738,-0.79182 -12.232724,10.6948869 z"
       id="path8047" />
    <path
       style="font-variation-settings:normal;opacity:1;fill:none;fill-opacity:1;stroke:#000000;stroke-width:2.30799;stroke-linecap:butt;stroke-linejoin:miter;stroke-miterlimit:4;stroke-dasharray:none;stroke-dashoffset:0;stroke-opacity:1;stop-color:#000000;stop-opacity:1"
       d="M 1.9148101,42.955649 V 202.27356 l 2.1517577,2.15176 H 169.4631 l 1.98133,-1.98132 v -8.71392 l -2.89033,-2.89032 H 19.329156 l -1.960022,-1.96002 V 39.654887 L 15.384263,37.670019 H 4.1723835 l -2.2582857,2.254728 v 3.032322"
       id="path18119" />
    <path
       style="font-variation-settings:normal;opacity:1;fill:none;fill-opacity:1;stroke:#000000;stroke-width:1.77537;stroke-linecap:butt;stroke-linejoin:miter;stroke-miterlimit:4;stroke-dasharray:none;stroke-dashoffset:0;stroke-opacity:1;stop-color:#000000;stop-opacity:1"
       d="m 44.923746,47.282225 v 85.985855 l 4.200904,4.20127 H 84.695804 V 122.34489 H 58.647788 V 58.625452 H 84.695804 V 44.202323 H 48.003675 Z"
       id="path18593" />
    <path
       style="font-variation-settings:normal;opacity:1;fill:none;fill-opacity:1;stroke:#000000;stroke-width:2.30799;stroke-linecap:butt;stroke-linejoin:miter;stroke-miterlimit:4;stroke-dasharray:none;stroke-dashoffset:0;stroke-opacity:1;stop-color:#000000;stop-opacity:1"
       d="m 107.11283,98.972376 h 29.12866 v 22.126904 h -29.12866 z"
       id="path32766" />
    <path
       style="font-variation-settings:normal;opacity:1;fill:none;fill-opacity:1;stroke:#000000;stroke-width:1.77537;stroke-linecap:butt;stroke-linejoin:miter;stroke-miterlimit:4;stroke-dasharray:none;stroke-dashoffset:0;stroke-opacity:1;stop-color:#000000;stop-opacity:1"
       d="m 96.08771,71.749422 13.58415,-13.58414 h 39.21175 l 4.34151,4.34116 v 68.900698 l -5.60203,5.60203 H 99.729013 l -5.601677,-5.60203 V 93.035882 l 5.321522,-5.32189 h 37.811332 v -15.96457 z"
       id="path33422" />
    <path
       style="font-variation-settings:normal;opacity:1;fill:none;fill-opacity:1;stroke:#000000;stroke-width:1.77537;stroke-linecap:butt;stroke-linejoin:miter;stroke-miterlimit:4;stroke-dasharray:none;stroke-dashoffset:0;stroke-opacity:1;stop-color:#000000;stop-opacity:1"
       d="m 169.67296,44.21829 h 14.84466 V 137.4864 H 169.67296 V 44.21829"
       id="path35920" />
    <path
       style="opacity:0.874;fill:none;fill-opacity:1;stroke-width:0.0748535;stroke-linejoin:round;stroke-miterlimit:4;stroke-dasharray:none"
       d="M 3.9645184,202.32159 3.1030179,201.40466 V 120.99198 40.579471 l 0.916922,-0.861494 c 0.8408351,-0.790087 1.3292625,-0.861484 5.8800664,-0.861484 4.3054067,0 5.0503177,0.0958 5.6188847,0.724324 0.605025,0.668897 0.655755,6.467944 0.655755,75.379183 v 74.65495 l 1.306149,1.26603 1.30624,1.26594 h 74.670823 74.670822 l 1.06433,1.11093 c 1.00308,1.04704 1.06442,1.3286 1.06442,4.88986 0,3.15794 -0.1193,3.88669 -0.72433,4.4345 -0.6689,0.60595 -6.97774,0.65575 -82.715709,0.65575 H 4.8259207 Z"
       id="path36582" />
    <path
       style="opacity:0.874;fill:none;fill-opacity:1;stroke-width:0.0748535;stroke-linejoin:round;stroke-miterlimit:4;stroke-dasharray:none"
       d="M 3.9645184,202.32159 3.1030179,201.40466 V 120.99198 40.579471 l 0.916922,-0.861494 c 0.8408351,-0.790087 1.3292625,-0.861484 5.8800664,-0.861484 4.3054067,0 5.0503177,0.0958 5.6188847,0.724324 0.605025,0.668897 0.655755,6.467944 0.655755,75.379183 v 74.65495 l 1.306149,1.26603 1.30624,1.26594 h 74.670823 74.670822 l 1.06433,1.11093 c 1.00308,1.04704 1.06442,1.3286 1.06442,4.88986 0,3.15794 -0.1193,3.88669 -0.72433,4.4345 -0.6689,0.60595 -6.97774,0.65575 -82.715709,0.65575 H 4.8259207 Z"
       id="path36621" />
    <path
       style="opacity:0.874;fill:none;fill-opacity:1;stroke-width:0.0748535;stroke-linejoin:round;stroke-miterlimit:4;stroke-dasharray:none"
       d="m 63.904514,174.72836 -23.369833,-0.20762 -2.094459,-0.94642 c -2.577258,-1.16467 -4.966331,-3.7886 -5.8375,-6.41143 -0.599385,-1.80566 -0.585295,-7.39346 0.193529,-76.712828 0.513889,-45.716922 0.994244,-75.344343 1.236342,-76.255819 0.527989,-1.986044 2.529625,-4.1963397 4.719628,-5.2101234 1.760195,-0.8145204 2.237258,-0.8267334 38.223636,-0.9234994 20.042596,-0.05637 55.518293,0.03758 78.834843,0.198228 l 42.39377,0.2968737 1.96575,1.0119044 c 1.19454,0.6144137 2.43352,1.6789287 3.15775,2.7118787 l 1.192,1.699974 -0.0996,13.330168 c -0.62098,83.468113 -1.41625,137.490003 -2.05537,139.576753 -1.06865,3.48948 -5.12783,6.93678 -9.19528,7.80908 -2.02249,0.43403 -81.76524,0.45377 -129.265601,0.0375 z m 18.814804,-45.95671 v -8.71417 H 69.846017 56.972809 V 89.161762 58.265902 H 69.846017 82.719318 V 50.145877 42.025885 H 63.622486 44.525652 l -1.698378,1.666888 -1.698471,1.666891 v 43.576798 43.576818 l 2.464235,2.48632 2.46414,2.48622 h 18.33107 18.33107 z m 67.382402,5.67479 3.12327,-3.03948 V 96.332462 61.258022 l -2.46413,-2.48631 -2.46415,-2.48631 h -20.01826 -20.01817 l -7.91459,7.92201 -7.914491,7.92199 h 21.286551 21.28666 v 6.93181 6.93171 H 116.49606 97.98771 l -2.880989,2.86181 -2.881079,2.86182 v 19.806118 19.80614 l 3.060525,3.07855 3.060517,3.07846 h 24.315886 24.31588 z m 34.4152,-44.690568 V 42.025885 h -7.922 c -5.01725,0 -7.92199,0.145607 -7.92199,0.396447 0,0.217947 -0.26776,0.396457 -0.59376,0.396457 -0.52517,0 -0.59374,5.494 -0.59374,47.069743 0,25.888438 0.1193,47.188708 0.26399,47.333958 0.14562,0.14467 3.97753,0.26399 8.51612,0.26399 h 8.25214 z"
       id="path36660" />
    <path
       style="opacity:0.874;fill:none;fill-opacity:1;stroke-width:0.0748535;stroke-linejoin:round;stroke-miterlimit:4;stroke-dasharray:none"
       d="m 63.904514,174.72836 -23.369833,-0.20762 -2.094459,-0.94642 c -2.577258,-1.16467 -4.966331,-3.7886 -5.8375,-6.41143 -0.599385,-1.80566 -0.585295,-7.39346 0.193529,-76.712828 0.513889,-45.716922 0.994244,-75.344343 1.236342,-76.255819 0.527989,-1.986044 2.529625,-4.1963397 4.719628,-5.2101234 1.760195,-0.8145204 2.237258,-0.8267334 38.223636,-0.9234994 20.042596,-0.05637 55.518293,0.03758 78.834843,0.198228 l 42.39377,0.2968737 1.96575,1.0119044 c 1.19454,0.6144137 2.43352,1.6789287 3.15775,2.7118787 l 1.192,1.699974 -0.0996,13.330168 c -0.62098,83.468113 -1.41625,137.490003 -2.05537,139.576753 -1.06865,3.48948 -5.12783,6.93678 -9.19528,7.80908 -2.02249,0.43403 -81.76524,0.45377 -129.265601,0.0375 z m 18.814804,-45.95671 v -8.71417 H 69.846017 56.972809 V 89.161762 58.265902 H 69.846017 82.719318 V 50.145877 42.025885 H 63.622486 44.525652 l -1.698378,1.666888 -1.698471,1.666891 v 43.576798 43.576818 l 2.464235,2.48632 2.46414,2.48622 h 18.33107 18.33107 z m 67.382402,5.67479 3.12327,-3.03948 V 96.332462 61.258022 l -2.46413,-2.48631 -2.46415,-2.48631 h -20.01826 -20.01817 l -7.91459,7.92201 -7.914491,7.92199 h 21.286551 21.28666 v 6.93181 6.93171 H 116.49606 97.98771 l -2.880989,2.86181 -2.881079,2.86182 v 19.806118 19.80614 l 3.060525,3.07855 3.060517,3.07846 h 24.315886 24.31588 z m 34.4152,-44.690568 V 42.025885 h -7.922 c -5.01725,0 -7.92199,0.145607 -7.92199,0.396447 0,0.217947 -0.26776,0.396457 -0.59376,0.396457 -0.52517,0 -0.59374,5.494 -0.59374,47.069743 0,25.888438 0.1193,47.188708 0.26399,47.333958 0.14562,0.14467 3.97753,0.26399 8.51612,0.26399 h 8.25214 z"
       id="path36699" />
    <path
       style="opacity:0.874;fill:#000000;fill-opacity:1;stroke-width:0.00693508;stroke-linejoin:round;stroke-miterlimit:4;stroke-dasharray:none"
       d="m 97.039593,136.06599 c -0.988981,-0.99405 -2.249091,-2.26253 -2.800186,-2.81888 l -1.001949,-1.01144 0.0094,-0.2095 0.0094,-0.2095 3.027545,3.02801 3.027545,3.02792 h -0.23856 -0.238632 z"
       id="path46588" />
    <path
       style="opacity:0.874;fill:#000000;fill-opacity:1;stroke-width:0.00693508;stroke-linejoin:round;stroke-miterlimit:4;stroke-dasharray:none"
       d="m 68.213402,138.5523 v -0.16535 h 8.697444 8.697442 v -8.47722 -8.47733 h -8.697442 c -8.673018,0 -8.697444,-1.9e-4 -8.697444,-0.0752 0,-0.0752 0.02819,-0.0752 8.770815,-0.0752 h 8.770906 v 8.71576 8.71586 h -8.770906 -8.770815 z"
       id="path46666" />
    <path
       style="opacity:0.874;fill:#000000;fill-opacity:1;stroke-width:0.00693508;stroke-linejoin:round;stroke-miterlimit:4;stroke-dasharray:none"
       d="m 46.221868,136.31674 -2.376019,-2.40072 v -10.62713 -10.62711 h 0.09395 0.09395 v 10.50498 10.5049 l 2.357981,2.35779 2.35798,2.35769 h 9.734056 9.734057 v 0.16535 0.16536 h -9.807804 -9.807711 z"
       id="path46705" />
    <path
       style="opacity:0.874;fill:#000000;fill-opacity:1;stroke-width:0.00693508;stroke-linejoin:round;stroke-miterlimit:4;stroke-dasharray:none"
       d="m 193.2806,174.83171 c 0.0281,-0.0189 0.51765,-0.21608 1.08256,-0.44156 2.49054,-0.99575 3.91957,-1.88457 5.39839,-3.35805 1.36806,-1.36298 2.13137,-2.60928 2.43454,-3.97471 0.53363,-2.4028 0.76662,-7.34235 1.0121,-21.40361 0.0282,-1.70552 0.0563,-3.27848 0.0563,-3.4955 l 9e-5,-0.39458 h 0.0958 0.0958 l -0.0282,1.45872 c -0.01,0.80231 -0.047,3.24231 -0.0751,5.42216 -0.11462,8.44482 -0.21795,14.05788 -0.27621,15.04621 -0.0987,1.68429 -0.41524,3.10637 -0.98832,4.44361 -1.34748,3.14526 -4.23402,5.45391 -8.23513,6.58673 -0.4998,0.14186 -0.69334,0.1785 -0.57308,0.11086 z"
       id="path46744" />
    <path
       style="opacity:0.874;fill:#000000;fill-opacity:1;stroke-width:0.00693508;stroke-linejoin:round;stroke-miterlimit:4;stroke-dasharray:none"
       d="m 203.27837,140.83672 c 0.047,-1.84475 0.35042,-28.35034 0.35136,-30.6062 l 9e-5,-0.76192 h 0.0939 0.0939 l -9e-5,0.83519 c -2.9e-4,1.18224 -0.25272,22.99649 -0.3307,28.50528 -0.0189,1.41287 -0.0375,2.6556 -0.0375,2.76157 -1.9e-4,0.1832 -0.005,0.1926 -0.0958,0.1926 h -0.0958 z"
       id="path46783" />
    <path
       style="opacity:0.874;fill:#000000;fill-opacity:1;stroke-width:0.00693508;stroke-linejoin:round;stroke-miterlimit:4;stroke-dasharray:none"
       d="m 203.65247,108.48742 c 0.009,-0.5402 0.0751,-6.67908 0.1428,-13.642518 0.0658,-6.96346 0.13622,-13.12743 0.14938,-13.6976 l 0.0189,-1.03671 h 0.0845 c 0.0845,0 0.0845,0.01 0.0845,0.22925 -4.7e-4,0.12588 -0.0282,2.33495 -0.0563,4.90835 -0.0282,2.5735 -0.0949,8.9232 -0.14749,14.110484 -0.0563,5.187184 -0.10523,9.584104 -0.11556,9.770784 -0.0188,0.32505 -0.0281,0.33914 -0.10522,0.33914 h -0.0845 z"
       id="path46859" />
    <path
       style="opacity:0.874;fill:#000000;fill-opacity:1;stroke-width:0.00693508;stroke-linejoin:round;stroke-miterlimit:4;stroke-dasharray:none"
       d="m 203.95977,79.716112 c 0,-0.57495 0.17192,-15.45741 0.25647,-22.30334 0.0376,-3.22944 0.0752,-6.049161 0.0752,-6.266181 0,-0.370147 0.005,-0.394577 0.0752,-0.394577 0.0658,0 0.0752,0.0282 0.0752,0.28748 0,0.340087 -0.11649,11.851518 -0.22078,21.712038 -0.0375,3.83464 -0.0751,7.059 -0.0751,7.16535 0,0.18131 -0.006,0.19353 -0.0939,0.19353 h -0.0939 z"
       id="path46898" />
    <path
       style="opacity:0.874;fill:#000000;fill-opacity:1;stroke-width:0.00693508;stroke-linejoin:round;stroke-miterlimit:4;stroke-dasharray:none"
       d="m 204.30634,49.69699 c 0.01,-0.580577 0.0376,-2.409165 0.0563,-4.064226 0.0189,-1.655141 0.0563,-4.668953 0.0939,-6.697454 0.11085,-7.633472 0.13622,-10.397586 0.14091,-15.367298 l 0.005,-5.110163 h 0.21608 0.21607 l -0.0281,0.394577 c -0.0375,0.53456 -0.12307,1.2712 -0.20669,1.715664 -0.0658,0.346665 -0.0751,0.998002 -0.18037,11.871825 -0.0658,6.327608 -0.12777,12.991059 -0.14751,14.80761 -0.0188,1.816558 -0.0375,3.348259 -0.0375,3.403779 -1.9e-4,0.0751 -0.0188,0.10052 -0.0752,0.10052 -0.0751,0 -0.0751,-0.004 -0.0563,-1.055104 z"
       id="path46937" />
    <path
       style="opacity:0.874;fill:#000000;fill-opacity:1;stroke-width:0.00693508;stroke-linejoin:round;stroke-miterlimit:4;stroke-dasharray:none"
       d="m 204.56931,17.182609 c -0.0188,-0.701786 -0.0376,-1.530775 -0.0658,-1.842961 -0.0375,-0.522348 -0.047,-0.60596 -0.19539,-1.046291 -0.57872,-1.73154 -1.68918,-3.158787 -3.26834,-4.200191 -0.20105,-0.1324647 -0.8615,-0.4922827 -1.46793,-0.7994904 -0.60596,-0.307206 -1.08452,-0.5589847 -1.06283,-0.5599247 0.0977,-0.0038 0.8615,0.2339287 1.2977,0.4039727 2.97174,1.1580864 4.66167,3.4690934 5.12398,7.0074264 0.0376,0.259294 0.0658,0.862436 0.0752,1.385346 l 0.0189,0.926319 h -0.21889 -0.21891 z"
       id="path46976" />
    <path
       style="opacity:0.874;fill:#000000;fill-opacity:1;stroke-width:0.00693508;stroke-linejoin:round;stroke-miterlimit:4;stroke-dasharray:none"
       d="m 179.99591,8.4346229 c -9.25436,-0.05637 -17.68904,-0.1146147 -18.7436,-0.1277677 l -1.91746,-0.01879 v -0.12401 -0.12401 l 1.3303,2.81e-4 c 5.28903,9.01e-4 25.99829,0.125889 30.54204,0.184138 4.13489,0.05637 5.09447,0.09582 6.12855,0.2705667 l 0.29311,0.04697 -0.40397,-5.65e-4 c -0.22171,-3.67e-4 -7.97546,-0.04696 -17.22972,-0.105213 z"
       id="path47015" />
    <path
       style="opacity:0.874;fill:#000000;fill-opacity:1;stroke-width:0.00980768;stroke-linejoin:round;stroke-miterlimit:4;stroke-dasharray:none"
       d="m 150.50269,8.2412812 c -9.54917,-0.06576 -26.8254,-0.151256 -29.62136,-0.151256 -2.17789,1.88e-4 -2.58195,-0.0094 -2.58195,-0.07516 0,-0.07516 5.83271,-0.07516 30.91886,0.0021 l 10.08138,0.02819 v 0.12307 0.123072 l -1.44021,-0.0087 c -0.79197,-0.0048 -4.10268,-0.02818 -7.35672,-0.04697 z"
       id="path47054" />
    <path
       style="opacity:0.874;fill:#000000;fill-opacity:1;stroke-width:0.00693508;stroke-linejoin:round;stroke-miterlimit:4;stroke-dasharray:none"
       d="m 136.03153,79.761962 v -7.06436 l -20.89038,-0.009 -20.890469,-0.009 21.055539,-0.009 21.05554,-0.009 v 7.08268 7.08277 h -0.16535 -0.16534 z"
       id="path47093" />
    <path
       style="opacity:0.874;fill:#000000;fill-opacity:1;stroke-width:0.00693508;stroke-linejoin:round;stroke-miterlimit:4;stroke-dasharray:none"
       d="m 134.49024,119.78118 v -0.14655 h 0.14655 0.14657 v -9.55988 -9.55987 h -0.14657 -0.14655 v -0.18321 -0.18319 h 0.29312 0.2931 v 9.89009 9.89021 h -0.2931 -0.29312 z"
       id="path47132" />
    <path
       style="opacity:0.874;fill:#000000;fill-opacity:1;stroke-width:0.00693508;stroke-linejoin:round;stroke-miterlimit:4;stroke-dasharray:none"
       d="m 101.35177,64.825772 7.87174,-7.87174 h 7.23873 7.23872 v 0.14655 0.14655 h -7.20208 -7.202 l -7.67906,7.67916 c -4.223485,4.22349 -7.679051,7.6908 -7.679051,7.70518 0,0.0189 0.144682,0.0281 0.321304,0.0375 0.214202,0.008 0.138098,0.0188 -0.229235,0.0188 l -0.55053,0.007 z"
       id="path47615" />
    <path
       style="opacity:0.874;fill:#000000;fill-opacity:1;stroke-width:0.00693508;stroke-linejoin:round;stroke-miterlimit:4;stroke-dasharray:none"
       d="m 101.40683,64.807452 7.85332,-7.85342 h 7.22041 7.2204 v 0.14655 0.14655 h -7.2205 -7.22049 l -6.89958,6.90851 c -3.794714,3.7996 -7.253481,7.26757 -7.686102,7.70658 l -0.786339,0.79856 h -0.16723 -0.167222 z"
       id="path47654" />
    <path
       style="opacity:0.874;fill:#000000;fill-opacity:1;stroke-width:0.00980768;stroke-linejoin:round;stroke-miterlimit:4;stroke-dasharray:none"
       d="m 151.12349,59.104852 -1.86579,-1.86636 h -12.75446 -12.75446 v -0.15595 -0.15595 h 12.65066 12.65063 l 1.99554,1.99609 c 1.09758,1.09787 1.98389,2.00775 1.96961,2.02203 -0.0189,0.0188 -0.86526,-0.81358 -1.89173,-1.84033 z"
       id="path47767" />
    <path
       style="opacity:0.874;fill:#000000;fill-opacity:1;stroke-width:0.00693508;stroke-linejoin:round;stroke-miterlimit:4;stroke-dasharray:none"
       d="m 32.178738,127.9435 c 0.0017,-0.047 0.0094,-0.047 0.01883,-0.0188 0.0094,0.0282 0.0094,0.0563 -0.0033,0.0658 -0.0094,0.01 -0.01875,-0.01 -0.01875,-0.047 z"
       id="path47843" />
    <path
       style="opacity:0.874;fill:#000000;fill-opacity:1;stroke-width:0.00693508;stroke-linejoin:round;stroke-miterlimit:4;stroke-dasharray:none"
       d="M 43.845849,98.569709 V 84.477642 h 0.09395 0.09395 v 14.092067 14.092071 h -0.09395 -0.09395 z"
       id="path48067" />
    <path
       style="opacity:0.874;fill:#000000;fill-opacity:1;stroke-width:0.00693508;stroke-linejoin:round;stroke-miterlimit:4;stroke-dasharray:none"
       d="m 43.845849,74.202162 v -10.27548 h 0.09395 0.09395 v 10.27548 10.27548 h -0.09395 -0.09395 z"
       id="path48106" />
    <path
       style="opacity:0.874;fill:#000000;fill-opacity:1;stroke-width:0.00693508;stroke-linejoin:round;stroke-miterlimit:4;stroke-dasharray:none"
       d="m 43.671484,8.1186792 c 0.09582,-0.0075 0.252718,-0.0075 0.348544,0 0.09582,0.0075 0.01879,0.0094 -0.173803,0.0094 -0.191652,0 -0.270568,-0.0062 -0.174741,-0.0094 z"
       id="path48221" />
    <path
       style="opacity:0.874;fill:#000000;fill-opacity:1;stroke-width:0.00693508;stroke-linejoin:round;stroke-miterlimit:4;stroke-dasharray:none"
       d="m 41.166851,8.0748062 c 0.07516,-0.01879 0.326937,-0.06576 0.56838,-0.09865 0.416187,-0.06576 1.145218,-0.06576 13.367277,-0.07516 12.556981,-0.0094 12.926946,-0.0091 12.926946,0.05637 0,0.06576 -0.217958,0.06576 -6.816715,0.09395 -14.403513,0.04697 -20.172999,0.05637 -20.046357,0.02818 z"
       id="path48260" />
    <path
       style="opacity:0.874;fill:#000000;fill-opacity:1;stroke-width:0.00693508;stroke-linejoin:round;stroke-miterlimit:4;stroke-dasharray:none"
       d="m 39.350288,174.18911 c -1.632801,-0.54866 -2.858719,-1.25072 -4.018399,-2.30293 -1.814784,-1.64661 -3.113507,-4.24547 -3.46562,-6.93481 -0.047,-0.38988 -0.047,-1.42282 0.07516,-11.83519 0.06574,-6.27425 0.127774,-11.73399 0.127774,-12.13261 l 2.79e-4,-0.72433 h 0.116492 0.115559 l -0.01883,1.66061 c -0.0094,0.91316 -0.047,4.74874 -0.06574,8.52316 -0.05633,8.73409 -0.0094,13.31571 0.154073,15.08285 0.110859,1.18749 0.340085,1.95307 0.953282,3.17588 0.970289,1.9356 2.096238,3.16688 3.875508,4.23796 0.526104,0.31661 1.058222,0.58529 2.105544,1.06405 0.474433,0.21702 0.869012,0.40021 0.877468,0.40773 0.06576,0.0563 -0.227353,-0.0189 -0.822978,-0.22172 z"
       id="path48410" />
    <path
       style="opacity:0.874;fill:#000000;fill-opacity:1;stroke-width:0.00693508;stroke-linejoin:round;stroke-miterlimit:4;stroke-dasharray:none"
       d="m 50.70841,174.97319 c -7.457528,-0.0189 -7.488248,-0.0189 -8.587431,-0.16441 -1.219246,-0.15689 -1.197075,-0.15877 2.422146,-0.14092 11.786145,0.0563 18.605208,0.0845 20.880985,0.0845 h 2.605814 v 0.12871 0.12871 l -5.000151,-0.008 c -2.750023,-0.005 -8.294693,-0.0189 -12.321363,-0.0281 z"
       id="path48449" />
    <path
       style="opacity:0.874;fill:#000000;fill-opacity:1;stroke-width:0.00693508;stroke-linejoin:round;stroke-miterlimit:4;stroke-dasharray:none"
       d="m 34.206397,192.26914 c 8.514247,-0.005 22.435717,-0.005 30.936529,0 8.500811,0.005 1.534628,0.009 -15.48043,0.009 -17.015055,0 -23.97034,-0.004 -15.456099,-0.009 z"
       id="path48488" />
    <path
       style="opacity:0.874;fill:#000000;fill-opacity:1;stroke-width:0.00693508;stroke-linejoin:round;stroke-miterlimit:4;stroke-dasharray:none"
       d="m 34.276761,191.97556 c 8.492454,-0.005 22.389122,-0.005 30.881479,0 8.492449,0.005 1.544116,0.009 -15.440691,0.009 -16.984809,0 -23.933145,-0.004 -15.440788,-0.009 z"
       id="path48527" />
    <path
       style="opacity:0.874;fill:#000000;fill-opacity:1;stroke-width:0.00693508;stroke-linejoin:round;stroke-miterlimit:4;stroke-dasharray:none"
       d="m 89.498268,175.08123 c -5.782642,-0.0189 -12.978713,-0.0376 -15.99113,-0.0563 l -5.477214,-0.0281 v -0.11462 l -9.5e-5,-0.11462 1.568918,0.008 c 3.126563,0.0189 19.044227,0.0845 25.450105,0.1071 l 6.559868,0.0282 v 0.10428 0.10427 l -0.79855,-0.006 c -0.43874,-0.003 -5.529546,-0.0188 -11.312279,-0.0375 z"
       id="path48605" />
    <path
       style="opacity:0.874;fill:#000000;fill-opacity:1;stroke-width:0.000738189;stroke-linejoin:round;stroke-miterlimit:4;stroke-dasharray:none"
       d=""
       id="path50654"
       transform="scale(0.26458333)" />
    <path
       style="opacity:0.874;fill:#000000;fill-opacity:1;stroke-width:0.00693508;stroke-linejoin:round;stroke-miterlimit:4;stroke-dasharray:none"
       d="m 16.028647,123.34094 v -13.21132 h 0.09395 0.09395 v 13.21132 13.21132 h -0.09395 -0.09395 z"
       id="path50810" />
    <path
       style="fill:none;stroke:#000000;stroke-width:0;stroke-linecap:butt;stroke-linejoin:miter;stroke-miterlimit:4;stroke-dasharray:none;stroke-opacity:1"
       d="m 7.7714353,43.486136 c -0.4083368,1.082964 0.1775386,2.105578 1.175296,2.606235"
       id="path51813" />
    <path
       style="opacity:0.874;fill:#000000;fill-opacity:1;stroke-width:0;stroke-linejoin:round;stroke-miterlimit:4;stroke-dasharray:none"
       d="m 22.450784,204.40713 v -1.1377 h 66.276832 66.276834 v 1.1377 1.13761 H 88.727616 22.450784 Z"
       id="path52370" />
    <path
       style="opacity:0.874;fill:#000000;fill-opacity:1;stroke-width:0;stroke-linejoin:round;stroke-miterlimit:4;stroke-dasharray:none"
       d="m 22.450784,204.3704 v -1.17435 l 27.54203,-0.009 c 15.148046,-0.005 27.44282,-0.0281 27.321723,-0.0563 -0.46598,-0.10898 7.823541,-0.14937 38.239423,-0.18602 17.31785,-0.0189 33.27882,-0.0563 35.46873,-0.0845 l 3.98176,-0.047 v 1.36984 1.36984 H 88.727616 22.450784 Z"
       id="path52409" />
    <path
       style="fill:#552200;stroke-width:0.0221922"
       d="m 71.039146,174.43497 -30.826423,-0.30345 -2.426279,-1.39033 c -1.401317,-0.80325 -3.013543,-2.41528 -3.81661,-3.81661 l -1.390316,-2.42627 0.182255,-42.56982 C 32.862299,100.51506 33.133806,66.297822 33.364915,47.890032 33.844041,9.7713973 33.605416,11.51346 38.639484,9.2868186 41.38509,8.0722692 41.423233,8.0717992 119.56625,8.4112312 204.76574,8.7813819 199.27669,8.5389989 202.5654,12.06944 l 1.46793,1.575869 -0.16159,33.563326 c -0.23863,49.557677 -1.26509,115.984055 -1.83798,118.889645 -0.61817,3.13709 -2.91895,5.67629 -6.80826,7.51494 l -2.93585,1.38797 -45.21209,-0.13058 c -24.86669,-0.0752 -59.083956,-0.26776 -76.038508,-0.43498 z m 15.134893,-44.48841 0.162531,-8.95429 H 73.10993 59.883293 V 90.459452 59.926612 h 12.917738 12.91774 V 51.412651 42.898739 H 66.750927 47.783082 l -1.978621,2.041358 -1.978529,2.041368 -0.271506,43.507857 -0.271508,43.507868 2.558182,2.60666 2.558276,2.60665 18.80616,-0.15502 18.806161,-0.155 z M 185.53729,90.753042 V 42.898739 h -7.80936 c -5.29101,0 -8.03662,0.22734 -8.51397,0.704597 -0.53643,0.536427 -0.7046,11.965156 -0.7046,47.854296 v 47.149728 h 8.51397 8.51396 z m -34.22111,44.204558 3.1011,-3.06258 V 96.958518 62.022002 l -2.76703,-2.80921 -2.76693,-2.80921 h -19.70016 -19.70007 l -8.20469,8.22038 -8.204693,8.22039 h 21.277073 21.27706 v 6.75245 6.75246 h -18.3306 -18.330604 l -3.101103,3.06258 -3.101101,3.06258 v 19.963668 19.96369 l 2.767026,2.8092 2.766935,2.80921 h 24.958297 24.95839 z"
       id="path988" />
    <path
       style="fill:#552200;stroke-width:0.00392308"
       d="m 108.28291,110.0197 v -9.86079 h 13.07849 c 13.00933,0 13.07857,8.2e-4 13.07857,0.20762 0,0.11556 0.0658,0.20763 0.15596,0.20763 0.13716,0 0.15595,1.12445 0.15595,9.49749 0,8.37304 -0.0188,9.4975 -0.15595,9.4975 -0.0845,0 -0.15596,0.0658 -0.15596,0.15595 0,0.13717 -1.52241,0.15595 -13.07857,0.15595 h -13.07849 z"
       id="path1027" />
    <path
       style="fill:#552200;stroke-width:0.000147638"
       d=""
       id="path1140"
       transform="scale(0.26458333)" />
    <path
       style="fill:#552200;stroke-width:0.00277403"
       d="m 32.486041,166.13098 c -0.20857,-1.34561 -0.234876,-2.90391 -0.224535,-12.91775 0.0065,-5.65157 0.03758,-10.87823 0.06574,-11.61496 0.047,-1.27901 0.047,-1.33951 -0.08456,-1.33951 -0.131525,0 -0.136224,-0.0752 -0.114617,-1.63307 0.0094,-0.89815 0.12025,-10.86444 0.238625,-22.14732 0.118376,-11.28286 0.237685,-21.777588 0.26305,-23.321598 0.047,-2.73847 0.047,-2.80744 0.193537,-2.80744 0.144673,0 0.145615,0.0376 0.09865,3.68819 -0.05633,4.661637 -0.163472,23.659178 -0.264932,48.643288 -0.09959,24.51177 -0.09582,23.89378 -0.164406,23.45017 z"
       id="path1290" />
    <path
       style="fill:#552200;stroke-width:0.000295276"
       d=""
       id="path1329"
       transform="scale(0.26458333)" />
    <path
       style="fill:#552200;stroke-width:0.00277403"
       d="m 97.094834,174.85379 c -1.029378,-0.007 -10.805801,-0.047 -21.725287,-0.0939 -31.325938,-0.12588 -34.425069,-0.14655 -34.752005,-0.23486 -0.294054,-0.0751 -1.190874,-0.49134 -2.562315,-1.17745 -2.145282,-1.07325 -3.63087,-2.55273 -4.704214,-4.68467 -0.297814,-0.59093 -0.771306,-1.82229 -0.771306,-2.00427 0,-0.047 0.349476,0.5261 0.777881,1.27195 0.944636,1.64709 1.380549,2.2459 2.297856,3.15597 0.931013,0.9235 1.452419,1.30108 3.129095,2.26404 l 1.40357,0.80606 11.407256,0.11555 c 20.999546,0.21327 43.464007,0.4068 47.316406,0.40868 1.076162,5.6e-4 1.266039,0.0188 1.266039,0.11085 0,0.0939 -0.10898,0.10711 -0.605967,0.0939 -0.332565,-0.01 -1.447721,-0.0188 -2.477099,-0.0282 z"
       id="path1368" />
    <path
       style="fill:#552200;stroke-width:0.00277403"
       d="m 136.32511,175.19133 c -7.71024,-0.0281 -18.66739,-0.0563 -24.34922,-0.0563 -9.12895,-0.01 -10.33053,-0.0281 -10.33053,-0.12119 0,-0.0939 -0.13059,-0.10992 -0.73373,-0.10992 -0.62663,0 -0.73373,-0.0188 -0.73373,-0.11837 0,-0.10804 0.47537,-0.11462 5.59654,-0.0752 6.10148,0.047 30.32248,0.1569 53.79942,0.23394 14.44973,0.047 14.88104,0.0564 14.88104,0.18601 0,0.13247 -0.33915,0.13623 -12.05531,0.12213 -6.63041,-0.008 -18.36376,-0.0376 -26.074,-0.0658 z"
       id="path1407" />
    <path
       style="fill:#552200;stroke-width:0.00277403"
       d="m 174.71137,175.26988 c -0.24237,-0.0282 -0.39928,-0.0563 -0.34854,-0.0658 0.18696,-0.0281 0.0845,-0.15125 -0.14655,-0.17944 -0.3664,-0.047 8.45929,-0.0376 13.52322,0.01 4.21842,0.0376 4.4779,0.047 3.96344,0.15032 -0.45752,0.0845 -1.89716,0.10805 -8.55069,0.11744 -4.40011,0.006 -8.1983,-0.01 -8.44049,-0.0376 z"
       id="path1446" />
    <path
       style="fill:#552200;stroke-width:0.00277403"
       d="m 192.36922,175.0196 c 0.0189,-0.0189 0.85586,-0.42182 1.8655,-0.90189 2.89264,-1.37604 4.08493,-2.15468 5.40423,-3.52932 1.49282,-1.55519 2.31495,-3.24775 2.48632,-5.11805 0.2048,-2.23905 0.48945,-12.79185 0.76755,-28.51439 0.0563,-3.33033 0.12963,-7.25244 0.15594,-8.71585 l 0.047,-2.66058 h 0.18038 0.18038 l -0.047,2.58721 c -0.0282,1.42301 -0.0752,5.26254 -0.11837,8.53228 -0.25085,20.36521 -0.54583,28.01073 -1.17772,30.48324 -0.3758,1.4681 -1.37474,2.94279 -2.92994,4.32316 -1.31075,1.16354 -2.79154,2.02503 -5.02758,2.92495 -0.48478,0.19541 -0.8972,0.37674 -0.91787,0.40397 -0.0189,0.0282 -0.21138,0.0845 -0.42558,0.13154 -0.42088,0.0939 -0.49604,0.0986 -0.44906,0.0563 z"
       id="path1485" />
    <path
       style="fill:#552200;stroke-width:0.00277403"
       d="m 203.11076,123.65285 c 0.0845,-3.74107 0.48101,-34.382208 0.48196,-37.542128 3.7e-4,-1.58854 0.004,-1.63308 0.14844,-1.63308 0.14561,0 0.14749,0.0281 0.10803,2.25698 -0.0188,1.24124 -0.0939,7.31023 -0.14937,13.486488 -0.0563,6.17627 -0.14092,14.02048 -0.18038,17.43161 -0.0376,3.41113 -0.0751,6.59012 -0.0751,7.06436 l -2.8e-4,0.86244 h -0.18978 -0.18978 z"
       id="path1524" />
    <path
       style="fill:#552200;stroke-width:0.00277403"
       d="m 203.62692,82.661072 c 0.0752,-3.40201 0.32974,-39.161836 0.33162,-47.267081 l 8.2e-4,-3.761553 h 0.28091 0.28089 l -0.0281,1.339499 c -0.0752,4.117515 -0.32693,24.725025 -0.46128,37.597105 -0.0376,3.91571 -0.0939,7.99472 -0.11179,9.06449 -0.0189,1.06969 -0.0376,2.59727 -0.0376,3.39451 -4.6e-4,1.41324 -0.004,1.4496 -0.15125,1.4496 -0.14938,0 -0.15032,-0.0189 -0.10898,-1.81657 z"
       id="path1563" />
    <path
       style="fill:#552200;stroke-width:0.00277403"
       d="m 204.01322,22.80657 c 0.0189,-4.854251 0.0375,-8.875473 0.047,-8.935975 0.01,-0.05637 0.0939,0.104281 0.18413,0.367333 0.26493,0.756275 0.29688,1.804726 0.30063,9.890104 l 0.003,7.504783 h -0.28091 -0.28089 z"
       id="path1602" />
    <path
       style="fill:#552200;stroke-width:0.00277403"
       d="m 203.2547,12.752717 c -0.27809,-0.293115 -0.76474,-0.830494 -1.08087,-1.194162 -0.71306,-0.819219 -1.04601,-1.093076 -1.70044,-1.396338 -2.54259,-1.1782834 -10.72727,-1.4800431 -43.74416,-1.6126971 -14.45039,-0.05637 -17.57837,-0.100522 -17.57837,-0.2386247 0,-0.119313 1.12201,-0.117434 26.05569,0.05637 5.63129,0.03758 15.29131,0.1052207 21.46656,0.1465577 6.60618,0.04697 11.33435,0.103341 11.48655,0.143738 0.33633,0.09395 2.38963,1.1711454 3.03666,1.5979481 0.58716,0.387062 1.51386,1.275897 1.93164,1.852075 0.37109,0.512012 0.71306,1.097021 0.66796,1.142397 -0.0188,0.01879 -0.26305,-0.204804 -0.54112,-0.498859 z"
       id="path1641" />
    <path
       style="fill:#552200;stroke-width:0.00138702"
       d="m 132.94885,8.4548219 c -9.91379,-0.04697 -23.94508,-0.1061597 -33.175117,-0.1437387 -4.813847,-0.01879 -10.886877,-0.04697 -13.495696,-0.05637 l -4.743204,-0.02819 v -0.160648 -0.160649 h 7.073565 c 7.812177,0 30.843152,0.04697 30.175002,0.06576 -0.47162,0.0094 -0.59469,0.03758 -0.42183,0.08455 0.0563,0.01879 3.87532,0.04697 8.47723,0.06576 8.78716,0.03758 13.65033,0.07516 12.83816,0.110858 -0.45001,0.01879 -0.57213,0.03758 -0.51483,0.09676 0.047,0.04697 0.76474,0.09395 1.98943,0.1202527 l 1.28445,0.02818 -1.77983,-2.81e-4 c -0.97894,-1.89e-4 -4.4469,-0.0094 -7.70668,-0.02818 z"
       id="path1791" />
    <path
       id="path2089"
       style="fill:#552200;stroke-width:0.00138702"
       d="m 80.855875,7.8703775 c -0.01353,4.69e-4 -0.02423,0.01785 -0.03664,0.01842 0.05233,0.0012 0.136318,0 0.238533,0 0.10353,0 0.186203,7.52e-4 0.238531,0 -0.119218,-0.0062 -0.304671,-0.02301 -0.440425,-0.01842 z m 0.678958,0.03673 v 0.128425 0.146839 l 1.61467,0.03664 c 0.893157,0.01879 5.001932,0.03626 9.119549,0.05506 4.117512,0.01879 7.712681,0.03335 8.000168,0.03674 h 0.53211 v -0.18348 -0.165159 l -6.550649,-0.03674 c -3.606166,-0.01879 -7.941081,-0.01832 -9.633256,-0.01832 z" />
    <path
       style="fill:#552200;stroke-width:0.00138702"
       d="m 32.637011,90.349332 c 0.047,-5.68709 0.241442,-23.25201 0.259291,-23.71611 l 0.01875,-0.55993 h 0.125892 0.125891 l -0.01875,0.72433 c -0.0094,0.39834 -0.02817,1.84776 -0.03758,3.22022 -0.125892,16.75333 -0.163464,20.45297 -0.208561,20.37331 -0.01883,-0.0376 -0.05633,-0.0563 -0.08456,-0.0563 -0.110859,0 -0.140923,0.16628 -0.168163,0.91785 -0.01875,0.50544 -0.01875,0.20951 -0.0094,-0.89907 z"
       id="path2242" />
    <path
       style="fill:#552200;stroke-width:0.00138702"
       d="m 32.90833,65.770772 c -0.004,-0.87182 0.264932,-25.424388 0.281839,-25.743608 l 0.01875,-0.375787 h 0.125891 0.125892 l -0.01883,0.889674 c -0.0094,0.489457 -0.03758,2.318408 -0.05633,4.064319 -0.01875,1.745898 -0.05633,4.569853 -0.07516,6.275354 -0.06574,5.521458 -0.145623,13.278298 -0.145623,14.248018 l -1.89e-4,0.94501 h -0.128708 -0.128708 z"
       id="path2281" />
    <path
       style="fill:#552200;stroke-width:0.00138702"
       d="m 47.278868,138.04405 c -0.60408,-0.61817 -1.537258,-1.5707 -2.072852,-2.11568 -0.535497,-0.54491 -1.184297,-1.20553 -1.441619,-1.46793 l -0.467857,-0.47726 0.05637,-8.05521 c 0.02818,-4.43036 0.05637,-8.48043 0.05637,-9.00024 l 5.63e-4,-0.94492 h 0.219837 0.219836 l 8.19e-4,8.98182 7.51e-4,8.98192 2.36963,2.39452 2.369536,2.39453 h 8.751275 8.751275 l -0.0094,0.15595 -0.0094,0.15595 -0.917864,0.008 c -7.183765,0.0658 -14.501312,0.12026 -15.50495,0.1165 l -1.266126,-0.004 z"
       id="path2320" />
    <path
       style="fill:#552200;stroke-width:0.00138702"
       d="m 43.424026,113.58837 c 0.02819,-2.61304 0.128708,-19.115408 0.128708,-20.336808 v -0.75534 h 0.146558 0.146557 V 104.2396 115.983 h -0.221715 -0.221715 z"
       id="path2359" />
    <path
       style="fill:#552200;stroke-width:0.00138702"
       d="m 43.570396,90.064962 c 0.02819,-2.97361 0.09395,-13.14059 0.09395,-14.3246 v -0.85962 h 0.09395 0.09395 v 8.80756 8.80754 h -0.148434 -0.148437 z"
       id="path2398" />
    <path
       style="fill:#552200;stroke-width:0.00138702"
       d="m 43.676369,72.981982 c 0.0094,-1.04451 0.04697,-6.55611 0.07516,-12.24799 0.02819,-5.69189 0.06576,-10.782402 0.07515,-11.312159 l 0.01879,-0.963337 h 0.08456 0.08455 v 7.724876 7.72499 h -0.09395 -0.09395 v 5.48634 5.48643 h -0.09676 -0.09676 z"
       id="path2437" />
    <path
       style="fill:#552200;stroke-width:0.00138702"
       d="m 33.204448,38.761043 c 7.53e-4,-0.694267 0.210444,-19.613811 0.217019,-19.651859 8.19e-4,-0.005 0.117433,-0.0091 0.259299,-0.0091 h 0.257416 l -0.01883,0.137163 c -0.06574,0.464099 -0.199169,4.373523 -0.276206,7.844214 -0.05633,2.488098 -0.183196,10.838205 -0.184138,11.954379 l -1.88e-4,0.614417 h -0.128708 -0.128708 z"
       id="path2476" />
    <path
       style="fill:#552200;stroke-width:0.00138702"
       d="m 33.423915,18.044951 c 5.65e-4,-1.568449 0.07516,-2.454277 0.293113,-3.448895 0.20762,-0.950183 0.599385,-1.943956 1.05747,-2.68163 1.149161,-1.850665 3.068972,-3.1061741 5.656841,-3.6996388 l 0.387063,-0.08455 6.000124,-0.01879 c 3.300083,-0.009 8.98511,-0.02818 12.633361,-0.03758 6.560238,-0.01879 6.633236,-0.01879 6.633236,0.04697 0,0.07516 -0.09677,0.07516 -7.532311,0.09488 -13.951628,0.04697 -17.33025,0.170984 -19.064421,0.7271504 -0.361697,0.115555 -1.777387,0.7158777 -2.413127,1.0222387 -0.99058,0.4772517 -1.583203,1.0569997 -1.996468,1.9515657 -0.548655,1.186647 -0.901898,3.253203 -1.108863,6.480383 l -0.047,0.706482 h -0.250841 -0.250841 z"
       id="path2515" />
    <path
       style="fill:#552200;stroke-width:0.00138702"
       d="m 70.525349,8.2006952 c -2.533098,-0.0094 -4.568465,-0.01879 -4.522995,-0.02819 0.08455,-0.0094 0.111798,-0.06576 0.03758,-0.09395 -0.02819,-0.0087 0.400215,-0.02818 0.945013,-0.04697 0.792915,-0.01879 0.998942,-0.03758 1.031635,-0.07516 0.03758,-0.04697 0.975736,-0.05637 6.779887,-0.05637 h 6.739302 v 0.165348 0.165346 l -3.201908,-0.009 c -1.761041,-0.0049 -5.274477,-0.01879 -7.807575,-0.02818 z"
       id="path2554" />
    <path
       style="fill:#552200;stroke-width:0.00138702"
       d="m 43.845849,47.722702 v -0.735597 l 1.972516,-2.034888 1.972515,-2.034888 12.541574,-8e-5 12.541574,-10e-5 v 0.1832 0.183187 H 60.258894 47.643853 l -1.807263,1.807441 -1.807261,1.807538 v 0.779747 0.779764 h -0.09395 -0.09395 z"
       id="path2704" />
    <path
       style="fill:#552200;stroke-width:0.00138702"
       d="m 57.289505,42.889519 c 5.224309,-0.005 13.762136,-0.005 18.972917,0 5.210874,0.005 0.936654,0.009 -9.498624,0.009 -10.435091,0 -14.698509,-0.004 -9.474293,-0.009 z"
       id="path2928" />
    <path
       style="fill:#552200;stroke-width:0.00138702"
       d="m 62.219477,42.889519 c 2.48603,-0.005 6.56503,-0.005 9.064401,0 2.499465,0.005 0.465039,0.01 -4.52008,0.01 -4.985403,0 -7.03035,-0.004 -4.544321,-0.01 z"
       id="path2967" />
    <path
       style="fill:#552200;stroke-width:0.00138702"
       d="m 72.828182,42.889619 c 0.549591,-0.006 1.450075,-0.006 2.000042,0 0.54959,0.006 0.09958,0.01 -1.000068,0.01 -1.099934,0 -1.550035,-0.005 -0.999974,-0.01 z"
       id="path3006" />
    <path
       style="fill:#552200;stroke-width:0.00138702"
       d="m 73.380873,42.889619 c 0.288419,-0.006 0.751579,-0.006 1.0275,0 0.276206,0.006 0.03758,0.01 -0.525164,0.01 -0.565562,-1e-4 -0.791036,-0.005 -0.502617,-0.01 z"
       id="path3045" />
    <path
       style="fill:#552200;stroke-width:0.00138702"
       d="m 66.085404,138.9652 c 2.82e-4,-0.0375 0.0094,-0.10145 0.01879,-0.14655 l 0.01879,-0.0845 h 9.812502 9.812505 v -8.73417 -8.73409 l -8.46812,1.9e-4 c -4.657433,1e-4 -8.604342,0.01 -8.770817,0.0281 -0.21326,0.0188 -0.30251,0.0376 -0.30251,0.0752 0,0.0376 0.08455,0.047 0.30251,0.0563 0.166286,0.007 -1.782178,0.0189 -4.330401,0.0189 l -4.633194,0.007 v -5.10105 -5.10105 h 0.165347 0.165348 v 4.88084 4.88084 H 73.087477 86.2988 l -2.78e-4,0.43122 c -9.9e-5,0.23675 -0.06574,4.02301 -0.146557,8.41306 -0.08455,4.38996 -0.146566,8.21521 -0.146566,8.50043 l -2.78e-4,0.5186 -2.137675,0.0281 c -3.497277,0.0375 -14.909418,0.13152 -16.404024,0.13152 -1.295156,9e-5 -1.385345,-0.004 -1.384875,-0.0658 z"
       id="path3084" />
    <path
       style="fill:#552200;stroke-width:0.00138702"
       d="m 59.552599,102.44136 v -8.807528 h 0.165347 0.165347 v 8.807528 8.80754 h -0.165347 -0.165347 z"
       id="path3160" />
    <path
       style="fill:#552200;stroke-width:0.00138702"
       d="m 59.552599,83.358362 v -10.27548 h 0.165347 0.165347 v 10.27548 10.27547 h -0.165347 -0.165347 z"
       id="path3199" />
    <path
       style="fill:#552200;stroke-width:0.00138702"
       d="m 59.552599,66.312102 v -6.77087 h 13.027844 13.027845 v -3.50461 c 0,-3.09086 0.0065,-3.504687 0.05633,-3.504687 0.047,0 0.05633,0.434027 0.05633,3.688167 v 3.68819 H 72.803286 59.885547 v 6.58729 6.5873 H 59.7202 59.554853 Z"
       id="path3238" />
    <path
       style="fill:#552200;stroke-width:0.00138702"
       d="m 85.608288,47.920279 v -4.636183 h -6.367083 -6.367177 v -0.183187 -0.1832 h 6.42223 6.422136 v 4.819653 c 0,4.259726 -0.0065,4.819653 -0.05633,4.819653 -0.047,0 -0.05633,-0.539257 -0.05633,-4.636076 z"
       id="path3277" />
    <path
       style="fill:#552200;stroke-width:0.00138702"
       d="m 129.02214,137.96514 c 0,-0.0282 3.18358,-0.0376 9.47729,-0.0376 h 9.4772 l 3.07348,-3.07338 3.07358,-3.07339 v -10.63332 -10.63332 h 0.14656 0.14656 v 10.67588 10.67597 l -3.10393,3.06747 -3.10401,3.06757 h -9.59361 c -6.3712,0 -9.5936,-0.01 -9.5936,-0.0376 z"
       id="path3390" />
    <path
       style="fill:#552200;stroke-width:0.00138702"
       d="m 154.12369,95.835752 v -14.67923 h 0.14656 0.14656 v 14.67923 14.679228 h -0.14656 -0.14656 z"
       id="path3466" />
    <path
       style="fill:#552200;stroke-width:0.00138702"
       d="m 154.12369,71.642012 v -9.51441 l -0.58622,-0.58529 c -0.37673,-0.37579 -0.57027,-0.59469 -0.54302,-0.6116 0.0281,-0.0188 -0.68394,-0.75628 -1.95325,-2.02907 l -1.99648,-2.00248 h -10.01139 -10.01138 v -0.23863 -0.23863 l 9.93603,0.004 9.93605,0.004 2.76148,2.80865 2.76159,2.80863 v 9.55497 9.55499 h -0.14657 -0.14655 z"
       id="path3542" />
    <path
       style="fill:#552200;stroke-width:0.00138702"
       d="m 169.0738,44.137323 c 0.01,-0.0375 0.0281,-0.13058 0.047,-0.21137 0.047,-0.282787 0.13434,-0.380487 0.43685,-0.495107 l 0.0939,-0.0376 v 0.403027 0.40304 h -0.29593 c -0.26494,0 -0.29406,-0.007 -0.27715,-0.0658 z"
       id="path3766" />
    <path
       style="fill:#552200;stroke-width:0.00138702"
       d="m 168.50936,126.01994 v -12.5691 h 0.12871 0.12869 v 12.47731 12.47741 h 8.3305 8.33049 v -12.47741 c 0,-11.06651 0.007,-12.47731 0.0563,-12.47731 0.047,0 0.0563,1.42094 0.0563,12.5691 v 12.5691 h -8.51397 -8.51397 z"
       id="path3916" />
    <path
       style="fill:#552200;stroke-width:0.00138702"
       d="m 168.50936,103.95513 c 0,-5.222521 0.01,-13.149308 0.0281,-17.615078 l 0.0281,-8.11939 h 0.10427 0.10429 v 17.61509 17.615088 h -0.12871 -0.12871 z"
       id="path3955" />
    <path
       style="fill:#552200;stroke-width:0.00138702"
       d="m 168.52383,73.027822 c 8e-5,-0.28277 0.006,-0.39364 0.01,-0.24613 0.007,0.14749 0.007,0.3786 -1e-4,0.51388 -0.007,0.13529 -0.01,0.0188 -0.01,-0.26775 z"
       id="path3994" />
    <path
       style="fill:#552200;stroke-width:0.00138702"
       d="m 168.54656,74.229692 c 8.2e-4,-7.29743 0.0939,-18.95197 0.18038,-22.560194 0.0189,-0.625684 0.0281,5.092314 0.0375,12.706734 l 0.006,13.84443 h -0.10992 -0.10992 z"
       id="path4070" />
    <path
       style="fill:#552200;stroke-width:0.00138702"
       d="m 95.537475,135.18843 -2.773043,-2.81344 V 121.81195 111.2489 h 0.219834 0.219844 l 0.0089,10.26627 c 0.0049,5.6465 0.0089,10.37309 0.009,10.50358 l 1.81e-4,0.23674 2.812311,2.82716 2.812214,2.82706 15.077014,0.01 c 9.8202,0.007 15.08952,0.0188 15.113,0.047 0.0281,0.0282 -5.2633,0.0376 -15.34542,0.0376 H 98.30975 Z"
       id="path4553" />
    <path
       style="fill:#552200;stroke-width:0.00784614"
       d="M 3.9140668,202.41676 3.135244,201.60412 V 121.05587 40.507691 L 3.9225245,39.739207 4.7097969,38.97072 h 5.0885524 5.0885627 l 0.651989,0.674547 0.651998,0.674537 -0.0094,74.599806 -0.0094,74.5999 1.316482,1.32831 1.316481,1.32823 h 74.643862 74.643866 l 1.08273,1.09645 1.08284,1.09637 v 3.74145 3.74134 l -0.68488,0.66328 -0.68487,0.66326 h -6.89268 c -5.09381,0 -6.89262,-0.0658 -6.89262,-0.2405 0,-0.18226 -8.12352,-0.20762 -33.47489,-0.10334 -18.41111,0.0752 -52.251827,0.19541 -75.201623,0.2668 l -41.7267366,0.12966 z"
       id="path4592" />
    <path
       style="fill:#552200;stroke-width:0.00138702"
       d="m 107.06752,192.17746 c 10.76316,-0.005 28.37544,-0.005 39.13859,0 10.76306,0.005 1.95692,0.009 -19.5693,0.009 -21.52621,0 -30.332351,-0.004 -19.56929,-0.009 z"
       id="path4631" />
    <path
       style="fill:#552200;stroke-width:0.00138702"
       d="m 87.516639,192.09488 c 0,-0.0752 0.02817,-0.0752 39.120171,-0.0752 39.09575,0 39.12018,0 39.12018,0.0752 0,0.0752 -0.0281,0.0752 -39.12018,0.0752 -39.095747,0 -39.120171,0 -39.120171,-0.0752 z"
       id="path4670" />
    <path
       style="fill:#552200;stroke-width:0.00138702"
       d="m 109.60889,202.89936 c 16.5379,-0.0658 34.99147,-0.10991 39.08344,-0.0845 l 3.54142,0.0189 -5.2662,0.0281 c -4.77411,0.0281 -45.06186,0.10522 -47.689202,0.0939 -0.605014,-0.002 4.043212,-0.0281 10.330542,-0.0563 z"
       id="path4709" />
    <path
       style="fill:#552200;stroke-width:0.00277403"
       d="m 114.3613,56.385262 c 2.6945,-0.01 7.10381,-0.01 9.7984,0 2.69451,0.01 0.49042,0.0188 -4.89924,0.0188 -5.38909,0 -7.59376,-0.009 -4.89916,-0.0188 z"
       id="path4748" />
    <path
       style="fill:#2b1100;stroke-width:0.00277403"
       d="m 92.765094,101.85419 5.57e-4,-9.339648 3.112663,-3.06428 3.112655,-3.06426 h 18.318491 18.31838 v -6.7892 -6.78919 H 114.39812 93.168314 l 8.183456,-8.18365 8.18346,-8.18364 h 9.74346 9.74345 v 0.20856 0.20856 l -3.97548,0.047 c -2.18643,0.0281 -6.65363,0.047 -9.92693,0.047 h -5.95146 l -7.88282,7.88311 -7.882833,7.8831 1.791006,-0.01 c 0.985133,-0.007 10.568407,-0.003 21.296137,0.007 l 19.50503,0.0189 v 7.04604 7.04605 h -18.4778 -18.477822 l -2.91716,2.9178 -2.917243,2.91791 v 9.265898 9.26592 H 92.98493 92.765094 l 6.55e-4,-9.33968 z"
       id="path4787" />
  </g>
</svg>
